SourceCodePro_1.ufo
<glyph name="quotedbl" format="1">
  <advance width="600"/>
  <unicode hex="0022"/>
  <outline>
    <contour>
      <point x="108" y="284" type="line"/>
      <point x="212" y="284" type="line"/>
      <point x="250" y="526" type="line"/>
      <point x="256" y="684" type="line"/>
      <point x="64" y="684" type="line"/>
      <point x="70" y="526" type="line"/>
    </contour>
    <contour>
      <point x="388" y="284" type="line"/>
      <point x="492" y="284" type="line"/>
      <point x="530" y="526" type="line"/>
      <point x="536" y="684" type="line"/>
      <point x="344" y="684" type="line"/>
      <point x="350" y="526" type="line"/>
    </contour>
  </outline>
</glyph>
<glyph name="quotesingle" format="1">
  <advance width="600"/>
  <unicode hex="0027"/>
  <outline>
    <contour>
      <point x="248" y="284" type="line"/>
      <point x="352" y="284" type="line"/>
      <point x="390" y="526" type="line"/>
      <point x="396" y="684" type="line"/>
      <point x="204" y="684" type="line"/>
      <point x="210" y="526" type="line"/>
    </contour>
  </outline>
</glyph>
<glyph name="three" format="1">
  <advance width="600"/>
  <unicode hex="0033"/>
  <outline>
    <contour>
      <point x="36" y="78" type="line"/>
      <point x="86" y="22"/>
      <point x="168" y="-12"/>
      <point x="276" y="-12" type="curve" smooth="yes"/>
      <point x="413" y="-12"/>
      <point x="536" y="54"/>
      <point x="536" y="174" type="curve" smooth="yes"/>
      <point x="536" y="254"/>
      <point x="478" y="304"/>
      <point x="400" y="326" type="curve"/>
      <point x="400" y="330" type="line"/>
      <point x="475" y="360"/>
      <point x="516" y="406"/>
      <point x="516" y="467" type="curve" smooth="yes"/>
      <point x="516" y="582"/>
      <point x="418" y="646"/>
      <point x="272" y="646" type="curve" smooth="yes"/>
      <point x="190" y="646"/>
      <point x="117" y="616"/>
      <point x="52" y="564" type="curve"/>
      <point x="138" y="460" type="line"/>
      <point x="182" y="494"/>
      <point x="218" y="512"/>
      <point x="264" y="512" type="curve" smooth="yes"/>
      <point x="314" y="512"/>
      <point x="344" y="492"/>
      <point x="344" y="454" type="curve" smooth="yes"/>
      <point x="344" y="410"/>
      <point x="302" y="382"/>
      <point x="188" y="382" type="curve"/>
      <point x="188" y="262" type="line"/>
      <point x="329" y="262"/>
      <point x="364" y="234"/>
      <point x="364" y="186" type="curve" smooth="yes"/>
      <point x="364" y="146"/>
      <point x="320" y="126"/>
      <point x="258" y="126" type="curve" smooth="yes"/>
      <point x="210" y="126"/>
      <point x="156" y="150"/>
      <point x="114" y="186" type="curve"/>
    </contour>
  </outline>
</glyph>
<glyph name="less" format="1">
  <advance width="600"/>
  <unicode hex="003C"/>
  <outline>
    <contour>
      <point x="114" y="254" type="line"/>
      <point x="506" y="4" type="line"/>
      <point x="506" y="158" type="line"/>
      <point x="254" y="310" type="line"/>
      <point x="254" y="314" type="line"/>
      <point x="506" y="466" type="line"/>
      <point x="506" y="620" type="line"/>
      <point x="114" y="370" type="line"/>
    </contour>
  </outline>
</glyph>
<glyph name="question" format="1">
  <advance width="600"/>
  <unicode hex="003F"/>
  <outline>
    <contour>
      <point x="208" y="264" type="curve"/>
      <point x="358" y="264" type="line"/>
      <point x="348" y="374"/>
      <point x="504" y="386"/>
      <point x="504" y="516" type="curve" smooth="yes"/>
      <point x="504" y="632"/>
      <point x="408" y="682"/>
      <point x="292" y="682" type="curve" smooth="yes"/>
      <point x="212" y="682"/>
      <point x="143" y="644"/>
      <point x="94" y="588" type="curve"/>
      <point x="188" y="502" type="line"/>
      <point x="217" y="526"/>
      <point x="242" y="544"/>
      <point x="280" y="544" type="curve" smooth="yes"/>
      <point x="310" y="544"/>
      <point x="340" y="530"/>
      <point x="340" y="494" type="curve" smooth="yes"/>
      <point x="340" y="430"/>
      <point x="188" y="394"/>
    </contour>
    <contour>
      <point x="176" y="99" type="curve" smooth="yes"/>
      <point x="176" y="35"/>
      <point x="222" y="-12"/>
      <point x="286" y="-12" type="curve" smooth="yes"/>
      <point x="350" y="-12"/>
      <point x="396" y="35"/>
      <point x="396" y="99" type="curve" smooth="yes"/>
      <point x="396" y="163"/>
      <point x="350" y="208"/>
      <point x="286" y="208" type="curve" smooth="yes"/>
      <point x="222" y="208"/>
      <point x="176" y="163"/>
    </contour>
  </outline>
</glyph>
<glyph name="at" format="1">
  <advance width="600"/>
  <unicode hex="0040"/>
  <outline>
    <contour>
      <point x="552" y="400" type="line" smooth="yes"/>
      <point x="552" y="539"/>
      <point x="484" y="648"/>
      <point x="327" y="648" type="curve" smooth="yes"/>
      <point x="164" y="648"/>
      <point x="24" y="532"/>
      <point x="24" y="254" type="curve" smooth="yes"/>
      <point x="24" y="-23"/>
      <point x="177" y="-148"/>
      <point x="338" y="-148" type="curve" smooth="yes"/>
      <point x="411" y="-148"/>
      <point x="464" y="-126"/>
      <point x="522" y="-94" type="curve"/>
      <point x="474" y="-10" type="line"/>
      <point x="436" y="-32"/>
      <point x="404" y="-46"/>
      <point x="345" y="-46" type="curve" smooth="yes"/>
      <point x="243" y="-46"/>
      <point x="140" y="44"/>
      <point x="140" y="250" type="curve" smooth="yes"/>
      <point x="140" y="470"/>
      <point x="240" y="546"/>
      <point x="323" y="546" type="curve" smooth="yes"/>
      <point x="406" y="546"/>
      <point x="448" y="486"/>
      <point x="448" y="420" type="curve" smooth="yes"/>
      <point x="448" y="404" type="line"/>
      <point x="302" y="385"/>
      <point x="204" y="342"/>
      <point x="204" y="232" type="curve" smooth="yes"/>
      <point x="204" y="155"/>
      <point x="257" y="88"/>
      <point x="331" y="88" type="curve" smooth="yes"/>
      <point x="386" y="88"/>
      <point x="422" y="112"/>
      <point x="446" y="148" type="curve"/>
      <point x="450" y="148" type="line"/>
      <point x="462" y="100" type="line"/>
      <point x="552" y="100" type="line"/>
    </contour>
    <contour>
      <point x="328" y="236" type="curve" smooth="yes"/>
      <point x="328" y="274"/>
      <point x="353" y="290"/>
      <point x="430" y="302" type="curve"/>
      <point x="430" y="224" type="line"/>
      <point x="413" y="210"/>
      <point x="396" y="198"/>
      <point x="370" y="198" type="curve" smooth="yes"/>
      <point x="343" y="198"/>
      <point x="328" y="213"/>
    </contour>
  </outline>
</glyph>
<glyph name="J" format="1">
  <advance width="600"/>
  <unicode hex="004A"/>
  <outline>
    <contour>
      <point x="51" y="95" type="line"/>
      <point x="112" y="14"/>
      <point x="200" y="-12"/>
      <point x="272" y="-12" type="curve" smooth="yes"/>
      <point x="459" y="-12"/>
      <point x="525" y="96"/>
      <point x="525" y="226" type="curve" smooth="yes"/>
      <point x="525" y="650" type="line"/>
      <point x="106" y="650" type="line"/>
      <point x="106" y="506" type="line"/>
      <point x="353" y="506" type="line"/>
      <point x="353" y="240" type="line" smooth="yes"/>
      <point x="353" y="158"/>
      <point x="322" y="136"/>
      <point x="266" y="136" type="curve" smooth="yes"/>
      <point x="226" y="136"/>
      <point x="185" y="160"/>
      <point x="148" y="202" type="curve"/>
    </contour>
  </outline>
</glyph>
<glyph name="L" format="1">
  <advance width="600"/>
  <unicode hex="004C"/>
  <outline>
    <contour>
      <point x="96" y="0" type="line"/>
      <point x="545" y="0" type="line"/>
      <point x="545" y="144" type="line"/>
      <point x="268" y="144" type="line"/>
      <point x="268" y="650" type="line"/>
      <point x="96" y="650" type="line"/>
    </contour>
  </outline>
</glyph>
<glyph name="Q" format="1">
  <advance width="600"/>
  <unicode hex="0051"/>
  <outline>
    <contour>
      <point x="296" y="514" type="curve" smooth="yes"/>
      <point x="352" y="514"/>
      <point x="385" y="446"/>
      <point x="385" y="328" type="curve" smooth="yes"/>
      <point x="385" y="210"/>
      <point x="352" y="136"/>
      <point x="296" y="136" type="curve" smooth="yes"/>
      <point x="240" y="136"/>
      <point x="207" y="210"/>
      <point x="207" y="328" type="curve" smooth="yes"/>
      <point x="207" y="446"/>
      <point x="240" y="514"/>
    </contour>
    <contour>
      <point x="560" y="-34" type="line"/>
      <point x="546" y="-41"/>
      <point x="526" y="-48"/>
      <point x="506" y="-48" type="curve" smooth="yes"/>
      <point x="467" y="-48"/>
      <point x="418" y="-37"/>
      <point x="395" y="7" type="curve"/>
      <point x="497" y="50"/>
      <point x="561" y="163"/>
      <point x="561" y="328" type="curve" smooth="yes"/>
      <point x="561" y="541"/>
      <point x="454" y="662"/>
      <point x="296" y="662" type="curve" smooth="yes"/>
      <point x="138" y="662"/>
      <point x="31" y="542"/>
      <point x="31" y="328" type="curve" smooth="yes"/>
      <point x="31" y="152"/>
      <point x="103" y="36"/>
      <point x="216" y="0" type="curve"/>
      <point x="259" y="-109"/>
      <point x="353" y="-184"/>
      <point x="486" y="-184" type="curve" smooth="yes"/>
      <point x="532" y="-184"/>
      <point x="568" y="-174"/>
      <point x="590" y="-160" type="curve"/>
    </contour>
  </outline>
</glyph>
<glyph name="V" format="1">
  <advance width="600"/>
  <unicode hex="0056"/>
  <outline>
    <contour>
      <point x="196" y="0" type="line"/>
      <point x="404" y="0" type="line"/>
      <point x="596" y="650" type="line"/>
      <point x="420" y="650" type="line"/>
      <point x="354" y="366" type="line" smooth="yes"/>
      <point x="337" y="297"/>
      <point x="324" y="230"/>
      <point x="306" y="160" type="curve"/>
      <point x="302" y="160" type="line"/>
      <point x="284" y="230"/>
      <point x="272" y="297"/>
      <point x="254" y="366" type="curve" smooth="yes"/>
      <point x="186" y="650" type="line"/>
      <point x="4" y="650" type="line"/>
    </contour>
  </outline>
</glyph>
<glyph name="W" format="1">
  <advance width="600"/>
  <unicode hex="0057"/>
  <outline>
    <contour>
      <point x="83" y="0" type="line"/>
      <point x="257" y="0" type="line"/>
      <point x="284" y="178" type="line" smooth="yes"/>
      <point x="291" y="220"/>
      <point x="296" y="266"/>
      <point x="299" y="305" type="curve"/>
      <point x="302" y="305" type="line"/>
      <point x="303" y="266"/>
      <point x="310" y="220"/>
      <point x="317" y="178" type="curve" smooth="yes"/>
      <point x="346" y="0" type="line"/>
      <point x="524" y="0" type="line"/>
      <point x="599" y="650" type="line"/>
      <point x="435" y="650" type="line"/>
      <point x="427" y="328" type="line"/>
      <point x="427" y="274"/>
      <point x="427" y="218"/>
      <point x="427" y="160" type="curve"/>
      <point x="423" y="160" type="line"/>
      <point x="414" y="218"/>
      <point x="400" y="275"/>
      <point x="391" y="328" type="curve" smooth="yes"/>
      <point x="358" y="486" type="line"/>
      <point x="258" y="486" type="line"/>
      <point x="222" y="328" type="line" smooth="yes"/>
      <point x="212" y="273"/>
      <point x="198" y="216"/>
      <point x="190" y="160" type="curve"/>
      <point x="186" y="160" type="line"/>
      <point x="186" y="216"/>
      <point x="186" y="272"/>
      <point x="186" y="328" type="curve" smooth="yes"/>
      <point x="178" y="650" type="line"/>
      <point x="2" y="650" type="line"/>
    </contour>
  </outline>
</glyph>
<glyph name="Z" format="1">
  <advance width="600"/>
  <unicode hex="005A"/>
  <outline>
    <contour>
      <point x="53" y="0" type="line"/>
      <point x="550" y="0" type="line"/>
      <point x="550" y="144" type="line"/>
      <point x="265" y="144" type="line"/>
      <point x="547" y="546" type="line"/>
      <point x="547" y="650" type="line"/>
      <point x="80" y="650" type="line"/>
      <point x="80" y="506" type="line"/>
      <point x="335" y="506" type="line"/>
      <point x="53" y="104" type="line"/>
    </contour>
  </outline>
</glyph>
<glyph name="b" format="1">
  <advance width="600"/>
  <unicode hex="0062"/>
  <outline>
    <contour>
      <point x="64" y="0" type="line"/>
      <point x="198" y="0" type="line"/>
      <point x="212" y="54" type="line"/>
      <point x="216" y="54" type="line"/>
      <point x="255" y="10"/>
      <point x="300" y="-12"/>
      <point x="345" y="-12" type="curve" smooth="yes"/>
      <point x="454" y="-12"/>
      <point x="558" y="86"/>
      <point x="558" y="259" type="curve" smooth="yes"/>
      <point x="558" y="412"/>
      <point x="480" y="512"/>
      <point x="359" y="512" type="curve" smooth="yes"/>
      <point x="314" y="512"/>
      <point x="268" y="494"/>
      <point x="232" y="462" type="curve"/>
      <point x="236" y="534" type="line"/>
      <point x="236" y="696" type="line"/>
      <point x="64" y="696" type="line"/>
    </contour>
    <contour>
      <point x="236" y="152" type="curve"/>
      <point x="236" y="336" type="line"/>
      <point x="260" y="362"/>
      <point x="281" y="372"/>
      <point x="308" y="372" type="curve" smooth="yes"/>
      <point x="357" y="372"/>
      <point x="382" y="338"/>
      <point x="382" y="256" type="curve" smooth="yes"/>
      <point x="382" y="160"/>
      <point x="346" y="128"/>
      <point x="304" y="128" type="curve" smooth="yes"/>
      <point x="281" y="128"/>
      <point x="257" y="134"/>
    </contour>
  </outline>
</glyph>
<glyph name="c" format="1">
  <advance width="600"/>
  <unicode hex="0063"/>
  <outline>
    <contour>
      <point x="62" y="250" type="curve" smooth="yes"/>
      <point x="62" y="84"/>
      <point x="184" y="-12"/>
      <point x="342" y="-12" type="curve" smooth="yes"/>
      <point x="408" y="-12"/>
      <point x="489" y="9"/>
      <point x="551" y="60" type="curve"/>
      <point x="483" y="168" type="line"/>
      <point x="449" y="147"/>
      <point x="408" y="126"/>
      <point x="359" y="126" type="curve" smooth="yes"/>
      <point x="289" y="126"/>
      <point x="238" y="174"/>
      <point x="238" y="250" type="curve" smooth="yes"/>
      <point x="238" y="326"/>
      <point x="290" y="374"/>
      <point x="365" y="374" type="curve" smooth="yes"/>
      <point x="397" y="374"/>
      <point x="429" y="365"/>
      <point x="466" y="340" type="curve"/>
      <point x="544" y="446" type="line"/>
      <point x="502" y="486"/>
      <point x="433" y="512"/>
      <point x="355" y="512" type="curve" smooth="yes"/>
      <point x="200" y="512"/>
      <point x="62" y="416"/>
    </contour>
  </outline>
</glyph>
<glyph name="f" format="1">
  <advance width="600"/>
  <unicode hex="0066"/>
  <outline>
    <contour>
      <point x="588" y="682" type="line"/>
      <point x="548" y="694"/>
      <point x="494" y="708"/>
      <point x="434" y="708" type="curve" smooth="yes"/>
      <point x="270" y="708"/>
      <point x="202" y="614"/>
      <point x="202" y="502" type="curve" smooth="yes"/>
      <point x="202" y="500" type="line"/>
      <point x="74" y="494" type="line"/>
      <point x="74" y="366" type="line"/>
      <point x="202" y="366" type="line"/>
      <point x="202" y="0" type="line"/>
      <point x="374" y="0" type="line"/>
      <point x="374" y="366" type="line"/>
      <point x="532" y="366" type="line"/>
      <point x="532" y="500" type="line"/>
      <point x="374" y="500" type="line"/>
      <point x="374" y="502" type="line" smooth="yes"/>
      <point x="374" y="555"/>
      <point x="402" y="574"/>
      <point x="456" y="574" type="curve" smooth="yes"/>
      <point x="492" y="574"/>
      <point x="528" y="566"/>
      <point x="556" y="556" type="curve"/>
    </contour>
  </outline>
</glyph>
<glyph name="v" format="1">
  <advance width="600"/>
  <unicode hex="0076"/>
  <outline>
    <contour>
      <point x="204" y="0" type="line"/>
      <point x="402" y="0" type="line"/>
      <point x="576" y="500" type="line"/>
      <point x="412" y="500" type="line"/>
      <point x="347" y="282" type="line" smooth="yes"/>
      <point x="332" y="232"/>
      <point x="320" y="180"/>
      <point x="306" y="126" type="curve"/>
      <point x="302" y="126" type="line"/>
      <point x="288" y="180"/>
      <point x="276" y="232"/>
      <point x="261" y="282" type="curve" smooth="yes"/>
      <point x="196" y="500" type="line"/>
      <point x="24" y="500" type="line"/>
    </contour>
  </outline>
</glyph>
<glyph name="bar" format="1">
  <advance width="600"/>
  <unicode hex="007C"/>
  <outline>
    <contour>
      <point x="245" y="-250" type="line"/>
      <point x="355" y="-250" type="line"/>
      <point x="355" y="750" type="line"/>
      <point x="245" y="750" type="line"/>
    </contour>
  </outline>
</glyph>
<glyph name="sterling" format="1">
  <advance width="600"/>
  <unicode hex="00A3"/>
  <outline>
    <contour>
      <point x="281" y="148" type="line"/>
      <point x="314" y="182"/>
      <point x="327" y="209"/>
      <point x="327" y="248" type="curve" smooth="yes"/>
      <point x="327" y="254"/>
      <point x="327" y="260"/>
      <point x="326" y="266" type="curve"/>
      <point x="462" y="266" type="line"/>
      <point x="462" y="370" type="line"/>
      <point x="302" y="370" type="line"/>
      <point x="297" y="388"/>
      <point x="294" y="405"/>
      <point x="294" y="422" type="curve" smooth="yes"/>
      <point x="294" y="484"/>
      <point x="330" y="508"/>
      <point x="384" y="508" type="curve" smooth="yes"/>
      <point x="415" y="508"/>
      <point x="440" y="496"/>
      <point x="465" y="470" type="curve"/>
      <point x="557" y="562" type="line"/>
      <point x="507" y="618"/>
      <point x="448" y="646"/>
      <point x="367" y="646" type="curve" smooth="yes"/>
      <point x="231" y="646"/>
      <point x="131" y="564"/>
      <point x="131" y="432" type="curve" smooth="yes"/>
      <point x="131" y="413"/>
      <point x="137" y="391"/>
      <point x="145" y="370" type="curve"/>
      <point x="68" y="364" type="line"/>
      <point x="68" y="266" type="line"/>
      <point x="177" y="266" type="line"/>
      <point x="178" y="261"/>
      <point x="178" y="255"/>
      <point x="178" y="250" type="curve" smooth="yes"/>
      <point x="178" y="180"/>
      <point x="126" y="130"/>
      <point x="63" y="106" type="curve"/>
      <point x="63" y="0" type="line"/>
      <point x="557" y="0" type="line"/>
      <point x="557" y="144" type="line"/>
      <point x="281" y="144" type="line"/>
    </contour>
  </outline>
</glyph>
<glyph name="guillemotleft" format="1">
  <advance width="600"/>
  <unicode hex="00AB"/>
  <outline>
    <contour>
      <point x="204" y="14" type="line"/>
      <point x="276" y="78" type="line"/>
      <point x="148" y="252" type="line"/>
      <point x="276" y="426" type="line"/>
      <point x="204" y="490" type="line"/>
      <point x="26" y="338" type="line"/>
      <point x="26" y="166" type="line"/>
    </contour>
    <contour>
      <point x="484" y="14" type="line"/>
      <point x="556" y="78" type="line"/>
      <point x="428" y="252" type="line"/>
      <point x="556" y="426" type="line"/>
      <point x="484" y="490" type="line"/>
      <point x="306" y="338" type="line"/>
      <point x="306" y="166" type="line"/>
    </contour>
  </outline>
</glyph>
<glyph name="degree" format="1">
  <advance width="600"/>
  <unicode hex="00B0"/>
  <outline>
    <contour>
      <point x="301" y="386" type="curve" smooth="yes"/>
      <point x="387" y="386"/>
      <point x="453" y="450"/>
      <point x="453" y="536" type="curve" smooth="yes"/>
      <point x="453" y="622"/>
      <point x="387" y="686"/>
      <point x="301" y="686" type="curve" smooth="yes"/>
      <point x="215" y="686"/>
      <point x="149" y="622"/>
      <point x="149" y="536" type="curve" smooth="yes"/>
      <point x="149" y="450"/>
      <point x="215" y="386"/>
    </contour>
    <contour>
      <point x="301" y="466" type="curve" smooth="yes"/>
      <point x="263" y="466"/>
      <point x="237" y="494"/>
      <point x="237" y="536" type="curve" smooth="yes"/>
      <point x="237" y="578"/>
      <point x="263" y="606"/>
      <point x="301" y="606" type="curve" smooth="yes"/>
      <point x="339" y="606"/>
      <point x="365" y="578"/>
      <point x="365" y="536" type="curve" smooth="yes"/>
      <point x="365" y="494"/>
      <point x="339" y="466"/>
    </contour>
  </outline>
</glyph>
<glyph name="acute" format="1">
  <advance width="600"/>
  <unicode hex="00B4"/>
  <outline>
    <contour>
      <point x="474" y="748" type="line"/>
      <point x="300" y="748" type="line"/>
      <point x="212" y="574" type="line"/>
      <point x="336" y="574" type="line"/>
    </contour>
  </outline>
</glyph>
<glyph name="guillemotright" format="1">
  <advance width="600"/>
  <unicode hex="00BB"/>
  <outline>
    <contour>
      <point x="44" y="78" type="line"/>
      <point x="116" y="14" type="line"/>
      <point x="294" y="166" type="line"/>
      <point x="294" y="338" type="line"/>
      <point x="116" y="490" type="line"/>
      <point x="44" y="426" type="line"/>
      <point x="172" y="252" type="line"/>
    </contour>
    <contour>
      <point x="324" y="78" type="line"/>
      <point x="396" y="14" type="line"/>
      <point x="574" y="166" type="line"/>
      <point x="574" y="338" type="line"/>
      <point x="396" y="490" type="line"/>
      <point x="324" y="426" type="line"/>
      <point x="452" y="252" type="line"/>
    </contour>
  </outline>
</glyph>
<glyph name="Atilde" format="1">
  <advance width="600"/>
  <unicode hex="00C3"/>
  <outline>
    <contour>
      <point x="394" y="846" type="line"/>
      <point x="386" y="814"/>
      <point x="372" y="804"/>
      <point x="356" y="804" type="curve" smooth="yes"/>
      <point x="328" y="804"/>
      <point x="290" y="846"/>
      <point x="236" y="846" type="curve" smooth="yes"/>
      <point x="182" y="846"/>
      <point x="132" y="802"/>
      <point x="120" y="700" type="curve"/>
      <point x="206" y="700" type="line"/>
      <point x="214" y="732"/>
      <point x="228" y="742"/>
      <point x="244" y="742" type="curve" smooth="yes"/>
      <point x="272" y="742"/>
      <point x="310" y="700"/>
      <point x="364" y="700" type="curve" smooth="yes"/>
      <point x="418" y="700"/>
      <point x="468" y="744"/>
      <point x="480" y="846" type="curve"/>
    </contour>
    <contour>
      <point x="239" y="271" type="line"/>
      <point x="249" y="316" type="line" smooth="yes"/>
      <point x="263" y="378"/>
      <point x="280" y="456"/>
      <point x="294" y="522" type="curve"/>
      <point x="298" y="522" type="line"/>
      <point x="314" y="457"/>
      <point x="331" y="378"/>
      <point x="345" y="316" type="curve" smooth="yes"/>
      <point x="355" y="271" type="line"/>
    </contour>
    <contour>
      <point x="418" y="0" type="line"/>
      <point x="600" y="0" type="line"/>
      <point x="404" y="650" type="line"/>
      <point x="196" y="650" type="line"/>
      <point x="0" y="0" type="line"/>
      <point x="176" y="0" type="line"/>
      <point x="208" y="138" type="line"/>
      <point x="386" y="138" type="line"/>
    </contour>
  </outline>
</glyph>
<glyph name="AE" format="1">
  <advance width="600"/>
  <unicode hex="00C6"/>
  <outline>
    <contour>
      <point x="242" y="265" type="line"/>
      <point x="264" y="348" type="line" smooth="yes"/>
      <point x="276" y="400"/>
      <point x="292" y="460"/>
      <point x="306" y="522" type="curve"/>
      <point x="309" y="522" type="line"/>
      <point x="309" y="265" type="line"/>
    </contour>
    <contour>
      <point x="460" y="144" type="line"/>
      <point x="460" y="262" type="line"/>
      <point x="567" y="262" type="line"/>
      <point x="567" y="406" type="line"/>
      <point x="460" y="406" type="line"/>
      <point x="460" y="506" type="line"/>
      <point x="588" y="506" type="line"/>
      <point x="588" y="650" type="line"/>
      <point x="186" y="650" type="line"/>
      <point x="-4" y="0" type="line"/>
      <point x="172" y="0" type="line"/>
      <point x="207" y="132" type="line"/>
      <point x="309" y="132" type="line"/>
      <point x="309" y="0" type="line"/>
      <point x="596" y="0" type="line"/>
      <point x="596" y="144" type="line"/>
    </contour>
  </outline>
</glyph>
<glyph name="Ccedilla" format="1">
  <advance width="600"/>
  <unicode hex="00C7"/>
  <outline>
    <contour>
      <point x="481" y="188" type="line"/>
      <point x="453" y="158"/>
      <point x="419" y="136"/>
      <point x="377" y="136" type="curve" smooth="yes"/>
      <point x="289" y="136"/>
      <point x="227" y="204"/>
      <point x="227" y="326" type="curve" smooth="yes"/>
      <point x="227" y="444"/>
      <point x="289" y="514"/>
      <point x="369" y="514" type="curve" smooth="yes"/>
      <point x="413" y="514"/>
      <point x="443" y="498"/>
      <point x="473" y="472" type="curve"/>
      <point x="567" y="578" type="line"/>
      <point x="521" y="622"/>
      <point x="453" y="662"/>
      <point x="369" y="662" type="curve" smooth="yes"/>
      <point x="193" y="662"/>
      <point x="51" y="538"/>
      <point x="51" y="320" type="curve" smooth="yes"/>
      <point x="51" y="129"/>
      <point x="159" y="21"/>
      <point x="297" y="-6" type="curve"/>
      <point x="262" y="-76" type="line"/>
      <point x="308" y="-88"/>
      <point x="318" y="-102"/>
      <point x="318" y="-116" type="curve" smooth="yes"/>
      <point x="318" y="-142"/>
      <point x="284" y="-154"/>
      <point x="238" y="-158" type="curve"/>
      <point x="250" y="-224" type="line"/>
      <point x="352" y="-220"/>
      <point x="440" y="-188"/>
      <point x="440" y="-116" type="curve" smooth="yes"/>
      <point x="440" y="-74"/>
      <point x="416" y="-52"/>
      <point x="382" y="-40" type="curve"/>
      <point x="394" y="-11" type="line"/>
      <point x="463" y="-4"/>
      <point x="526" y="27"/>
      <point x="575" y="84" type="curve"/>
    </contour>
  </outline>
</glyph>
<glyph name="Egrave" format="1">
  <advance width="600"/>
  <unicode hex="00C8"/>
  <outline>
    <contour>
      <point x="86" y="0" type="line"/>
      <point x="536" y="0" type="line"/>
      <point x="536" y="144" type="line"/>
      <point x="258" y="144" type="line"/>
      <point x="258" y="260" type="line"/>
      <point x="486" y="260" type="line"/>
      <point x="486" y="404" type="line"/>
      <point x="258" y="404" type="line"/>
      <point x="258" y="506" type="line"/>
      <point x="526" y="506" type="line"/>
      <point x="526" y="650" type="line"/>
      <point x="86" y="650" type="line"/>
    </contour>
    <contour>
      <point x="266" y="700" type="line"/>
      <point x="402" y="700" type="line"/>
      <point x="324" y="824" type="line"/>
      <point x="144" y="824" type="line"/>
    </contour>
  </outline>
</glyph>
<glyph name="Eacute" format="1">
  <advance width="600"/>
  <unicode hex="00C9"/>
  <outline>
    <contour>
      <point x="86" y="0" type="line"/>
      <point x="536" y="0" type="line"/>
      <point x="536" y="144" type="line"/>
      <point x="258" y="144" type="line"/>
      <point x="258" y="260" type="line"/>
      <point x="486" y="260" type="line"/>
      <point x="486" y="404" type="line"/>
      <point x="258" y="404" type="line"/>
      <point x="258" y="506" type="line"/>
      <point x="526" y="506" type="line"/>
      <point x="526" y="650" type="line"/>
      <point x="86" y="650" type="line"/>
    </contour>
    <contour>
      <point x="492" y="824" type="line"/>
      <point x="312" y="824" type="line"/>
      <point x="234" y="700" type="line"/>
      <point x="370" y="700" type="line"/>
    </contour>
  </outline>
</glyph>
<glyph name="Iacute" format="1">
  <advance width="600"/>
  <unicode hex="00CD"/>
  <outline>
    <contour>
      <point x="66" y="0" type="line"/>
      <point x="534" y="0" type="line"/>
      <point x="534" y="144" type="line"/>
      <point x="386" y="144" type="line"/>
      <point x="386" y="506" type="line"/>
      <point x="534" y="506" type="line"/>
      <point x="534" y="650" type="line"/>
      <point x="66" y="650" type="line"/>
      <point x="66" y="506" type="line"/>
      <point x="214" y="506" type="line"/>
      <point x="214" y="144" type="line"/>
      <point x="66" y="144" type="line"/>
    </contour>
    <contour>
      <point x="474" y="824" type="line"/>
      <point x="294" y="824" type="line"/>
      <point x="216" y="700" type="line"/>
      <point x="352" y="700" type="line"/>
    </contour>
  </outline>
</glyph>
<glyph name="Icircumflex" format="1">
  <advance width="600"/>
  <unicode hex="00CE"/>
  <outline>
    <contour>
      <point x="66" y="0" type="line"/>
      <point x="534" y="0" type="line"/>
      <point x="534" y="144" type="line"/>
      <point x="386" y="144" type="line"/>
      <point x="386" y="506" type="line"/>
      <point x="534" y="506" type="line"/>
      <point x="534" y="650" type="line"/>
      <point x="66" y="650" type="line"/>
      <point x="66" y="506" type="line"/>
      <point x="214" y="506" type="line"/>
      <point x="214" y="144" type="line"/>
      <point x="66" y="144" type="line"/>
    </contour>
    <contour>
      <point x="250" y="700" type="line"/>
      <point x="298" y="758" type="line"/>
      <point x="302" y="758" type="line"/>
      <point x="350" y="700" type="line"/>
      <point x="480" y="700" type="line"/>
      <point x="384" y="824" type="line"/>
      <point x="216" y="824" type="line"/>
      <point x="120" y="700" type="line"/>
    </contour>
  </outline>
</glyph>
<glyph name="Idieresis" format="1">
  <advance width="600"/>
  <unicode hex="00CF"/>
  <outline>
    <contour>
      <point x="66" y="0" type="line"/>
      <point x="534" y="0" type="line"/>
      <point x="534" y="144" type="line"/>
      <point x="386" y="144" type="line"/>
      <point x="386" y="506" type="line"/>
      <point x="534" y="506" type="line"/>
      <point x="534" y="650" type="line"/>
      <point x="66" y="650" type="line"/>
      <point x="66" y="506" type="line"/>
      <point x="214" y="506" type="line"/>
      <point x="214" y="144" type="line"/>
      <point x="66" y="144" type="line"/>
    </contour>
    <contour>
      <point x="196" y="694" type="curve" smooth="yes"/>
      <point x="242" y="694"/>
      <point x="274" y="728"/>
      <point x="274" y="772" type="curve" smooth="yes"/>
      <point x="274" y="816"/>
      <point x="242" y="850"/>
      <point x="196" y="850" type="curve" smooth="yes"/>
      <point x="150" y="850"/>
      <point x="118" y="816"/>
      <point x="118" y="772" type="curve" smooth="yes"/>
      <point x="118" y="728"/>
      <point x="150" y="694"/>
    </contour>
    <contour>
      <point x="404" y="694" type="curve" smooth="yes"/>
      <point x="450" y="694"/>
      <point x="482" y="728"/>
      <point x="482" y="772" type="curve" smooth="yes"/>
      <point x="482" y="816"/>
      <point x="450" y="850"/>
      <point x="404" y="850" type="curve" smooth="yes"/>
      <point x="358" y="850"/>
      <point x="326" y="816"/>
      <point x="326" y="772" type="curve" smooth="yes"/>
      <point x="326" y="728"/>
      <point x="358" y="694"/>
    </contour>
  </outline>
</glyph>
<glyph name="Eth" format="1">
  <advance width="600"/>
  <unicode hex="00D0"/>
  <outline>
    <contour>
      <point x="64" y="0" type="line"/>
      <point x="258" y="0" type="line" smooth="yes"/>
      <point x="432" y="0"/>
      <point x="564" y="98"/>
      <point x="564" y="328" type="curve" smooth="yes"/>
      <point x="564" y="558"/>
      <point x="432" y="650"/>
      <point x="248" y="650" type="curve" smooth="yes"/>
      <point x="64" y="650" type="line"/>
      <point x="64" y="374" type="line"/>
      <point x="-4" y="368" type="line"/>
      <point x="-4" y="294" type="line"/>
      <point x="64" y="294" type="line"/>
    </contour>
    <contour>
      <point x="236" y="138" type="line"/>
      <point x="236" y="294" type="line"/>
      <point x="330" y="294" type="line"/>
      <point x="330" y="374" type="line"/>
      <point x="236" y="374" type="line"/>
      <point x="236" y="512" type="line"/>
      <point x="238" y="512" type="line" smooth="yes"/>
      <point x="320" y="512"/>
      <point x="388" y="480"/>
      <point x="388" y="328" type="curve" smooth="yes"/>
      <point x="388" y="176"/>
      <point x="320" y="138"/>
      <point x="238" y="138" type="curve" smooth="yes"/>
    </contour>
  </outline>
</glyph>
<glyph name="Ntilde" format="1">
  <advance width="600"/>
  <unicode hex="00D1"/>
  <outline>
    <contour>
      <point x="60" y="0" type="line"/>
      <point x="224" y="0" type="line"/>
      <point x="224" y="188" type="line" smooth="yes"/>
      <point x="224" y="268"/>
      <point x="208" y="362"/>
      <point x="200" y="436" type="curve"/>
      <point x="204" y="436" type="line"/>
      <point x="257" y="291" type="line"/>
      <point x="366" y="0" type="line"/>
      <point x="540" y="0" type="line"/>
      <point x="540" y="650" type="line"/>
      <point x="376" y="650" type="line"/>
      <point x="376" y="462" type="line" smooth="yes"/>
      <point x="376" y="382"/>
      <point x="392" y="284"/>
      <point x="400" y="214" type="curve"/>
      <point x="396" y="214" type="line"/>
      <point x="343" y="360" type="line"/>
      <point x="234" y="650" type="line"/>
      <point x="60" y="650" type="line"/>
    </contour>
    <contour>
      <point x="370" y="700" type="curve" smooth="yes"/>
      <point x="424" y="700"/>
      <point x="474" y="744"/>
      <point x="486" y="846" type="curve"/>
      <point x="400" y="846" type="line"/>
      <point x="392" y="814"/>
      <point x="378" y="804"/>
      <point x="362" y="804" type="curve" smooth="yes"/>
      <point x="334" y="804"/>
      <point x="296" y="846"/>
      <point x="242" y="846" type="curve" smooth="yes"/>
      <point x="188" y="846"/>
      <point x="138" y="802"/>
      <point x="126" y="700" type="curve"/>
      <point x="212" y="700" type="line"/>
      <point x="220" y="732"/>
      <point x="234" y="742"/>
      <point x="250" y="742" type="curve" smooth="yes"/>
      <point x="278" y="742"/>
      <point x="316" y="700"/>
    </contour>
  </outline>
</glyph>
<glyph name="atilde" format="1">
  <advance width="600"/>
  <unicode hex="00E3"/>
  <outline>
    <contour>
      <point x="54" y="142" type="curve" smooth="yes"/>
      <point x="54" y="60"/>
      <point x="112" y="-12"/>
      <point x="216" y="-12" type="curve" smooth="yes"/>
      <point x="278" y="-12"/>
      <point x="337" y="16"/>
      <point x="386" y="52" type="curve"/>
      <point x="390" y="52" type="line"/>
      <point x="402" y="0" type="line"/>
      <point x="542" y="0" type="line"/>
      <point x="542" y="278" type="line" smooth="yes"/>
      <point x="542" y="442"/>
      <point x="450" y="512"/>
      <point x="308" y="512" type="curve" smooth="yes"/>
      <point x="224" y="512"/>
      <point x="146" y="488"/>
      <point x="70" y="446" type="curve"/>
      <point x="130" y="334" type="line"/>
      <point x="190" y="362"/>
      <point x="232" y="376"/>
      <point x="274" y="376" type="curve" smooth="yes"/>
      <point x="330" y="376"/>
      <point x="364" y="360"/>
      <point x="370" y="324" type="curve"/>
      <point x="142" y="312"/>
      <point x="54" y="254"/>
    </contour>
    <contour>
      <point x="218" y="156" type="curve" smooth="yes"/>
      <point x="218" y="190"/>
      <point x="248" y="218"/>
      <point x="370" y="222" type="curve"/>
      <point x="370" y="158" type="line"/>
      <point x="343" y="138"/>
      <point x="312" y="120"/>
      <point x="272" y="120" type="curve" smooth="yes"/>
      <point x="236" y="120"/>
      <point x="218" y="133"/>
    </contour>
    <contour>
      <point x="124" y="574" type="curve"/>
      <point x="210" y="574" type="line"/>
      <point x="220" y="614"/>
      <point x="233" y="626"/>
      <point x="254" y="626" type="curve" smooth="yes"/>
      <point x="280" y="626"/>
      <point x="310" y="574"/>
      <point x="360" y="574" type="curve" smooth="yes"/>
      <point x="424" y="574"/>
      <point x="474" y="621"/>
      <point x="488" y="730" type="curve"/>
      <point x="402" y="730" type="line"/>
      <point x="392" y="690"/>
      <point x="379" y="678"/>
      <point x="358" y="678" type="curve" smooth="yes"/>
      <point x="332" y="678"/>
      <point x="301" y="730"/>
      <point x="252" y="730" type="curve" smooth="yes"/>
      <point x="188" y="730"/>
      <point x="138" y="683"/>
    </contour>
  </outline>
</glyph>
<glyph name="ccedilla" format="1">
  <advance width="600"/>
  <unicode hex="00E7"/>
  <outline>
    <contour>
      <point x="387" y="-9" type="line"/>
      <point x="442" y="-1"/>
      <point x="502" y="20"/>
      <point x="551" y="60" type="curve"/>
      <point x="483" y="168" type="line"/>
      <point x="449" y="147"/>
      <point x="408" y="126"/>
      <point x="359" y="126" type="curve" smooth="yes"/>
      <point x="289" y="126"/>
      <point x="238" y="174"/>
      <point x="238" y="250" type="curve" smooth="yes"/>
      <point x="238" y="326"/>
      <point x="290" y="374"/>
      <point x="365" y="374" type="curve" smooth="yes"/>
      <point x="397" y="374"/>
      <point x="429" y="365"/>
      <point x="466" y="340" type="curve"/>
      <point x="544" y="446" type="line"/>
      <point x="502" y="486"/>
      <point x="433" y="512"/>
      <point x="355" y="512" type="curve" smooth="yes"/>
      <point x="200" y="512"/>
      <point x="62" y="416"/>
      <point x="62" y="250" type="curve" smooth="yes"/>
      <point x="62" y="103"/>
      <point x="157" y="12"/>
      <point x="288" y="-8" type="curve"/>
      <point x="254" y="-76" type="line"/>
      <point x="300" y="-88"/>
      <point x="310" y="-102"/>
      <point x="310" y="-116" type="curve" smooth="yes"/>
      <point x="310" y="-142"/>
      <point x="276" y="-154"/>
      <point x="230" y="-158" type="curve"/>
      <point x="242" y="-224" type="line"/>
      <point x="344" y="-220"/>
      <point x="432" y="-188"/>
      <point x="432" y="-116" type="curve" smooth="yes"/>
      <point x="432" y="-74"/>
      <point x="408" y="-52"/>
      <point x="374" y="-40" type="curve"/>
    </contour>
  </outline>
</glyph>
<glyph name="eacute" format="1">
  <advance width="600"/>
  <unicode hex="00E9"/>
  <outline>
    <contour>
      <point x="50" y="250" type="curve" smooth="yes"/>
      <point x="50" y="84"/>
      <point x="172" y="-12"/>
      <point x="330" y="-12" type="curve" smooth="yes"/>
      <point x="392" y="-12"/>
      <point x="470" y="8"/>
      <point x="530" y="46" type="curve"/>
      <point x="474" y="148" type="line"/>
      <point x="430" y="128"/>
      <point x="394" y="118"/>
      <point x="354" y="118" type="curve" smooth="yes"/>
      <point x="293" y="118"/>
      <point x="243" y="138"/>
      <point x="226" y="202" type="curve"/>
      <point x="543" y="202" type="line"/>
      <point x="545" y="214"/>
      <point x="550" y="240"/>
      <point x="550" y="270" type="curve" smooth="yes"/>
      <point x="550" y="404"/>
      <point x="470" y="512"/>
      <point x="312" y="512" type="curve" smooth="yes"/>
      <point x="178" y="512"/>
      <point x="50" y="414"/>
    </contour>
    <contour>
      <point x="224" y="306" type="line"/>
      <point x="235" y="361"/>
      <point x="273" y="382"/>
      <point x="316" y="382" type="curve" smooth="yes"/>
      <point x="374" y="382"/>
      <point x="394" y="348"/>
      <point x="394" y="306" type="curve"/>
    </contour>
    <contour>
      <point x="486" y="748" type="line"/>
      <point x="312" y="748" type="line"/>
      <point x="224" y="574" type="line"/>
      <point x="348" y="574" type="line"/>
    </contour>
  </outline>
</glyph>
<glyph name="edieresis" format="1">
  <advance width="600"/>
  <unicode hex="00EB"/>
  <outline>
    <contour>
      <point x="50" y="250" type="curve" smooth="yes"/>
      <point x="50" y="84"/>
      <point x="172" y="-12"/>
      <point x="330" y="-12" type="curve" smooth="yes"/>
      <point x="392" y="-12"/>
      <point x="470" y="8"/>
      <point x="530" y="46" type="curve"/>
      <point x="474" y="148" type="line"/>
      <point x="430" y="128"/>
      <point x="394" y="118"/>
      <point x="354" y="118" type="curve" smooth="yes"/>
      <point x="293" y="118"/>
      <point x="243" y="138"/>
      <point x="226" y="202" type="curve"/>
      <point x="543" y="202" type="line"/>
      <point x="545" y="214"/>
      <point x="550" y="240"/>
      <point x="550" y="270" type="curve" smooth="yes"/>
      <point x="550" y="404"/>
      <point x="470" y="512"/>
      <point x="312" y="512" type="curve" smooth="yes"/>
      <point x="178" y="512"/>
      <point x="50" y="414"/>
    </contour>
    <contour>
      <point x="224" y="306" type="line"/>
      <point x="235" y="361"/>
      <point x="273" y="382"/>
      <point x="316" y="382" type="curve" smooth="yes"/>
      <point x="374" y="382"/>
      <point x="394" y="348"/>
      <point x="394" y="306" type="curve"/>
    </contour>
    <contour>
      <point x="197" y="564" type="curve" smooth="yes"/>
      <point x="249" y="564"/>
      <point x="285" y="602"/>
      <point x="285" y="652" type="curve" smooth="yes"/>
      <point x="285" y="702"/>
      <point x="249" y="740"/>
      <point x="197" y="740" type="curve" smooth="yes"/>
      <point x="145" y="740"/>
      <point x="109" y="702"/>
      <point x="109" y="652" type="curve" smooth="yes"/>
      <point x="109" y="602"/>
      <point x="145" y="564"/>
    </contour>
    <contour>
      <point x="425" y="564" type="curve" smooth="yes"/>
      <point x="477" y="564"/>
      <point x="513" y="602"/>
      <point x="513" y="652" type="curve" smooth="yes"/>
      <point x="513" y="702"/>
      <point x="477" y="740"/>
      <point x="425" y="740" type="curve" smooth="yes"/>
      <point x="373" y="740"/>
      <point x="337" y="702"/>
      <point x="337" y="652" type="curve" smooth="yes"/>
      <point x="337" y="602"/>
      <point x="373" y="564"/>
    </contour>
  </outline>
</glyph>
<glyph name="igrave" format="1">
  <advance width="600"/>
  <unicode hex="00EC"/>
  <outline>
    <contour>
      <point x="74" y="366" type="line"/>
      <point x="264" y="366" type="line"/>
      <point x="264" y="0" type="line"/>
      <point x="436" y="0" type="line"/>
      <point x="436" y="500" type="line"/>
      <point x="74" y="500" type="line"/>
    </contour>
    <contour>
      <point x="308" y="574" type="line"/>
      <point x="432" y="574" type="line"/>
      <point x="344" y="748" type="line"/>
      <point x="170" y="748" type="line"/>
    </contour>
  </outline>
</glyph>
<glyph name="otilde" format="1">
  <advance width="600"/>
  <unicode hex="00F5"/>
  <outline>
    <contour>
      <point x="42" y="250" type="curve" smooth="yes"/>
      <point x="42" y="84"/>
      <point x="168" y="-12"/>
      <point x="300" y="-12" type="curve" smooth="yes"/>
      <point x="432" y="-12"/>
      <point x="558" y="84"/>
      <point x="558" y="250" type="curve" smooth="yes"/>
      <point x="558" y="416"/>
      <point x="432" y="512"/>
      <point x="300" y="512" type="curve" smooth="yes"/>
      <point x="168" y="512"/>
      <point x="42" y="416"/>
    </contour>
    <contour>
      <point x="218" y="250" type="curve" smooth="yes"/>
      <point x="218" y="326"/>
      <point x="242" y="374"/>
      <point x="300" y="374" type="curve" smooth="yes"/>
      <point x="358" y="374"/>
      <point x="382" y="326"/>
      <point x="382" y="250" type="curve" smooth="yes"/>
      <point x="382" y="174"/>
      <point x="358" y="126"/>
      <point x="300" y="126" type="curve" smooth="yes"/>
      <point x="242" y="126"/>
      <point x="218" y="174"/>
    </contour>
    <contour>
      <point x="118" y="574" type="curve"/>
      <point x="204" y="574" type="line"/>
      <point x="214" y="614"/>
      <point x="227" y="626"/>
      <point x="248" y="626" type="curve" smooth="yes"/>
      <point x="274" y="626"/>
      <point x="304" y="574"/>
      <point x="354" y="574" type="curve" smooth="yes"/>
      <point x="418" y="574"/>
      <point x="468" y="621"/>
      <point x="482" y="730" type="curve"/>
      <point x="396" y="730" type="line"/>
      <point x="386" y="690"/>
      <point x="373" y="678"/>
      <point x="352" y="678" type="curve" smooth="yes"/>
      <point x="326" y="678"/>
      <point x="295" y="730"/>
      <point x="246" y="730" type="curve" smooth="yes"/>
      <point x="182" y="730"/>
      <point x="132" y="683"/>
    </contour>
  </outline>
</glyph>
<glyph name="oslash" format="1">
  <advance width="600"/>
  <unicode hex="00F8"/>
  <outline>
    <contour>
      <point x="380" y="286" type="line"/>
      <point x="381" y="275"/>
      <point x="382" y="263"/>
      <point x="382" y="250" type="curve" smooth="yes"/>
      <point x="382" y="174"/>
      <point x="358" y="120"/>
      <point x="300" y="120" type="curve" smooth="yes"/>
      <point x="282" y="120"/>
      <point x="267" y="125"/>
      <point x="255" y="135" type="curve"/>
    </contour>
    <contour>
      <point x="220" y="216" type="line"/>
      <point x="219" y="226"/>
      <point x="218" y="238"/>
      <point x="218" y="250" type="curve" smooth="yes"/>
      <point x="218" y="326"/>
      <point x="242" y="380"/>
      <point x="300" y="380" type="curve" smooth="yes"/>
      <point x="318" y="380"/>
      <point x="332" y="375"/>
      <point x="344" y="366" type="curve"/>
    </contour>
    <contour>
      <point x="540" y="480" type="line"/>
      <point x="478" y="528" type="line"/>
      <point x="435" y="476" type="line"/>
      <point x="394" y="500"/>
      <point x="348" y="512"/>
      <point x="300" y="512" type="curve" smooth="yes"/>
      <point x="168" y="512"/>
      <point x="42" y="416"/>
      <point x="42" y="250" type="curve" smooth="yes"/>
      <point x="42" y="178"/>
      <point x="66" y="119"/>
      <point x="104" y="75" type="curve"/>
      <point x="60" y="22" type="line"/>
      <point x="122" y="-26" type="line"/>
      <point x="164" y="25" type="line"/>
      <point x="205" y="1"/>
      <point x="252" y="-12"/>
      <point x="300" y="-12" type="curve" smooth="yes"/>
      <point x="432" y="-12"/>
      <point x="558" y="84"/>
      <point x="558" y="250" type="curve" smooth="yes"/>
      <point x="558" y="323"/>
      <point x="534" y="382"/>
      <point x="495" y="426" type="curve"/>
    </contour>
  </outline>
</glyph>
<glyph name="ugrave" format="1">
  <advance width="600"/>
  <unicode hex="00F9"/>
  <outline>
    <contour>
      <point x="532" y="500" type="line"/>
      <point x="360" y="500" type="line"/>
      <point x="360" y="178" type="line"/>
      <point x="334" y="142"/>
      <point x="314" y="134"/>
      <point x="285" y="134" type="curve" smooth="yes"/>
      <point x="240" y="134"/>
      <point x="228" y="158"/>
      <point x="228" y="214" type="curve" smooth="yes"/>
      <point x="228" y="500" type="line"/>
      <point x="56" y="500" type="line"/>
      <point x="56" y="192" type="line" smooth="yes"/>
      <point x="56" y="68"/>
      <point x="102" y="-12"/>
      <point x="214" y="-12" type="curve" smooth="yes"/>
      <point x="284" y="-12"/>
      <point x="334" y="18"/>
      <point x="376" y="66" type="curve"/>
      <point x="380" y="66" type="line"/>
      <point x="392" y="0" type="line"/>
      <point x="532" y="0" type="line"/>
    </contour>
    <contour>
      <point x="260" y="574" type="line"/>
      <point x="384" y="574" type="line"/>
      <point x="296" y="748" type="line"/>
      <point x="122" y="748" type="line"/>
    </contour>
  </outline>
</glyph>
<glyph name="udieresis" format="1">
  <advance width="600"/>
  <unicode hex="00FC"/>
  <outline>
    <contour>
      <point x="532" y="500" type="line"/>
      <point x="360" y="500" type="line"/>
      <point x="360" y="178" type="line"/>
      <point x="334" y="142"/>
      <point x="314" y="134"/>
      <point x="285" y="134" type="curve" smooth="yes"/>
      <point x="240" y="134"/>
      <point x="228" y="158"/>
      <point x="228" y="214" type="curve" smooth="yes"/>
      <point x="228" y="500" type="line"/>
      <point x="56" y="500" type="line"/>
      <point x="56" y="192" type="line" smooth="yes"/>
      <point x="56" y="68"/>
      <point x="102" y="-12"/>
      <point x="214" y="-12" type="curve" smooth="yes"/>
      <point x="284" y="-12"/>
      <point x="334" y="18"/>
      <point x="376" y="66" type="curve"/>
      <point x="380" y="66" type="line"/>
      <point x="392" y="0" type="line"/>
      <point x="532" y="0" type="line"/>
    </contour>
    <contour>
      <point x="182" y="564" type="curve" smooth="yes"/>
      <point x="234" y="564"/>
      <point x="270" y="602"/>
      <point x="270" y="652" type="curve" smooth="yes"/>
      <point x="270" y="702"/>
      <point x="234" y="740"/>
      <point x="182" y="740" type="curve" smooth="yes"/>
      <point x="130" y="740"/>
      <point x="94" y="702"/>
      <point x="94" y="652" type="curve" smooth="yes"/>
      <point x="94" y="602"/>
      <point x="130" y="564"/>
    </contour>
    <contour>
      <point x="410" y="564" type="curve" smooth="yes"/>
      <point x="462" y="564"/>
      <point x="498" y="602"/>
      <point x="498" y="652" type="curve" smooth="yes"/>
      <point x="498" y="702"/>
      <point x="462" y="740"/>
      <point x="410" y="740" type="curve" smooth="yes"/>
      <point x="358" y="740"/>
      <point x="322" y="702"/>
      <point x="322" y="652" type="curve" smooth="yes"/>
      <point x="322" y="602"/>
      <point x="358" y="564"/>
    </contour>
  </outline>
</glyph>
<glyph name="yacute" format="1">
  <advance width="600"/>
  <unicode hex="00FD"/>
  <outline>
    <contour>
      <point x="97" y="-48" type="curve"/>
      <point x="67" y="-178" type="line"/>
      <point x="90" y="-184"/>
      <point x="116" y="-188"/>
      <point x="147" y="-188" type="curve" smooth="yes"/>
      <point x="278" y="-188"/>
      <point x="337" y="-127"/>
      <point x="390" y="8" type="curve" smooth="yes"/>
      <point x="578" y="500" type="line"/>
      <point x="416" y="500" type="line"/>
      <point x="356" y="308" type="line" smooth="yes"/>
      <point x="341" y="258"/>
      <point x="325" y="207"/>
      <point x="313" y="156" type="curve"/>
      <point x="309" y="156" type="line"/>
      <point x="295" y="210"/>
      <point x="281" y="260"/>
      <point x="264" y="308" type="curve" smooth="yes"/>
      <point x="194" y="500" type="line"/>
      <point x="24" y="500" type="line"/>
      <point x="234" y="18" type="line"/>
      <point x="226" y="-4" type="line"/>
      <point x="213" y="-34"/>
      <point x="186" y="-54"/>
      <point x="133" y="-54" type="curve" smooth="yes"/>
      <point x="122" y="-54"/>
      <point x="110" y="-52"/>
    </contour>
    <contour>
      <point x="482" y="748" type="line"/>
      <point x="308" y="748" type="line"/>
      <point x="220" y="574" type="line"/>
      <point x="344" y="574" type="line"/>
    </contour>
  </outline>
</glyph>
<glyph name="amacron" format="1">
  <advance width="600"/>
  <unicode hex="0101"/>
  <outline>
    <contour>
      <point x="54" y="142" type="curve" smooth="yes"/>
      <point x="54" y="60"/>
      <point x="112" y="-12"/>
      <point x="216" y="-12" type="curve" smooth="yes"/>
      <point x="278" y="-12"/>
      <point x="337" y="16"/>
      <point x="386" y="52" type="curve"/>
      <point x="390" y="52" type="line"/>
      <point x="402" y="0" type="line"/>
      <point x="542" y="0" type="line"/>
      <point x="542" y="278" type="line" smooth="yes"/>
      <point x="542" y="442"/>
      <point x="450" y="512"/>
      <point x="308" y="512" type="curve" smooth="yes"/>
      <point x="224" y="512"/>
      <point x="146" y="488"/>
      <point x="70" y="446" type="curve"/>
      <point x="130" y="334" type="line"/>
      <point x="190" y="362"/>
      <point x="232" y="376"/>
      <point x="274" y="376" type="curve" smooth="yes"/>
      <point x="330" y="376"/>
      <point x="364" y="360"/>
      <point x="370" y="324" type="curve"/>
      <point x="142" y="312"/>
      <point x="54" y="254"/>
    </contour>
    <contour>
      <point x="218" y="156" type="curve" smooth="yes"/>
      <point x="218" y="190"/>
      <point x="248" y="218"/>
      <point x="370" y="222" type="curve"/>
      <point x="370" y="158" type="line"/>
      <point x="343" y="138"/>
      <point x="312" y="120"/>
      <point x="272" y="120" type="curve" smooth="yes"/>
      <point x="236" y="120"/>
      <point x="218" y="133"/>
    </contour>
    <contour>
      <point x="162" y="588" type="line"/>
      <point x="450" y="588" type="line"/>
      <point x="450" y="696" type="line"/>
      <point x="162" y="696" type="line"/>
    </contour>
  </outline>
</glyph>
<glyph name="dcaron" format="1">
  <advance width="600"/>
  <unicode hex="010F"/>
  <outline>
    <contour>
      <point x="15" y="250" type="curve" smooth="yes"/>
      <point x="15" y="88"/>
      <point x="97" y="-12"/>
      <point x="224" y="-12" type="curve" smooth="yes"/>
      <point x="269" y="-12"/>
      <point x="318" y="12"/>
      <point x="353" y="46" type="curve"/>
      <point x="357" y="46" type="line"/>
      <point x="369" y="0" type="line"/>
      <point x="509" y="0" type="line"/>
      <point x="509" y="696" type="line"/>
      <point x="337" y="696" type="line"/>
      <point x="337" y="534" type="line"/>
      <point x="343" y="462" type="line"/>
      <point x="312" y="492"/>
      <point x="279" y="512"/>
      <point x="224" y="512" type="curve" smooth="yes"/>
      <point x="119" y="512"/>
      <point x="15" y="414"/>
    </contour>
    <contour>
      <point x="191" y="252" type="curve" smooth="yes"/>
      <point x="191" y="340"/>
      <point x="229" y="372"/>
      <point x="271" y="372" type="curve" smooth="yes"/>
      <point x="295" y="372"/>
      <point x="317" y="366"/>
      <point x="337" y="348" type="curve"/>
      <point x="337" y="164" type="line"/>
      <point x="318" y="136"/>
      <point x="297" y="128"/>
      <point x="269" y="128" type="curve" smooth="yes"/>
      <point x="220" y="128"/>
      <point x="191" y="162"/>
    </contour>
    <contour>
      <point x="616" y="548" type="line"/>
      <point x="644" y="700" type="line"/>
      <point x="646" y="774" type="line"/>
      <point x="538" y="774" type="line"/>
      <point x="544" y="548" type="line"/>
    </contour>
  </outline>
</glyph>
<glyph name="Ebreve" format="1">
  <advance width="600"/>
  <unicode hex="0114"/>
  <outline>
    <contour>
      <point x="86" y="0" type="line"/>
      <point x="536" y="0" type="line"/>
      <point x="536" y="144" type="line"/>
      <point x="258" y="144" type="line"/>
      <point x="258" y="260" type="line"/>
      <point x="486" y="260" type="line"/>
      <point x="486" y="404" type="line"/>
      <point x="258" y="404" type="line"/>
      <point x="258" y="506" type="line"/>
      <point x="526" y="506" type="line"/>
      <point x="526" y="650" type="line"/>
      <point x="86" y="650" type="line"/>
    </contour>
    <contour>
      <point x="318" y="700" type="curve" smooth="yes"/>
      <point x="408" y="700"/>
      <point x="452" y="746"/>
      <point x="460" y="824" type="curve"/>
      <point x="368" y="824" type="line"/>
      <point x="362" y="800"/>
      <point x="348" y="784"/>
      <point x="318" y="784" type="curve" smooth="yes"/>
      <point x="288" y="784"/>
      <point x="274" y="800"/>
      <point x="268" y="824" type="curve"/>
      <point x="176" y="824" type="line"/>
      <point x="184" y="746"/>
      <point x="228" y="700"/>
    </contour>
  </outline>
</glyph>
<glyph name="edotaccent" format="1">
  <advance width="600"/>
  <unicode hex="0117"/>
  <outline>
    <contour>
      <point x="50" y="250" type="curve" smooth="yes"/>
      <point x="50" y="84"/>
      <point x="172" y="-12"/>
      <point x="330" y="-12" type="curve" smooth="yes"/>
      <point x="392" y="-12"/>
      <point x="470" y="8"/>
      <point x="530" y="46" type="curve"/>
      <point x="474" y="148" type="line"/>
      <point x="430" y="128"/>
      <point x="394" y="118"/>
      <point x="354" y="118" type="curve" smooth="yes"/>
      <point x="293" y="118"/>
      <point x="243" y="138"/>
      <point x="226" y="202" type="curve"/>
      <point x="543" y="202" type="line"/>
      <point x="545" y="214"/>
      <point x="550" y="240"/>
      <point x="550" y="270" type="curve" smooth="yes"/>
      <point x="550" y="404"/>
      <point x="470" y="512"/>
      <point x="312" y="512" type="curve" smooth="yes"/>
      <point x="178" y="512"/>
      <point x="50" y="414"/>
    </contour>
    <contour>
      <point x="224" y="306" type="line"/>
      <point x="235" y="361"/>
      <point x="273" y="382"/>
      <point x="316" y="382" type="curve" smooth="yes"/>
      <point x="374" y="382"/>
      <point x="394" y="348"/>
      <point x="394" y="306" type="curve"/>
    </contour>
    <contour>
      <point x="312" y="562" type="curve" smooth="yes"/>
      <point x="376" y="562"/>
      <point x="422" y="602"/>
      <point x="422" y="662" type="curve" smooth="yes"/>
      <point x="422" y="722"/>
      <point x="376" y="764"/>
      <point x="312" y="764" type="curve" smooth="yes"/>
      <point x="248" y="764"/>
      <point x="202" y="722"/>
      <point x="202" y="662" type="curve" smooth="yes"/>
      <point x="202" y="602"/>
      <point x="248" y="562"/>
    </contour>
  </outline>
</glyph>
<glyph name="Hcircumflex" format="1">
  <advance width="600"/>
  <unicode hex="0124"/>
  <outline>
    <contour>
      <point x="58" y="0" type="line"/>
      <point x="230" y="0" type="line"/>
      <point x="230" y="258" type="line"/>
      <point x="370" y="258" type="line"/>
      <point x="370" y="0" type="line"/>
      <point x="542" y="0" type="line"/>
      <point x="542" y="650" type="line"/>
      <point x="370" y="650" type="line"/>
      <point x="370" y="408" type="line"/>
      <point x="230" y="408" type="line"/>
      <point x="230" y="650" type="line"/>
      <point x="58" y="650" type="line"/>
    </contour>
    <contour>
      <point x="249" y="700" type="line"/>
      <point x="297" y="758" type="line"/>
      <point x="301" y="758" type="line"/>
      <point x="349" y="700" type="line"/>
      <point x="479" y="700" type="line"/>
      <point x="383" y="824" type="line"/>
      <point x="215" y="824" type="line"/>
      <point x="119" y="700" type="line"/>
    </contour>
  </outline>
</glyph>
<glyph name="itilde" format="1">
  <advance width="600"/>
  <unicode hex="0129"/>
  <outline>
    <contour>
      <point x="74" y="366" type="line"/>
      <point x="264" y="366" type="line"/>
      <point x="264" y="0" type="line"/>
      <point x="436" y="0" type="line"/>
      <point x="436" y="500" type="line"/>
      <point x="74" y="500" type="line"/>
    </contour>
    <contour>
      <point x="162" y="574" type="curve"/>
      <point x="248" y="574" type="line"/>
      <point x="258" y="614"/>
      <point x="271" y="626"/>
      <point x="292" y="626" type="curve" smooth="yes"/>
      <point x="318" y="626"/>
      <point x="348" y="574"/>
      <point x="398" y="574" type="curve" smooth="yes"/>
      <point x="462" y="574"/>
      <point x="512" y="621"/>
      <point x="526" y="730" type="curve"/>
      <point x="440" y="730" type="line"/>
      <point x="430" y="690"/>
      <point x="417" y="678"/>
      <point x="396" y="678" type="curve" smooth="yes"/>
      <point x="370" y="678"/>
      <point x="339" y="730"/>
      <point x="290" y="730" type="curve" smooth="yes"/>
      <point x="226" y="730"/>
      <point x="176" y="683"/>
    </contour>
  </outline>
</glyph>
<glyph name="imacron" format="1">
  <advance width="600"/>
  <unicode hex="012B"/>
  <outline>
    <contour>
      <point x="74" y="366" type="line"/>
      <point x="264" y="366" type="line"/>
      <point x="264" y="0" type="line"/>
      <point x="436" y="0" type="line"/>
      <point x="436" y="500" type="line"/>
      <point x="74" y="500" type="line"/>
    </contour>
    <contour>
      <point x="200" y="588" type="line"/>
      <point x="488" y="588" type="line"/>
      <point x="488" y="696" type="line"/>
      <point x="200" y="696" type="line"/>
    </contour>
  </outline>
</glyph>
<glyph name="IJ" format="1">
  <advance width="600"/>
  <unicode hex="0132"/>
  <outline>
    <contour>
      <point x="60" y="0" type="line"/>
      <point x="232" y="0" type="line"/>
      <point x="232" y="650" type="line"/>
      <point x="60" y="650" type="line"/>
    </contour>
    <contour>
      <point x="340" y="-188" type="curve" smooth="yes"/>
      <point x="495" y="-188"/>
      <point x="540" y="-86"/>
      <point x="540" y="26" type="curve" smooth="yes"/>
      <point x="540" y="650" type="line"/>
      <point x="368" y="650" type="line"/>
      <point x="368" y="20" type="line" smooth="yes"/>
      <point x="368" y="-34"/>
      <point x="352" y="-54"/>
      <point x="312" y="-54" type="curve" smooth="yes"/>
      <point x="298" y="-54"/>
      <point x="285" y="-51"/>
      <point x="268" y="-46" type="curve"/>
      <point x="238" y="-172" type="line"/>
      <point x="262" y="-180"/>
      <point x="290" y="-188"/>
    </contour>
  </outline>
</glyph>
<glyph name="Jcircumflex" format="1">
  <advance width="600"/>
  <unicode hex="0134"/>
  <outline>
    <contour>
      <point x="51" y="95" type="line"/>
      <point x="112" y="14"/>
      <point x="200" y="-12"/>
      <point x="272" y="-12" type="curve" smooth="yes"/>
      <point x="459" y="-12"/>
      <point x="525" y="96"/>
      <point x="525" y="226" type="curve" smooth="yes"/>
      <point x="525" y="650" type="line"/>
      <point x="106" y="650" type="line"/>
      <point x="106" y="506" type="line"/>
      <point x="353" y="506" type="line"/>
      <point x="353" y="240" type="line" smooth="yes"/>
      <point x="353" y="158"/>
      <point x="322" y="136"/>
      <point x="266" y="136" type="curve" smooth="yes"/>
      <point x="226" y="136"/>
      <point x="185" y="160"/>
      <point x="148" y="202" type="curve"/>
    </contour>
    <contour>
      <point x="272" y="700" type="line"/>
      <point x="320" y="758" type="line"/>
      <point x="324" y="758" type="line"/>
      <point x="372" y="700" type="line"/>
      <point x="502" y="700" type="line"/>
      <point x="406" y="824" type="line"/>
      <point x="238" y="824" type="line"/>
      <point x="142" y="700" type="line"/>
    </contour>
  </outline>
</glyph>
<glyph name="jcircumflex" format="1">
  <advance width="600"/>
  <unicode hex="0135"/>
  <outline>
    <contour>
      <point x="74" y="366" type="line"/>
      <point x="264" y="366" type="line"/>
      <point x="264" y="40" type="line" smooth="yes"/>
      <point x="264" y="-28"/>
      <point x="244" y="-54"/>
      <point x="183" y="-54" type="curve" smooth="yes"/>
      <point x="157" y="-54"/>
      <point x="128" y="-50"/>
      <point x="86" y="-32" type="curve"/>
      <point x="37" y="-154" type="line"/>
      <point x="81" y="-174"/>
      <point x="130" y="-188"/>
      <point x="195" y="-188" type="curve" smooth="yes"/>
      <point x="384" y="-188"/>
      <point x="436" y="-76"/>
      <point x="436" y="46" type="curve" smooth="yes"/>
      <point x="436" y="500" type="line"/>
      <point x="74" y="500" type="line"/>
    </contour>
    <contour>
      <point x="170" y="574" type="line"/>
      <point x="294" y="574" type="line"/>
      <point x="342" y="668" type="line"/>
      <point x="346" y="668" type="line"/>
      <point x="394" y="574" type="line"/>
      <point x="518" y="574" type="line"/>
      <point x="416" y="748" type="line"/>
      <point x="272" y="748" type="line"/>
    </contour>
  </outline>
</glyph>
<glyph name="Kcommaaccent" format="1">
  <advance width="600"/>
  <unicode hex="0136"/>
  <outline>
    <contour>
      <point x="57" y="0" type="line"/>
      <point x="230" y="0" type="line"/>
      <point x="230" y="162" type="line"/>
      <point x="292" y="250" type="line"/>
      <point x="410" y="0" type="line"/>
      <point x="599" y="0" type="line"/>
      <point x="392" y="386" type="line"/>
      <point x="583" y="650" type="line"/>
      <point x="394" y="650" type="line"/>
      <point x="234" y="408" type="line"/>
      <point x="230" y="408" type="line"/>
      <point x="230" y="650" type="line"/>
      <point x="57" y="650" type="line"/>
    </contour>
    <contour>
      <point x="280" y="-40" type="curve"/>
      <point x="248" y="-100" type="line"/>
      <point x="278" y="-108"/>
      <point x="288" y="-118"/>
      <point x="288" y="-134" type="curve" smooth="yes"/>
      <point x="288" y="-156"/>
      <point x="254" y="-164"/>
      <point x="208" y="-168" type="curve"/>
      <point x="220" y="-234" type="line"/>
      <point x="322" y="-230"/>
      <point x="410" y="-198"/>
      <point x="410" y="-126" type="curve" smooth="yes"/>
      <point x="410" y="-74"/>
      <point x="378" y="-48"/>
    </contour>
  </outline>
</glyph>
<glyph name="Lcommaaccent" format="1">
  <advance width="600"/>
  <unicode hex="013B"/>
  <outline>
    <contour>
      <point x="96" y="0" type="line"/>
      <point x="545" y="0" type="line"/>
      <point x="545" y="144" type="line"/>
      <point x="268" y="144" type="line"/>
      <point x="268" y="650" type="line"/>
      <point x="96" y="650" type="line"/>
    </contour>
    <contour>
      <point x="288" y="-40" type="curve"/>
      <point x="256" y="-100" type="line"/>
      <point x="286" y="-108"/>
      <point x="296" y="-118"/>
      <point x="296" y="-134" type="curve" smooth="yes"/>
      <point x="296" y="-156"/>
      <point x="262" y="-164"/>
      <point x="216" y="-168" type="curve"/>
      <point x="228" y="-234" type="line"/>
      <point x="330" y="-230"/>
      <point x="418" y="-198"/>
      <point x="418" y="-126" type="curve" smooth="yes"/>
      <point x="418" y="-74"/>
      <point x="386" y="-48"/>
    </contour>
  </outline>
</glyph>
<glyph name="lcaron" format="1">
  <advance width="600"/>
  <unicode hex="013E"/>
  <outline>
    <contour>
      <point x="54" y="562" type="line"/>
      <point x="190" y="562" type="line"/>
      <point x="190" y="206" type="line" smooth="yes"/>
      <point x="190" y="76"/>
      <point x="258" y="-12"/>
      <point x="391" y="-12" type="curve" smooth="yes"/>
      <point x="456" y="-12"/>
      <point x="492" y="-2"/>
      <point x="546" y="14" type="curve"/>
      <point x="509" y="140" type="line"/>
      <point x="480" y="130"/>
      <point x="458" y="126"/>
      <point x="437" y="126" type="curve" smooth="yes"/>
      <point x="402" y="126"/>
      <point x="362" y="142"/>
      <point x="362" y="200" type="curve" smooth="yes"/>
      <point x="362" y="696" type="line"/>
      <point x="54" y="696" type="line"/>
    </contour>
    <contour>
      <point x="491" y="548" type="line"/>
      <point x="519" y="700" type="line"/>
      <point x="521" y="774" type="line"/>
      <point x="413" y="774" type="line"/>
      <point x="419" y="548" type="line"/>
    </contour>
  </outline>
</glyph>
<glyph name="ldot" format="1">
  <advance width="600"/>
  <unicode hex="0140"/>
  <outline>
    <contour>
      <point x="0" y="562" type="line"/>
      <point x="136" y="562" type="line"/>
      <point x="136" y="206" type="line" smooth="yes"/>
      <point x="136" y="76"/>
      <point x="204" y="-12"/>
      <point x="337" y="-12" type="curve" smooth="yes"/>
      <point x="402" y="-12"/>
      <point x="438" y="-2"/>
      <point x="492" y="14" type="curve"/>
      <point x="455" y="140" type="line"/>
      <point x="426" y="130"/>
      <point x="404" y="126"/>
      <point x="383" y="126" type="curve" smooth="yes"/>
      <point x="348" y="126"/>
      <point x="308" y="142"/>
      <point x="308" y="200" type="curve" smooth="yes"/>
      <point x="308" y="696" type="line"/>
      <point x="0" y="696" type="line"/>
    </contour>
    <contour>
      <point x="484" y="254" type="curve" smooth="yes"/>
      <point x="548" y="254"/>
      <point x="594" y="294"/>
      <point x="594" y="354" type="curve" smooth="yes"/>
      <point x="594" y="414"/>
      <point x="548" y="456"/>
      <point x="484" y="456" type="curve" smooth="yes"/>
      <point x="420" y="456"/>
      <point x="374" y="414"/>
      <point x="374" y="354" type="curve" smooth="yes"/>
      <point x="374" y="294"/>
      <point x="420" y="254"/>
    </contour>
  </outline>
</glyph>
<glyph name="lslash" format="1">
  <advance width="600"/>
  <unicode hex="0142"/>
  <outline>
    <contour>
      <point x="509" y="140" type="line"/>
      <point x="480" y="130"/>
      <point x="458" y="126"/>
      <point x="437" y="126" type="curve" smooth="yes"/>
      <point x="402" y="126"/>
      <point x="362" y="142"/>
      <point x="362" y="200" type="curve" smooth="yes"/>
      <point x="362" y="339" type="line"/>
      <point x="505" y="416" type="line"/>
      <point x="505" y="552" type="line"/>
      <point x="362" y="475" type="line"/>
      <point x="362" y="696" type="line"/>
      <point x="54" y="696" type="line"/>
      <point x="54" y="562" type="line"/>
      <point x="190" y="562" type="line"/>
      <point x="190" y="391" type="line"/>
      <point x="81" y="330" type="line"/>
      <point x="81" y="194" type="line"/>
      <point x="190" y="255" type="line"/>
      <point x="190" y="206" type="line" smooth="yes"/>
      <point x="190" y="76"/>
      <point x="258" y="-12"/>
      <point x="391" y="-12" type="curve" smooth="yes"/>
      <point x="456" y="-12"/>
      <point x="492" y="-2"/>
      <point x="546" y="14" type="curve"/>
    </contour>
  </outline>
</glyph>
<glyph name="ncommaaccent" format="1">
  <advance width="600"/>
  <unicode hex="0146"/>
  <outline>
    <contour>
      <point x="64" y="0" type="line"/>
      <point x="236" y="0" type="line"/>
      <point x="236" y="328" type="line"/>
      <point x="262" y="352"/>
      <point x="284" y="366"/>
      <point x="316" y="366" type="curve" smooth="yes"/>
      <point x="360" y="366"/>
      <point x="374" y="342"/>
      <point x="374" y="286" type="curve" smooth="yes"/>
      <point x="374" y="0" type="line"/>
      <point x="546" y="0" type="line"/>
      <point x="546" y="308" type="line" smooth="yes"/>
      <point x="546" y="432"/>
      <point x="498" y="512"/>
      <point x="387" y="512" type="curve" smooth="yes"/>
      <point x="314" y="512"/>
      <point x="260" y="478"/>
      <point x="220" y="440" type="curve"/>
      <point x="216" y="440" type="line"/>
      <point x="204" y="500" type="line"/>
      <point x="64" y="500" type="line"/>
    </contour>
    <contour>
      <point x="266" y="-40" type="curve"/>
      <point x="234" y="-100" type="line"/>
      <point x="264" y="-108"/>
      <point x="274" y="-118"/>
      <point x="274" y="-134" type="curve" smooth="yes"/>
      <point x="274" y="-156"/>
      <point x="240" y="-164"/>
      <point x="194" y="-168" type="curve"/>
      <point x="206" y="-234" type="line"/>
      <point x="308" y="-230"/>
      <point x="396" y="-198"/>
      <point x="396" y="-126" type="curve" smooth="yes"/>
      <point x="396" y="-74"/>
      <point x="364" y="-48"/>
    </contour>
  </outline>
</glyph>
<glyph name="Eng" format="1">
  <advance width="600"/>
  <unicode hex="014A"/>
  <outline>
    <contour>
      <point x="350" y="-12" type="curve" smooth="yes"/>
      <point x="500.552380952" y="-12.0"/>
      <point x="558.0" y="105.0"/>
      <point x="558" y="330" type="curve" smooth="yes"/>
      <point x="558.0" y="572.0"/>
      <point x="472.565445026" y="662.0"/>
      <point x="359" y="662" type="curve" smooth="yes"/>
      <point x="308.020979021" y="662.0"/>
      <point x="266.833938621" y="640.558628936"/>
      <point x="224" y="594" type="curve"/>
      <point x="224" y="650" type="line"/>
      <point x="58" y="650" type="line"/>
      <point x="58" y="0" type="line"/>
      <point x="230" y="0" type="line"/>
      <point x="230" y="448" type="line"/>
      <point x="255.741152874" y="493.966344417"/>
      <point x="287.473684211" y="514.0"/>
      <point x="314" y="514" type="curve" smooth="yes"/>
      <point x="358.2" y="514.0"/>
      <point x="382.0" y="461.0"/>
      <point x="382" y="330" type="curve" smooth="yes"/>
      <point x="382.0" y="176.0"/>
      <point x="362.740740741" y="148.0"/>
      <point x="330" y="148" type="curve" smooth="yes"/>
      <point x="317.368421053" y="148.0"/>
      <point x="308.293326402" y="152.682669439"/>
      <point x="300" y="156" type="curve"/>
      <point x="264" y="8" type="line"/>
      <point x="282.912731897" y="-5.23891232757"/>
      <point x="320.723404255" y="-12.0"/>
    </contour>
    <contour>
      <point x="338.0" y="672.0" type="move" name="aboveUC"/>
    </contour>
  </outline>
</glyph>
<glyph name="Obreve" format="1">
  <advance width="600"/>
  <unicode hex="014E"/>
  <outline>
    <contour>
      <point x="300" y="-12" type="curve" smooth="yes"/>
      <point x="458" y="-12"/>
      <point x="566" y="114"/>
      <point x="566" y="328" type="curve" smooth="yes"/>
      <point x="566" y="541"/>
      <point x="458" y="662"/>
      <point x="300" y="662" type="curve" smooth="yes"/>
      <point x="142" y="662"/>
      <point x="34" y="542"/>
      <point x="34" y="328" type="curve" smooth="yes"/>
      <point x="34" y="114"/>
      <point x="142" y="-12"/>
    </contour>
    <contour>
      <point x="300" y="136" type="curve" smooth="yes"/>
      <point x="244" y="136"/>
      <point x="210" y="210"/>
      <point x="210" y="328" type="curve" smooth="yes"/>
      <point x="210" y="446"/>
      <point x="244" y="514"/>
      <point x="300" y="514" type="curve" smooth="yes"/>
      <point x="356" y="514"/>
      <point x="390" y="446"/>
      <point x="390" y="328" type="curve" smooth="yes"/>
      <point x="390" y="210"/>
      <point x="356" y="136"/>
    </contour>
    <contour>
      <point x="300" y="700" type="curve" smooth="yes"/>
      <point x="390" y="700"/>
      <point x="434" y="746"/>
      <point x="442" y="824" type="curve"/>
      <point x="350" y="824" type="line"/>
      <point x="344" y="800"/>
      <point x="330" y="784"/>
      <point x="300" y="784" type="curve" smooth="yes"/>
      <point x="270" y="784"/>
      <point x="256" y="800"/>
      <point x="250" y="824" type="curve"/>
      <point x="158" y="824" type="line"/>
      <point x="166" y="746"/>
      <point x="210" y="700"/>
    </contour>
  </outline>
</glyph>
<glyph name="obreve" format="1">
  <advance width="600"/>
  <unicode hex="014F"/>
  <outline>
    <contour>
      <point x="42" y="250" type="curve" smooth="yes"/>
      <point x="42" y="84"/>
      <point x="168" y="-12"/>
      <point x="300" y="-12" type="curve" smooth="yes"/>
      <point x="432" y="-12"/>
      <point x="558" y="84"/>
      <point x="558" y="250" type="curve" smooth="yes"/>
      <point x="558" y="416"/>
      <point x="432" y="512"/>
      <point x="300" y="512" type="curve" smooth="yes"/>
      <point x="168" y="512"/>
      <point x="42" y="416"/>
    </contour>
    <contour>
      <point x="218" y="250" type="curve" smooth="yes"/>
      <point x="218" y="326"/>
      <point x="242" y="374"/>
      <point x="300" y="374" type="curve" smooth="yes"/>
      <point x="358" y="374"/>
      <point x="382" y="326"/>
      <point x="382" y="250" type="curve" smooth="yes"/>
      <point x="382" y="174"/>
      <point x="358" y="126"/>
      <point x="300" y="126" type="curve" smooth="yes"/>
      <point x="242" y="126"/>
      <point x="218" y="174"/>
    </contour>
    <contour>
      <point x="300" y="574" type="curve" smooth="yes"/>
      <point x="403" y="574"/>
      <point x="452" y="650"/>
      <point x="454" y="738" type="curve"/>
      <point x="360" y="738" type="line"/>
      <point x="355" y="696"/>
      <point x="337" y="666"/>
      <point x="300" y="666" type="curve" smooth="yes"/>
      <point x="263" y="666"/>
      <point x="245" y="696"/>
      <point x="240" y="738" type="curve"/>
      <point x="146" y="738" type="line"/>
      <point x="148" y="650"/>
      <point x="197" y="574"/>
    </contour>
  </outline>
</glyph>
<glyph name="ohungarumlaut" format="1">
  <advance width="600"/>
  <unicode hex="0151"/>
  <outline>
    <contour>
      <point x="42" y="250" type="curve" smooth="yes"/>
      <point x="42" y="84"/>
      <point x="168" y="-12"/>
      <point x="300" y="-12" type="curve" smooth="yes"/>
      <point x="432" y="-12"/>
      <point x="558" y="84"/>
      <point x="558" y="250" type="curve" smooth="yes"/>
      <point x="558" y="416"/>
      <point x="432" y="512"/>
      <point x="300" y="512" type="curve" smooth="yes"/>
      <point x="168" y="512"/>
      <point x="42" y="416"/>
    </contour>
    <contour>
      <point x="218" y="250" type="curve" smooth="yes"/>
      <point x="218" y="326"/>
      <point x="242" y="374"/>
      <point x="300" y="374" type="curve" smooth="yes"/>
      <point x="358" y="374"/>
      <point x="382" y="326"/>
      <point x="382" y="250" type="curve" smooth="yes"/>
      <point x="382" y="174"/>
      <point x="358" y="126"/>
      <point x="300" y="126" type="curve" smooth="yes"/>
      <point x="242" y="126"/>
      <point x="218" y="174"/>
    </contour>
    <contour>
      <point x="164" y="574" type="line"/>
      <point x="268" y="574" type="line"/>
      <point x="366" y="728" type="line"/>
      <point x="232" y="728" type="line"/>
    </contour>
    <contour>
      <point x="344" y="574" type="line"/>
      <point x="448" y="574" type="line"/>
      <point x="546" y="728" type="line"/>
      <point x="412" y="728" type="line"/>
    </contour>
  </outline>
</glyph>
<glyph name="rcommaaccent" format="1">
  <advance width="600"/>
  <unicode hex="0157"/>
  <outline>
    <contour>
      <point x="104" y="0" type="line"/>
      <point x="276" y="0" type="line"/>
      <point x="276" y="248" type="line"/>
      <point x="313" y="332"/>
      <point x="374" y="362"/>
      <point x="431" y="362" type="curve" smooth="yes"/>
      <point x="467" y="362"/>
      <point x="488" y="357"/>
      <point x="518" y="348" type="curve"/>
      <point x="552" y="492" type="line"/>
      <point x="524" y="504"/>
      <point x="503" y="512"/>
      <point x="457" y="512" type="curve" smooth="yes"/>
      <point x="382" y="512"/>
      <point x="310" y="476"/>
      <point x="262" y="394" type="curve"/>
      <point x="258" y="394" type="line"/>
      <point x="245" y="500" type="line"/>
      <point x="104" y="500" type="line"/>
    </contour>
    <contour>
      <point x="166" y="-40" type="curve"/>
      <point x="134" y="-100" type="line"/>
      <point x="164" y="-108"/>
      <point x="174" y="-118"/>
      <point x="174" y="-134" type="curve" smooth="yes"/>
      <point x="174" y="-156"/>
      <point x="140" y="-164"/>
      <point x="94" y="-168" type="curve"/>
      <point x="106" y="-234" type="line"/>
      <point x="208" y="-230"/>
      <point x="296" y="-198"/>
      <point x="296" y="-126" type="curve" smooth="yes"/>
      <point x="296" y="-74"/>
      <point x="264" y="-48"/>
    </contour>
  </outline>
</glyph>
<glyph name="Scedilla" format="1">
  <advance width="600"/>
  <unicode hex="015E"/>
  <outline>
    <contour>
      <point x="344" y="405" type="line" smooth="yes"/>
      <point x="279" y="429"/>
      <point x="242" y="439"/>
      <point x="242" y="470" type="curve" smooth="yes"/>
      <point x="242" y="499"/>
      <point x="268" y="514"/>
      <point x="316" y="514" type="curve" smooth="yes"/>
      <point x="368" y="514"/>
      <point x="405" y="498"/>
      <point x="452" y="467" type="curve"/>
      <point x="538" y="575" type="line"/>
      <point x="475" y="634"/>
      <point x="393" y="662"/>
      <point x="316" y="662" type="curve" smooth="yes"/>
      <point x="168" y="662"/>
      <point x="68" y="571"/>
      <point x="68" y="460" type="curve" smooth="yes"/>
      <point x="68" y="366"/>
      <point x="130" y="307"/>
      <point x="205" y="279" type="curve" smooth="yes"/>
      <point x="286" y="245" type="line"/>
      <point x="347" y="223"/>
      <point x="380" y="213"/>
      <point x="380" y="182" type="curve" smooth="yes"/>
      <point x="380" y="153"/>
      <point x="359" y="136"/>
      <point x="300" y="136" type="curve" smooth="yes"/>
      <point x="249" y="136"/>
      <point x="191" y="162"/>
      <point x="142" y="199" type="curve"/>
      <point x="44" y="81" type="line"/>
      <point x="103" y="30"/>
      <point x="177" y="0"/>
      <point x="248" y="-9" type="curve"/>
      <point x="214" y="-76" type="line"/>
      <point x="260" y="-88"/>
      <point x="270" y="-102"/>
      <point x="270" y="-116" type="curve" smooth="yes"/>
      <point x="270" y="-142"/>
      <point x="236" y="-154"/>
      <point x="190" y="-158" type="curve"/>
      <point x="202" y="-224" type="line"/>
      <point x="304" y="-220"/>
      <point x="392" y="-188"/>
      <point x="392" y="-116" type="curve" smooth="yes"/>
      <point x="392" y="-74"/>
      <point x="368" y="-52"/>
      <point x="334" y="-40" type="curve"/>
      <point x="347" y="-9" type="line"/>
      <point x="482" y="9"/>
      <point x="556" y="98"/>
      <point x="556" y="196" type="curve" smooth="yes"/>
      <point x="556" y="286"/>
      <point x="506" y="342"/>
      <point x="419" y="374" type="curve" smooth="yes"/>
    </contour>
  </outline>
</glyph>
<glyph name="utilde" format="1">
  <advance width="600"/>
  <unicode hex="0169"/>
  <outline>
    <contour>
      <point x="532" y="500" type="line"/>
      <point x="360" y="500" type="line"/>
      <point x="360" y="178" type="line"/>
      <point x="334" y="142"/>
      <point x="314" y="134"/>
      <point x="285" y="134" type="curve" smooth="yes"/>
      <point x="240" y="134"/>
      <point x="228" y="158"/>
      <point x="228" y="214" type="curve" smooth="yes"/>
      <point x="228" y="500" type="line"/>
      <point x="56" y="500" type="line"/>
      <point x="56" y="192" type="line" smooth="yes"/>
      <point x="56" y="68"/>
      <point x="102" y="-12"/>
      <point x="214" y="-12" type="curve" smooth="yes"/>
      <point x="284" y="-12"/>
      <point x="334" y="18"/>
      <point x="376" y="66" type="curve"/>
      <point x="380" y="66" type="line"/>
      <point x="392" y="0" type="line"/>
      <point x="532" y="0" type="line"/>
    </contour>
    <contour>
      <point x="114" y="574" type="curve"/>
      <point x="200" y="574" type="line"/>
      <point x="210" y="614"/>
      <point x="223" y="626"/>
      <point x="244" y="626" type="curve" smooth="yes"/>
      <point x="270" y="626"/>
      <point x="300" y="574"/>
      <point x="350" y="574" type="curve" smooth="yes"/>
      <point x="414" y="574"/>
      <point x="464" y="621"/>
      <point x="478" y="730" type="curve"/>
      <point x="392" y="730" type="line"/>
      <point x="382" y="690"/>
      <point x="369" y="678"/>
      <point x="348" y="678" type="curve" smooth="yes"/>
      <point x="322" y="678"/>
      <point x="291" y="730"/>
      <point x="242" y="730" type="curve" smooth="yes"/>
      <point x="178" y="730"/>
      <point x="128" y="683"/>
    </contour>
  </outline>
</glyph>
<glyph name="umacron" format="1">
  <advance width="600"/>
  <unicode hex="016B"/>
  <outline>
    <contour>
      <point x="532" y="500" type="line"/>
      <point x="360" y="500" type="line"/>
      <point x="360" y="178" type="line"/>
      <point x="334" y="142"/>
      <point x="314" y="134"/>
      <point x="285" y="134" type="curve" smooth="yes"/>
      <point x="240" y="134"/>
      <point x="228" y="158"/>
      <point x="228" y="214" type="curve" smooth="yes"/>
      <point x="228" y="500" type="line"/>
      <point x="56" y="500" type="line"/>
      <point x="56" y="192" type="line" smooth="yes"/>
      <point x="56" y="68"/>
      <point x="102" y="-12"/>
      <point x="214" y="-12" type="curve" smooth="yes"/>
      <point x="284" y="-12"/>
      <point x="334" y="18"/>
      <point x="376" y="66" type="curve"/>
      <point x="380" y="66" type="line"/>
      <point x="392" y="0" type="line"/>
      <point x="532" y="0" type="line"/>
    </contour>
    <contour>
      <point x="152" y="588" type="line"/>
      <point x="440" y="588" type="line"/>
      <point x="440" y="696" type="line"/>
      <point x="152" y="696" type="line"/>
    </contour>
  </outline>
</glyph>
<glyph name="Uring" format="1">
  <advance width="600"/>
  <unicode hex="016E"/>
  <outline>
    <contour>
      <point x="58" y="252" type="line" smooth="yes"/>
      <point x="58" y="90"/>
      <point x="132" y="-12"/>
      <point x="302" y="-12" type="curve" smooth="yes"/>
      <point x="472" y="-12"/>
      <point x="542" y="90"/>
      <point x="542" y="252" type="curve" smooth="yes"/>
      <point x="542" y="650" type="line"/>
      <point x="376" y="650" type="line"/>
      <point x="376" y="232" type="line" smooth="yes"/>
      <point x="376" y="176"/>
      <point x="357" y="136"/>
      <point x="302" y="136" type="curve" smooth="yes"/>
      <point x="247" y="136"/>
      <point x="230" y="176"/>
      <point x="230" y="232" type="curve" smooth="yes"/>
      <point x="230" y="650" type="line"/>
      <point x="58" y="650" type="line"/>
    </contour>
    <contour>
      <point x="300" y="696" type="curve" smooth="yes"/>
      <point x="372" y="696"/>
      <point x="420" y="736"/>
      <point x="420" y="798" type="curve" smooth="yes"/>
      <point x="420" y="860"/>
      <point x="372" y="900"/>
      <point x="300" y="900" type="curve" smooth="yes"/>
      <point x="228" y="900"/>
      <point x="180" y="860"/>
      <point x="180" y="798" type="curve" smooth="yes"/>
      <point x="180" y="736"/>
      <point x="228" y="696"/>
    </contour>
    <contour>
      <point x="300" y="758" type="curve" smooth="yes"/>
      <point x="279" y="758"/>
      <point x="262" y="774"/>
      <point x="262" y="798" type="curve" smooth="yes"/>
      <point x="262" y="822"/>
      <point x="279" y="838"/>
      <point x="300" y="838" type="curve" smooth="yes"/>
      <point x="321" y="838"/>
      <point x="338" y="822"/>
      <point x="338" y="798" type="curve" smooth="yes"/>
      <point x="338" y="774"/>
      <point x="321" y="758"/>
    </contour>
  </outline>
</glyph>
<glyph name="uring" format="1">
  <advance width="600"/>
  <unicode hex="016F"/>
  <outline>
    <contour>
      <point x="532" y="500" type="line"/>
      <point x="360" y="500" type="line"/>
      <point x="360" y="178" type="line"/>
      <point x="334" y="142"/>
      <point x="314" y="134"/>
      <point x="285" y="134" type="curve" smooth="yes"/>
      <point x="240" y="134"/>
      <point x="228" y="158"/>
      <point x="228" y="214" type="curve" smooth="yes"/>
      <point x="228" y="500" type="line"/>
      <point x="56" y="500" type="line"/>
      <point x="56" y="192" type="line" smooth="yes"/>
      <point x="56" y="68"/>
      <point x="102" y="-12"/>
      <point x="214" y="-12" type="curve" smooth="yes"/>
      <point x="284" y="-12"/>
      <point x="334" y="18"/>
      <point x="376" y="66" type="curve"/>
      <point x="380" y="66" type="line"/>
      <point x="392" y="0" type="line"/>
      <point x="532" y="0" type="line"/>
    </contour>
    <contour>
      <point x="296" y="550" type="curve" smooth="yes"/>
      <point x="368" y="550"/>
      <point x="416" y="592"/>
      <point x="416" y="656" type="curve" smooth="yes"/>
      <point x="416" y="720"/>
      <point x="368" y="762"/>
      <point x="296" y="762" type="curve" smooth="yes"/>
      <point x="224" y="762"/>
      <point x="176" y="720"/>
      <point x="176" y="656" type="curve" smooth="yes"/>
      <point x="176" y="592"/>
      <point x="224" y="550"/>
    </contour>
    <contour>
      <point x="296" y="612" type="curve" smooth="yes"/>
      <point x="275" y="612"/>
      <point x="258" y="630"/>
      <point x="258" y="656" type="curve" smooth="yes"/>
      <point x="258" y="682"/>
      <point x="275" y="700"/>
      <point x="296" y="700" type="curve" smooth="yes"/>
      <point x="317" y="700"/>
      <point x="334" y="682"/>
      <point x="334" y="656" type="curve" smooth="yes"/>
      <point x="334" y="630"/>
      <point x="317" y="612"/>
    </contour>
  </outline>
</glyph>
<glyph name="Uhungarumlaut" format="1">
  <advance width="600"/>
  <unicode hex="0170"/>
  <outline>
    <contour>
      <point x="58" y="252" type="line" smooth="yes"/>
      <point x="58" y="90"/>
      <point x="132" y="-12"/>
      <point x="302" y="-12" type="curve" smooth="yes"/>
      <point x="472" y="-12"/>
      <point x="542" y="90"/>
      <point x="542" y="252" type="curve" smooth="yes"/>
      <point x="542" y="650" type="line"/>
      <point x="376" y="650" type="line"/>
      <point x="376" y="232" type="line" smooth="yes"/>
      <point x="376" y="176"/>
      <point x="357" y="136"/>
      <point x="302" y="136" type="curve" smooth="yes"/>
      <point x="247" y="136"/>
      <point x="230" y="176"/>
      <point x="230" y="232" type="curve" smooth="yes"/>
      <point x="230" y="650" type="line"/>
      <point x="58" y="650" type="line"/>
    </contour>
    <contour>
      <point x="266" y="700" type="line"/>
      <point x="358" y="824" type="line"/>
      <point x="214" y="824" type="line"/>
      <point x="152" y="700" type="line"/>
    </contour>
    <contour>
      <point x="340" y="700" type="line"/>
      <point x="454" y="700" type="line"/>
      <point x="546" y="824" type="line"/>
      <point x="402" y="824" type="line"/>
    </contour>
  </outline>
</glyph>
<glyph name="Uogonek" format="1">
  <advance width="600"/>
  <unicode hex="0172"/>
  <outline>
    <contour>
      <point x="58" y="252" type="line" smooth="yes"/>
      <point x="58" y="98"/>
      <point x="126" y="2"/>
      <point x="266" y="-10" type="curve"/>
      <point x="252" y="-23"/>
      <point x="202" y="-66"/>
      <point x="202" y="-130" type="curve" smooth="yes"/>
      <point x="202" y="-192"/>
      <point x="256" y="-228"/>
      <point x="324" y="-228" type="curve" smooth="yes"/>
      <point x="362" y="-228"/>
      <point x="410" y="-212"/>
      <point x="438" y="-190" type="curve"/>
      <point x="400" y="-104" type="line"/>
      <point x="391" y="-110"/>
      <point x="378" y="-118"/>
      <point x="366" y="-118" type="curve" smooth="yes"/>
      <point x="346" y="-118"/>
      <point x="326" y="-108"/>
      <point x="326" y="-84" type="curve" smooth="yes"/>
      <point x="326" y="-58"/>
      <point x="338" y="-29"/>
      <point x="418" y="10" type="curve" smooth="yes"/>
      <point x="503" y="51"/>
      <point x="542" y="133"/>
      <point x="542" y="252" type="curve" smooth="yes"/>
      <point x="542" y="650" type="line"/>
      <point x="376" y="650" type="line"/>
      <point x="376" y="232" type="line" smooth="yes"/>
      <point x="376" y="176"/>
      <point x="357" y="136"/>
      <point x="302" y="136" type="curve" smooth="yes"/>
      <point x="247" y="136"/>
      <point x="230" y="176"/>
      <point x="230" y="232" type="curve" smooth="yes"/>
      <point x="230" y="650" type="line"/>
      <point x="58" y="650" type="line"/>
    </contour>
  </outline>
</glyph>
<glyph name="Ycircumflex" format="1">
  <advance width="600"/>
  <unicode hex="0176"/>
  <outline>
    <contour>
      <point x="214" y="0" type="line"/>
      <point x="386" y="0" type="line"/>
      <point x="386" y="215" type="line"/>
      <point x="592" y="650" type="line"/>
      <point x="412" y="650" type="line"/>
      <point x="358" y="508" type="line" smooth="yes"/>
      <point x="340" y="458"/>
      <point x="321" y="412"/>
      <point x="303" y="360" type="curve"/>
      <point x="299" y="360" type="line"/>
      <point x="281" y="412"/>
      <point x="263" y="458"/>
      <point x="246" y="508" type="curve" smooth="yes"/>
      <point x="192" y="650" type="line"/>
      <point x="8" y="650" type="line"/>
      <point x="214" y="215" type="line"/>
    </contour>
    <contour>
      <point x="250" y="700" type="line"/>
      <point x="298" y="758" type="line"/>
      <point x="302" y="758" type="line"/>
      <point x="350" y="700" type="line"/>
      <point x="480" y="700" type="line"/>
      <point x="384" y="824" type="line"/>
      <point x="216" y="824" type="line"/>
      <point x="120" y="700" type="line"/>
    </contour>
  </outline>
</glyph>
<glyph name="Ydieresis" format="1">
  <advance width="600"/>
  <unicode hex="0178"/>
  <outline>
    <contour>
      <point x="214" y="0" type="line"/>
      <point x="386" y="0" type="line"/>
      <point x="386" y="215" type="line"/>
      <point x="592" y="650" type="line"/>
      <point x="412" y="650" type="line"/>
      <point x="358" y="508" type="line" smooth="yes"/>
      <point x="340" y="458"/>
      <point x="321" y="412"/>
      <point x="303" y="360" type="curve"/>
      <point x="299" y="360" type="line"/>
      <point x="281" y="412"/>
      <point x="263" y="458"/>
      <point x="246" y="508" type="curve" smooth="yes"/>
      <point x="192" y="650" type="line"/>
      <point x="8" y="650" type="line"/>
      <point x="214" y="215" type="line"/>
    </contour>
    <contour>
      <point x="196" y="694" type="curve" smooth="yes"/>
      <point x="242" y="694"/>
      <point x="274" y="728"/>
      <point x="274" y="772" type="curve" smooth="yes"/>
      <point x="274" y="816"/>
      <point x="242" y="850"/>
      <point x="196" y="850" type="curve" smooth="yes"/>
      <point x="150" y="850"/>
      <point x="118" y="816"/>
      <point x="118" y="772" type="curve" smooth="yes"/>
      <point x="118" y="728"/>
      <point x="150" y="694"/>
    </contour>
    <contour>
      <point x="404" y="694" type="curve" smooth="yes"/>
      <point x="450" y="694"/>
      <point x="482" y="728"/>
      <point x="482" y="772" type="curve" smooth="yes"/>
      <point x="482" y="816"/>
      <point x="450" y="850"/>
      <point x="404" y="850" type="curve" smooth="yes"/>
      <point x="358" y="850"/>
      <point x="326" y="816"/>
      <point x="326" y="772" type="curve" smooth="yes"/>
      <point x="326" y="728"/>
      <point x="358" y="694"/>
    </contour>
  </outline>
</glyph>
<glyph name="zdotaccent" format="1">
  <advance width="600"/>
  <unicode hex="017C"/>
  <outline>
    <contour>
      <point x="70" y="0" type="line"/>
      <point x="545" y="0" type="line"/>
      <point x="545" y="134" type="line"/>
      <point x="306" y="134" type="line"/>
      <point x="538" y="408" type="line"/>
      <point x="538" y="500" type="line"/>
      <point x="99" y="500" type="line"/>
      <point x="99" y="366" type="line"/>
      <point x="301" y="366" type="line"/>
      <point x="70" y="92" type="line"/>
    </contour>
    <contour>
      <point x="324" y="562" type="curve" smooth="yes"/>
      <point x="388" y="562"/>
      <point x="434" y="602"/>
      <point x="434" y="662" type="curve" smooth="yes"/>
      <point x="434" y="722"/>
      <point x="388" y="764"/>
      <point x="324" y="764" type="curve" smooth="yes"/>
      <point x="260" y="764"/>
      <point x="214" y="722"/>
      <point x="214" y="662" type="curve" smooth="yes"/>
      <point x="214" y="602"/>
      <point x="260" y="562"/>
    </contour>
  </outline>
</glyph>
<glyph name="Zcaron" format="1">
  <advance width="600"/>
  <unicode hex="017D"/>
  <outline>
    <contour>
      <point x="53" y="0" type="line"/>
      <point x="550" y="0" type="line"/>
      <point x="550" y="144" type="line"/>
      <point x="265" y="144" type="line"/>
      <point x="547" y="546" type="line"/>
      <point x="547" y="650" type="line"/>
      <point x="80" y="650" type="line"/>
      <point x="80" y="506" type="line"/>
      <point x="335" y="506" type="line"/>
      <point x="53" y="104" type="line"/>
    </contour>
    <contour>
      <point x="364" y="824" type="line"/>
      <point x="316" y="766" type="line"/>
      <point x="312" y="766" type="line"/>
      <point x="264" y="824" type="line"/>
      <point x="134" y="824" type="line"/>
      <point x="230" y="700" type="line"/>
      <point x="398" y="700" type="line"/>
      <point x="494" y="824" type="line"/>
    </contour>
  </outline>
</glyph>
<glyph name="zcaron" format="1">
  <advance width="600"/>
  <unicode hex="017E"/>
  <outline>
    <contour>
      <point x="70" y="0" type="line"/>
      <point x="545" y="0" type="line"/>
      <point x="545" y="134" type="line"/>
      <point x="306" y="134" type="line"/>
      <point x="538" y="408" type="line"/>
      <point x="538" y="500" type="line"/>
      <point x="99" y="500" type="line"/>
      <point x="99" y="366" type="line"/>
      <point x="301" y="366" type="line"/>
      <point x="70" y="92" type="line"/>
    </contour>
    <contour>
      <point x="252" y="574" type="line"/>
      <point x="396" y="574" type="line"/>
      <point x="498" y="748" type="line"/>
      <point x="374" y="748" type="line"/>
      <point x="326" y="654" type="line"/>
      <point x="322" y="654" type="line"/>
      <point x="274" y="748" type="line"/>
      <point x="150" y="748" type="line"/>
    </contour>
  </outline>
</glyph>
<glyph name="scommaaccent" format="1">
  <advance width="600"/>
  <unicode hex="0219"/>
  <outline>
    <contour>
      <point x="46" y="64" type="line"/>
      <point x="110" y="22"/>
      <point x="204" y="-12"/>
      <point x="290" y="-12" type="curve" smooth="yes"/>
      <point x="457" y="-12"/>
      <point x="546" y="60"/>
      <point x="546" y="154" type="curve" smooth="yes"/>
      <point x="546" y="244"/>
      <point x="452" y="281"/>
      <point x="367" y="304" type="curve" smooth="yes"/>
      <point x="303" y="321"/>
      <point x="248" y="332"/>
      <point x="248" y="358" type="curve" smooth="yes"/>
      <point x="248" y="378"/>
      <point x="269" y="386"/>
      <point x="321" y="386" type="curve" smooth="yes"/>
      <point x="369" y="386"/>
      <point x="416" y="366"/>
      <point x="462" y="340" type="curve"/>
      <point x="538" y="442" type="line"/>
      <point x="485" y="475"/>
      <point x="411" y="512"/>
      <point x="317" y="512" type="curve" smooth="yes"/>
      <point x="171" y="512"/>
      <point x="77" y="448"/>
      <point x="77" y="350" type="curve" smooth="yes"/>
      <point x="77" y="268"/>
      <point x="170" y="226"/>
      <point x="252" y="202" type="curve" smooth="yes"/>
      <point x="317" y="183"/>
      <point x="375" y="170"/>
      <point x="375" y="144" type="curve" smooth="yes"/>
      <point x="375" y="124"/>
      <point x="353" y="114"/>
      <point x="294" y="114" type="curve" smooth="yes"/>
      <point x="236" y="114"/>
      <point x="180" y="136"/>
      <point x="122" y="170" type="curve"/>
    </contour>
    <contour>
      <point x="268" y="-40" type="curve"/>
      <point x="236" y="-100" type="line"/>
      <point x="266" y="-108"/>
      <point x="276" y="-118"/>
      <point x="276" y="-134" type="curve" smooth="yes"/>
      <point x="276" y="-156"/>
      <point x="242" y="-164"/>
      <point x="196" y="-168" type="curve"/>
      <point x="208" y="-234" type="line"/>
      <point x="310" y="-230"/>
      <point x="398" y="-198"/>
      <point x="398" y="-126" type="curve" smooth="yes"/>
      <point x="398" y="-74"/>
      <point x="366" y="-48"/>
    </contour>
  </outline>
</glyph>
<glyph name="alphalatinturned" format="1">
  <advance width="600"/>
  <unicode hex="0252"/>
  <outline>
    <contour>
      <point x="382" y="248" type="curve" smooth="yes"/>
      <point x="382" y="338"/>
      <point x="353" y="372"/>
      <point x="304" y="372" type="curve" smooth="yes"/>
      <point x="276" y="372"/>
      <point x="255" y="364"/>
      <point x="236" y="336" type="curve"/>
      <point x="236" y="152" type="line"/>
      <point x="256" y="134"/>
      <point x="278" y="128"/>
      <point x="302" y="128" type="curve" smooth="yes"/>
      <point x="344" y="128"/>
      <point x="382" y="160"/>
    </contour>
    <contour>
      <point x="558" y="250" type="curve" smooth="yes"/>
      <point x="558" y="86"/>
      <point x="456" y="-12"/>
      <point x="346" y="-12" type="curve" smooth="yes"/>
      <point x="298" y="-12"/>
      <point x="254" y="6"/>
      <point x="216" y="50" type="curve"/>
      <point x="212" y="50" type="line"/>
      <point x="198" y="0" type="line"/>
      <point x="64" y="0" type="line"/>
      <point x="64" y="500" type="line"/>
      <point x="204" y="500" type="line"/>
      <point x="216" y="454" type="line"/>
      <point x="220" y="454" type="line"/>
      <point x="254" y="488"/>
      <point x="306" y="512"/>
      <point x="350" y="512" type="curve" smooth="yes"/>
      <point x="474" y="512"/>
      <point x="558" y="412"/>
    </contour>
  </outline>
</glyph>
<glyph name="ereversed" format="1">
  <advance width="600"/>
  <unicode hex="0258"/>
  <outline>
    <contour>
      <point x="550" y="250" type="curve" smooth="yes"/>
      <point x="550" y="84"/>
      <point x="428" y="-12"/>
      <point x="270" y="-12" type="curve" smooth="yes"/>
      <point x="208" y="-12"/>
      <point x="130" y="8"/>
      <point x="70" y="46" type="curve"/>
      <point x="126" y="148" type="line"/>
      <point x="170" y="128"/>
      <point x="206" y="118"/>
      <point x="246" y="118" type="curve" smooth="yes"/>
      <point x="307" y="118"/>
      <point x="357" y="138"/>
      <point x="374" y="202" type="curve"/>
      <point x="57" y="202" type="line"/>
      <point x="55" y="214"/>
      <point x="50" y="240"/>
      <point x="50" y="270" type="curve" smooth="yes"/>
      <point x="50" y="404"/>
      <point x="130" y="512"/>
      <point x="288" y="512" type="curve" smooth="yes"/>
      <point x="422" y="512"/>
      <point x="550" y="414"/>
    </contour>
    <contour>
      <point x="206" y="306" type="curve"/>
      <point x="376" y="306" type="line"/>
      <point x="365" y="361"/>
      <point x="327" y="382"/>
      <point x="284" y="382" type="curve" smooth="yes"/>
      <point x="226" y="382"/>
      <point x="206" y="348"/>
    </contour>
  </outline>
</glyph>
<glyph name="hungarumlaut" format="1">
  <advance width="600"/>
  <unicode hex="02DD"/>
  <outline>
    <contour>
      <point x="164" y="574" type="line"/>
      <point x="268" y="574" type="line"/>
      <point x="366" y="728" type="line"/>
      <point x="232" y="728" type="line"/>
    </contour>
    <contour>
      <point x="344" y="574" type="line"/>
      <point x="448" y="574" type="line"/>
      <point x="546" y="728" type="line"/>
      <point x="412" y="728" type="line"/>
    </contour>
  </outline>
</glyph>
<glyph name="Delta" format="1">
  <advance width="600"/>
  <unicode hex="0394"/>
  <outline>
    <contour>
      <point x="26" y="0" type="line"/>
      <point x="574" y="0" type="line"/>
      <point x="574" y="104" type="line"/>
      <point x="404" y="650" type="line"/>
      <point x="196" y="650" type="line"/>
      <point x="26" y="104" type="line"/>
    </contour>
    <contour>
      <point x="210" y="144" type="line"/>
      <point x="254" y="334" type="line"/>
      <point x="294" y="522" type="line"/>
      <point x="298" y="522" type="line"/>
      <point x="340" y="334" type="line"/>
      <point x="386" y="144" type="line"/>
    </contour>
  </outline>
</glyph>
<glyph name="pi" format="1">
  <advance width="600"/>
  <unicode hex="03C0"/>
  <outline>
    <contour>
      <point x="90" y="0" type="line"/>
      <point x="260" y="0" type="line"/>
      <point x="261" y="366" type="line"/>
      <point x="350" y="366" type="line"/>
      <point x="350" y="176" type="line" smooth="yes"/>
      <point x="350" y="64"/>
      <point x="388" y="-12"/>
      <point x="504" y="-12" type="curve" smooth="yes"/>
      <point x="542" y="-12"/>
      <point x="570" y="-6"/>
      <point x="588" y="2" type="curve"/>
      <point x="568" y="128" type="line"/>
      <point x="560" y="126"/>
      <point x="556" y="126"/>
      <point x="550" y="126" type="curve" smooth="yes"/>
      <point x="538" y="126"/>
      <point x="522" y="136"/>
      <point x="522" y="170" type="curve" smooth="yes"/>
      <point x="522" y="366" type="line"/>
      <point x="586" y="366" type="line"/>
      <point x="586" y="500" type="line"/>
      <point x="80" y="500" type="line"/>
      <point x="4" y="494" type="line"/>
      <point x="4" y="366" type="line"/>
      <point x="90" y="366" type="line"/>
    </contour>
  </outline>
</glyph>
<glyph name="wdieresis" format="1">
  <advance width="600"/>
  <unicode hex="1E85"/>
  <outline>
    <contour>
      <point x="73" y="0" type="line"/>
      <point x="268" y="0" type="line"/>
      <point x="283" y="134" type="line" smooth="yes"/>
      <point x="291" y="207"/>
      <point x="294" y="247"/>
      <point x="297" y="281" type="curve"/>
      <point x="301" y="281" type="line"/>
      <point x="306" y="226"/>
      <point x="312" y="180"/>
      <point x="318" y="134" type="curve" smooth="yes"/>
      <point x="334" y="0" type="line"/>
      <point x="533" y="0" type="line"/>
      <point x="599" y="500" type="line"/>
      <point x="443" y="500" type="line"/>
      <point x="423" y="290" type="line" smooth="yes"/>
      <point x="417" y="240"/>
      <point x="417" y="190"/>
      <point x="411" y="138" type="curve"/>
      <point x="407" y="138" type="line"/>
      <point x="400" y="190"/>
      <point x="394" y="240"/>
      <point x="385" y="290" type="curve" smooth="yes"/>
      <point x="361" y="420" type="line"/>
      <point x="247" y="420" type="line"/>
      <point x="226" y="290" type="line" smooth="yes"/>
      <point x="216" y="242"/>
      <point x="210" y="190"/>
      <point x="205" y="138" type="curve"/>
      <point x="202" y="138" type="line"/>
      <point x="196" y="190"/>
      <point x="195" y="240"/>
      <point x="189" y="290" type="curve" smooth="yes"/>
      <point x="169" y="500" type="line"/>
      <point x="1" y="500" type="line"/>
    </contour>
    <contour>
      <point x="187" y="564" type="curve" smooth="yes"/>
      <point x="239" y="564"/>
      <point x="275" y="602"/>
      <point x="275" y="652" type="curve" smooth="yes"/>
      <point x="275" y="702"/>
      <point x="239" y="740"/>
      <point x="187" y="740" type="curve" smooth="yes"/>
      <point x="135" y="740"/>
      <point x="99" y="702"/>
      <point x="99" y="652" type="curve" smooth="yes"/>
      <point x="99" y="602"/>
      <point x="135" y="564"/>
    </contour>
    <contour>
      <point x="415" y="564" type="curve" smooth="yes"/>
      <point x="467" y="564"/>
      <point x="503" y="602"/>
      <point x="503" y="652" type="curve" smooth="yes"/>
      <point x="503" y="702"/>
      <point x="467" y="740"/>
      <point x="415" y="740" type="curve" smooth="yes"/>
      <point x="363" y="740"/>
      <point x="327" y="702"/>
      <point x="327" y="652" type="curve" smooth="yes"/>
      <point x="327" y="602"/>
      <point x="363" y="564"/>
    </contour>
  </outline>
</glyph>
<glyph name="quotesinglbase" format="1">
  <advance width="600"/>
  <unicode hex="201A"/>
  <outline>
    <contour>
      <point x="239" y="-233" type="line"/>
      <point x="366" y="-177"/>
      <point x="426" y="-91"/>
      <point x="426" y="21" type="curve" smooth="yes"/>
      <point x="426" y="131"/>
      <point x="381" y="196"/>
      <point x="298" y="196" type="curve" smooth="yes"/>
      <point x="238" y="196"/>
      <point x="194" y="153"/>
      <point x="194" y="86" type="curve" smooth="yes"/>
      <point x="194" y="26"/>
      <point x="235" y="-13"/>
      <point x="293" y="-13" type="curve" smooth="yes"/>
      <point x="299" y="-13"/>
      <point x="305" y="-12"/>
      <point x="311" y="-11" type="curve"/>
      <point x="307" y="-72"/>
      <point x="269" y="-114"/>
      <point x="196" y="-144" type="curve"/>
    </contour>
  </outline>
</glyph>
<glyph name="quotedblleft" format="1">
  <advance width="600"/>
  <unicode hex="201C"/>
  <outline>
    <contour>
      <point x="221" y="696" type="line"/>
      <point x="94" y="640"/>
      <point x="34" y="554"/>
      <point x="34" y="442" type="curve" smooth="yes"/>
      <point x="34" y="332"/>
      <point x="79" y="267"/>
      <point x="162" y="267" type="curve" smooth="yes"/>
      <point x="222" y="267"/>
      <point x="266" y="310"/>
      <point x="266" y="377" type="curve" smooth="yes"/>
      <point x="266" y="437"/>
      <point x="225" y="476"/>
      <point x="167" y="476" type="curve" smooth="yes"/>
      <point x="161" y="476"/>
      <point x="155" y="475"/>
      <point x="149" y="474" type="curve"/>
      <point x="153" y="535"/>
      <point x="191" y="577"/>
      <point x="264" y="607" type="curve"/>
    </contour>
    <contour>
      <point x="501" y="696" type="line"/>
      <point x="374" y="640"/>
      <point x="314" y="554"/>
      <point x="314" y="442" type="curve" smooth="yes"/>
      <point x="314" y="332"/>
      <point x="359" y="267"/>
      <point x="442" y="267" type="curve" smooth="yes"/>
      <point x="502" y="267"/>
      <point x="546" y="310"/>
      <point x="546" y="377" type="curve" smooth="yes"/>
      <point x="546" y="437"/>
      <point x="505" y="476"/>
      <point x="447" y="476" type="curve" smooth="yes"/>
      <point x="441" y="476"/>
      <point x="435" y="475"/>
      <point x="429" y="474" type="curve"/>
      <point x="433" y="535"/>
      <point x="471" y="577"/>
      <point x="544" y="607" type="curve"/>
    </contour>
  </outline>
</glyph>
<glyph name="quotedblright" format="1">
  <advance width="600"/>
  <unicode hex="201D"/>
  <outline>
    <contour>
      <point x="99" y="267" type="line"/>
      <point x="226" y="323"/>
      <point x="286" y="409"/>
      <point x="286" y="521" type="curve" smooth="yes"/>
      <point x="286" y="631"/>
      <point x="241" y="696"/>
      <point x="158" y="696" type="curve" smooth="yes"/>
      <point x="98" y="696"/>
      <point x="54" y="653"/>
      <point x="54" y="586" type="curve" smooth="yes"/>
      <point x="54" y="526"/>
      <point x="95" y="487"/>
      <point x="153" y="487" type="curve" smooth="yes"/>
      <point x="159" y="487"/>
      <point x="165" y="488"/>
      <point x="171" y="489" type="curve"/>
      <point x="167" y="428"/>
      <point x="129" y="386"/>
      <point x="56" y="356" type="curve"/>
    </contour>
    <contour>
      <point x="379" y="267" type="line"/>
      <point x="506" y="323"/>
      <point x="566" y="409"/>
      <point x="566" y="521" type="curve" smooth="yes"/>
      <point x="566" y="631"/>
      <point x="521" y="696"/>
      <point x="438" y="696" type="curve" smooth="yes"/>
      <point x="378" y="696"/>
      <point x="334" y="653"/>
      <point x="334" y="586" type="curve" smooth="yes"/>
      <point x="334" y="526"/>
      <point x="375" y="487"/>
      <point x="433" y="487" type="curve" smooth="yes"/>
      <point x="439" y="487"/>
      <point x="445" y="488"/>
      <point x="451" y="489" type="curve"/>
      <point x="447" y="428"/>
      <point x="409" y="386"/>
      <point x="336" y="356" type="curve"/>
    </contour>
  </outline>
</glyph>
<glyph name="dagger" format="1">
  <advance width="600"/>
  <unicode hex="2020"/>
  <outline>
    <contour>
      <point x="232" y="-80" type="line"/>
      <point x="368" y="-80" type="line"/>
      <point x="358" y="418" type="line"/>
      <point x="526" y="408" type="line"/>
      <point x="526" y="544" type="line"/>
      <point x="358" y="534" type="line"/>
      <point x="368" y="712" type="line"/>
      <point x="232" y="712" type="line"/>
      <point x="242" y="534" type="line"/>
      <point x="74" y="544" type="line"/>
      <point x="74" y="408" type="line"/>
      <point x="242" y="418" type="line"/>
    </contour>
  </outline>
</glyph>
<glyph name="colonmonetary" format="1">
  <advance width="600"/>
  <unicode hex="20A1"/>
  <outline>
    <contour>
      <point x="358" y="514" type="line"/>
      <point x="362" y="514"/>
      <point x="365" y="514"/>
      <point x="368" y="514" type="curve" smooth="yes"/>
      <point x="377" y="514"/>
      <point x="385" y="513"/>
      <point x="392" y="512" type="curve"/>
      <point x="346" y="123" type="line"/>
      <point x="334" y="126"/>
      <point x="323" y="130"/>
      <point x="313" y="136" type="curve"/>
    </contour>
    <contour>
      <point x="266" y="193" type="line"/>
      <point x="252" y="225"/>
      <point x="244" y="267"/>
      <point x="244" y="318" type="curve" smooth="yes"/>
      <point x="244" y="403"/>
      <point x="264" y="463"/>
      <point x="302" y="493" type="curve"/>
    </contour>
    <contour>
      <point x="476" y="168" type="line"/>
      <point x="454" y="144"/>
      <point x="430" y="128"/>
      <point x="400" y="122" type="curve"/>
      <point x="444" y="492" type="line"/>
      <point x="452" y="487"/>
      <point x="460" y="482"/>
      <point x="468" y="476" type="curve"/>
      <point x="562" y="568" type="line"/>
      <point x="532" y="598"/>
      <point x="497" y="619"/>
      <point x="461" y="632" type="curve"/>
      <point x="474" y="744" type="line"/>
      <point x="420" y="744" type="line"/>
      <point x="408" y="644" type="line"/>
      <point x="399" y="645"/>
      <point x="389" y="646"/>
      <point x="380" y="646" type="curve" smooth="yes"/>
      <point x="378" y="646"/>
      <point x="376" y="646"/>
      <point x="374" y="646" type="curve"/>
      <point x="386" y="744" type="line"/>
      <point x="332" y="744" type="line"/>
      <point x="320" y="641" type="line"/>
      <point x="169" y="617"/>
      <point x="72" y="500"/>
      <point x="72" y="312" type="curve" smooth="yes"/>
      <point x="72" y="153"/>
      <point x="141" y="52"/>
      <point x="244" y="10" type="curve"/>
      <point x="230" y="-110" type="line"/>
      <point x="284" y="-110" type="line"/>
      <point x="296" y="-6" type="line"/>
      <point x="307" y="-8"/>
      <point x="319" y="-9"/>
      <point x="330" y="-10" type="curve"/>
      <point x="318" y="-110" type="line"/>
      <point x="372" y="-110" type="line"/>
      <point x="384" y="-11" type="line"/>
      <point x="456" y="-6"/>
      <point x="519" y="25"/>
      <point x="570" y="80" type="curve"/>
    </contour>
  </outline>
</glyph>
<glyph name="Euro" format="1">
  <advance width="600"/>
  <unicode hex="20AC"/>
  <outline>
    <contour>
      <point x="496" y="168" type="line"/>
      <point x="468" y="138"/>
      <point x="436" y="120"/>
      <point x="394" y="120" type="curve" smooth="yes"/>
      <point x="340" y="120"/>
      <point x="301" y="150"/>
      <point x="280" y="208" type="curve"/>
      <point x="472" y="208" type="line"/>
      <point x="472" y="292" type="line"/>
      <point x="265" y="292" type="line"/>
      <point x="264" y="300"/>
      <point x="264" y="309"/>
      <point x="264" y="318" type="curve" smooth="yes"/>
      <point x="264" y="324"/>
      <point x="264" y="330"/>
      <point x="264" y="336" type="curve"/>
      <point x="512" y="336" type="line"/>
      <point x="512" y="420" type="line"/>
      <point x="277" y="420" type="line"/>
      <point x="295" y="481"/>
      <point x="332" y="514"/>
      <point x="388" y="514" type="curve" smooth="yes"/>
      <point x="428" y="514"/>
      <point x="458" y="498"/>
      <point x="488" y="476" type="curve"/>
      <point x="582" y="568" type="line"/>
      <point x="530" y="620"/>
      <point x="462" y="646"/>
      <point x="394" y="646" type="curve" smooth="yes"/>
      <point x="250" y="646"/>
      <point x="140" y="565"/>
      <point x="104" y="419" type="curve"/>
      <point x="40" y="414" type="line"/>
      <point x="40" y="336" type="line"/>
      <point x="93" y="336" type="line"/>
      <point x="92" y="328"/>
      <point x="92" y="320"/>
      <point x="92" y="312" type="curve" smooth="yes"/>
      <point x="92" y="305"/>
      <point x="92" y="297"/>
      <point x="92" y="290" type="curve"/>
      <point x="40" y="286" type="line"/>
      <point x="40" y="208" type="line"/>
      <point x="103" y="208" type="line"/>
      <point x="138" y="62"/>
      <point x="247" y="-12"/>
      <point x="384" y="-12" type="curve" smooth="yes"/>
      <point x="464" y="-12"/>
      <point x="534" y="20"/>
      <point x="590" y="80" type="curve"/>
    </contour>
  </outline>
</glyph>
<glyph name="onethird" format="1">
  <advance width="600"/>
  <unicode hex="2153"/>
  <outline>
    <contour>
      <point x="148" y="320" type="line"/>
      <point x="272" y="320" type="line"/>
      <point x="272" y="634" type="line"/>
      <point x="176" y="634" type="line"/>
      <point x="142" y="613"/>
      <point x="121" y="604"/>
      <point x="67" y="598" type="curve"/>
      <point x="67" y="525" type="line"/>
      <point x="148" y="525" type="line"/>
    </contour>
    <contour>
      <point x="98" y="26" type="line"/>
      <point x="258" y="224" type="line"/>
      <point x="200" y="278" type="line"/>
      <point x="12" y="110" type="line"/>
    </contour>
    <contour>
      <point x="502" y="624" type="line"/>
      <point x="342" y="426" type="line"/>
      <point x="400" y="372" type="line"/>
      <point x="588" y="540" type="line"/>
    </contour>
    <contour>
      <point x="288" y="25" type="line"/>
      <point x="340" y="-10"/>
      <point x="388" y="-12"/>
      <point x="428" y="-12" type="curve" smooth="yes"/>
      <point x="502" y="-12"/>
      <point x="566" y="32"/>
      <point x="566" y="90" type="curve" smooth="yes"/>
      <point x="566" y="126"/>
      <point x="550" y="152"/>
      <point x="501" y="166" type="curve"/>
      <point x="542" y="180"/>
      <point x="554" y="200"/>
      <point x="554" y="236" type="curve" smooth="yes"/>
      <point x="554" y="289"/>
      <point x="498" y="326"/>
      <point x="431" y="326" type="curve" smooth="yes"/>
      <point x="373" y="326"/>
      <point x="324" y="309"/>
      <point x="292" y="286" type="curve"/>
      <point x="339" y="214" type="line"/>
      <point x="359" y="224"/>
      <point x="380" y="236"/>
      <point x="402" y="236" type="curve" smooth="yes"/>
      <point x="422" y="236"/>
      <point x="434" y="228"/>
      <point x="434" y="216" type="curve" smooth="yes"/>
      <point x="434" y="194"/>
      <point x="413" y="191"/>
      <point x="382" y="191" type="curve"/>
      <point x="382" y="129" type="line"/>
      <point x="427" y="129"/>
      <point x="446" y="119"/>
      <point x="446" y="100" type="curve" smooth="yes"/>
      <point x="446" y="86"/>
      <point x="430" y="78"/>
      <point x="412" y="78" type="curve" smooth="yes"/>
      <point x="387" y="78"/>
      <point x="354" y="90"/>
      <point x="333" y="101" type="curve"/>
    </contour>
  </outline>
</glyph>
<glyph name="threeeighths" format="1">
  <advance width="600"/>
  <unicode hex="215C"/>
  <outline>
    <contour>
      <point x="38" y="345" type="line"/>
      <point x="90" y="310"/>
      <point x="138" y="308"/>
      <point x="178" y="308" type="curve" smooth="yes"/>
      <point x="252" y="308"/>
      <point x="316" y="352"/>
      <point x="316" y="410" type="curve" smooth="yes"/>
      <point x="316" y="446"/>
      <point x="300" y="472"/>
      <point x="251" y="486" type="curve"/>
      <point x="292" y="500"/>
      <point x="304" y="520"/>
      <point x="304" y="556" type="curve" smooth="yes"/>
      <point x="304" y="609"/>
      <point x="248" y="646"/>
      <point x="181" y="646" type="curve" smooth="yes"/>
      <point x="123" y="646"/>
      <point x="74" y="629"/>
      <point x="42" y="606" type="curve"/>
      <point x="89" y="534" type="line"/>
      <point x="109" y="544"/>
      <point x="130" y="556"/>
      <point x="152" y="556" type="curve" smooth="yes"/>
      <point x="172" y="556"/>
      <point x="184" y="548"/>
      <point x="184" y="536" type="curve" smooth="yes"/>
      <point x="184" y="514"/>
      <point x="163" y="511"/>
      <point x="132" y="511" type="curve"/>
      <point x="132" y="449" type="line"/>
      <point x="177" y="449"/>
      <point x="196" y="439"/>
      <point x="196" y="420" type="curve" smooth="yes"/>
      <point x="196" y="406"/>
      <point x="180" y="398"/>
      <point x="162" y="398" type="curve" smooth="yes"/>
      <point x="137" y="398"/>
      <point x="104" y="410"/>
      <point x="83" y="421" type="curve"/>
    </contour>
    <contour>
      <point x="98" y="26" type="line"/>
      <point x="258" y="224" type="line"/>
      <point x="200" y="278" type="line"/>
      <point x="12" y="110" type="line"/>
    </contour>
    <contour>
      <point x="502" y="624" type="line"/>
      <point x="342" y="426" type="line"/>
      <point x="400" y="372" type="line"/>
      <point x="588" y="540" type="line"/>
    </contour>
    <contour>
      <point x="396" y="90" type="curve" smooth="yes"/>
      <point x="396" y="102"/>
      <point x="404" y="115"/>
      <point x="414" y="121" type="curve"/>
      <point x="440" y="114"/>
      <point x="456" y="102"/>
      <point x="456" y="87" type="curve" smooth="yes"/>
      <point x="456" y="75"/>
      <point x="444" y="65"/>
      <point x="426" y="65" type="curve" smooth="yes"/>
      <point x="409" y="65"/>
      <point x="396" y="74"/>
    </contour>
    <contour>
      <point x="436" y="200" type="curve"/>
      <point x="414" y="208"/>
      <point x="404" y="215"/>
      <point x="404" y="229" type="curve" smooth="yes"/>
      <point x="404" y="240"/>
      <point x="414" y="247"/>
      <point x="425" y="247" type="curve" smooth="yes"/>
      <point x="438" y="247"/>
      <point x="448" y="238"/>
      <point x="448" y="224" type="curve" smooth="yes"/>
      <point x="448" y="216"/>
      <point x="444" y="206"/>
    </contour>
    <contour>
      <point x="288" y="80" type="curve" smooth="yes"/>
      <point x="288" y="29"/>
      <point x="345" y="-12"/>
      <point x="426" y="-12" type="curve" smooth="yes"/>
      <point x="508" y="-12"/>
      <point x="564" y="31"/>
      <point x="564" y="80" type="curve" smooth="yes"/>
      <point x="564" y="129"/>
      <point x="538" y="148"/>
      <point x="503" y="166" type="curve"/>
      <point x="503" y="170" type="line"/>
      <point x="535" y="184"/>
      <point x="556" y="200"/>
      <point x="556" y="233" type="curve" smooth="yes"/>
      <point x="556" y="290"/>
      <point x="499" y="326"/>
      <point x="426" y="326" type="curve" smooth="yes"/>
      <point x="355" y="326"/>
      <point x="296" y="290"/>
      <point x="296" y="233" type="curve" smooth="yes"/>
      <point x="296" y="192"/>
      <point x="318" y="180"/>
      <point x="348" y="160" type="curve"/>
      <point x="348" y="156" type="line"/>
      <point x="319" y="140"/>
      <point x="288" y="122"/>
    </contour>
  </outline>
</glyph>
<glyph name="seveneighths" format="1">
  <advance width="600"/>
  <unicode hex="215E"/>
  <outline>
    <contour>
      <point x="102" y="320" type="curve"/>
      <point x="231" y="320" type="line"/>
      <point x="236" y="425"/>
      <point x="250" y="488"/>
      <point x="323" y="571" type="curve"/>
      <point x="323" y="634" type="line"/>
      <point x="51" y="634" type="line"/>
      <point x="51" y="534" type="line"/>
      <point x="188" y="534" type="line"/>
      <point x="135" y="457"/>
      <point x="107" y="405"/>
    </contour>
    <contour>
      <point x="98" y="26" type="line"/>
      <point x="258" y="224" type="line"/>
      <point x="200" y="278" type="line"/>
      <point x="12" y="110" type="line"/>
    </contour>
    <contour>
      <point x="502" y="624" type="line"/>
      <point x="342" y="426" type="line"/>
      <point x="400" y="372" type="line"/>
      <point x="588" y="540" type="line"/>
    </contour>
    <contour>
      <point x="396" y="90" type="curve" smooth="yes"/>
      <point x="396" y="102"/>
      <point x="404" y="115"/>
      <point x="414" y="121" type="curve"/>
      <point x="440" y="114"/>
      <point x="456" y="102"/>
      <point x="456" y="87" type="curve" smooth="yes"/>
      <point x="456" y="75"/>
      <point x="444" y="65"/>
      <point x="426" y="65" type="curve" smooth="yes"/>
      <point x="409" y="65"/>
      <point x="396" y="74"/>
    </contour>
    <contour>
      <point x="436" y="200" type="curve"/>
      <point x="414" y="208"/>
      <point x="404" y="215"/>
      <point x="404" y="229" type="curve" smooth="yes"/>
      <point x="404" y="240"/>
      <point x="414" y="247"/>
      <point x="425" y="247" type="curve" smooth="yes"/>
      <point x="438" y="247"/>
      <point x="448" y="238"/>
      <point x="448" y="224" type="curve" smooth="yes"/>
      <point x="448" y="216"/>
      <point x="444" y="206"/>
    </contour>
    <contour>
      <point x="288" y="80" type="curve" smooth="yes"/>
      <point x="288" y="29"/>
      <point x="345" y="-12"/>
      <point x="426" y="-12" type="curve" smooth="yes"/>
      <point x="508" y="-12"/>
      <point x="564" y="31"/>
      <point x="564" y="80" type="curve" smooth="yes"/>
      <point x="564" y="129"/>
      <point x="538" y="148"/>
      <point x="503" y="166" type="curve"/>
      <point x="503" y="170" type="line"/>
      <point x="535" y="184"/>
      <point x="556" y="200"/>
      <point x="556" y="233" type="curve" smooth="yes"/>
      <point x="556" y="290"/>
      <point x="499" y="326"/>
      <point x="426" y="326" type="curve" smooth="yes"/>
      <point x="355" y="326"/>
      <point x="296" y="290"/>
      <point x="296" y="233" type="curve" smooth="yes"/>
      <point x="296" y="192"/>
      <point x="318" y="180"/>
      <point x="348" y="160" type="curve"/>
      <point x="348" y="156" type="line"/>
      <point x="319" y="140"/>
      <point x="288" y="122"/>
    </contour>
  </outline>
</glyph>
<glyph name="arrowleft" format="1">
  <advance width="600"/>
  <unicode hex="2190"/>
  <outline>
    <contour>
      <point x="12" y="250" type="line"/>
      <point x="292" y="-18" type="line"/>
      <point x="372" y="74" type="line"/>
      <point x="242" y="184" type="line"/>
      <point x="568" y="184" type="line"/>
      <point x="568" y="320" type="line"/>
      <point x="242" y="320" type="line"/>
      <point x="372" y="430" type="line"/>
      <point x="292" y="522" type="line"/>
      <point x="12" y="254" type="line"/>
    </contour>
  </outline>
</glyph>
<glyph name="arrowup" format="1">
  <advance width="600"/>
  <unicode hex="2191"/>
  <outline>
    <contour>
      <point x="298" y="530" type="line"/>
      <point x="30" y="250" type="line"/>
      <point x="122" y="170" type="line"/>
      <point x="232" y="300" type="line"/>
      <point x="232" y="-26" type="line"/>
      <point x="368" y="-26" type="line"/>
      <point x="368" y="300" type="line"/>
      <point x="478" y="170" type="line"/>
      <point x="570" y="250" type="line"/>
      <point x="302" y="530" type="line"/>
    </contour>
  </outline>
</glyph>
<glyph name="partialdiff" format="1">
  <advance width="600"/>
  <unicode hex="2202"/>
  <outline>
    <contour>
      <point x="274" y="126" type="curve" smooth="yes"/>
      <point x="241" y="126"/>
      <point x="210" y="147"/>
      <point x="210" y="197" type="curve" smooth="yes"/>
      <point x="210" y="268"/>
      <point x="249" y="292"/>
      <point x="289" y="292" type="curve" smooth="yes"/>
      <point x="321" y="292"/>
      <point x="352" y="278"/>
      <point x="373" y="239" type="curve"/>
      <point x="353" y="149"/>
      <point x="311" y="126"/>
    </contour>
    <contour>
      <point x="189" y="490" type="line"/>
      <point x="220" y="519"/>
      <point x="250" y="534"/>
      <point x="288" y="534" type="curve" smooth="yes"/>
      <point x="364" y="534"/>
      <point x="386" y="466"/>
      <point x="386" y="375" type="curve" smooth="yes"/>
      <point x="386" y="372"/>
      <point x="386" y="368"/>
      <point x="386" y="365" type="curve"/>
      <point x="355" y="401"/>
      <point x="311" y="422"/>
      <point x="267" y="422" type="curve" smooth="yes"/>
      <point x="145" y="422"/>
      <point x="53" y="326"/>
      <point x="53" y="187" type="curve" smooth="yes"/>
      <point x="53" y="65"/>
      <point x="144" y="-12"/>
      <point x="255" y="-12" type="curve" smooth="yes"/>
      <point x="426" y="-12"/>
      <point x="548" y="140"/>
      <point x="548" y="370" type="curve" smooth="yes"/>
      <point x="548" y="543"/>
      <point x="472" y="672"/>
      <point x="307" y="672" type="curve" smooth="yes"/>
      <point x="234" y="672"/>
      <point x="174" y="644"/>
      <point x="116" y="596" type="curve"/>
    </contour>
  </outline>
</glyph>
<glyph name="minus" format="1">
  <advance width="600"/>
  <unicode hex="2212"/>
  <outline>
    <contour>
      <point x="64" y="250" type="line"/>
      <point x="536" y="250" type="line"/>
      <point x="536" y="370" type="line"/>
      <point x="64" y="370" type="line"/>
    </contour>
  </outline>
</glyph>
<glyph name="radical" format="1">
  <advance width="600"/>
  <unicode hex="221A"/>
  <outline>
    <contour>
      <point x="212" y="454" type="line"/>
      <point x="22" y="378" type="line"/>
      <point x="50" y="300" type="line"/>
      <point x="126" y="330" type="line"/>
      <point x="276" y="-74" type="line"/>
      <point x="392" y="-74" type="line"/>
      <point x="608" y="820" type="line"/>
      <point x="496" y="820" type="line"/>
      <point x="346" y="180" type="line" smooth="yes"/>
      <point x="340" y="150"/>
      <point x="334" y="120"/>
      <point x="330" y="90" type="curve"/>
      <point x="326" y="90" type="line"/>
      <point x="320" y="120"/>
      <point x="312" y="150"/>
      <point x="304" y="180" type="curve"/>
    </contour>
  </outline>
</glyph>
<glyph name="approxequal" format="1">
  <advance width="600"/>
  <unicode hex="2248"/>
  <outline>
    <contour>
      <point x="144" y="326" type="line"/>
      <point x="162" y="376"/>
      <point x="188" y="406"/>
      <point x="214" y="406" type="curve" smooth="yes"/>
      <point x="268" y="406"/>
      <point x="300" y="334"/>
      <point x="384" y="334" type="curve" smooth="yes"/>
      <point x="450" y="334"/>
      <point x="512" y="378"/>
      <point x="558" y="486" type="curve"/>
      <point x="456" y="534" type="line"/>
      <point x="438" y="484"/>
      <point x="413" y="454"/>
      <point x="386" y="454" type="curve" smooth="yes"/>
      <point x="332" y="454"/>
      <point x="300" y="526"/>
      <point x="216" y="526" type="curve" smooth="yes"/>
      <point x="150" y="526"/>
      <point x="88" y="482"/>
      <point x="42" y="374" type="curve"/>
    </contour>
    <contour>
      <point x="144" y="86" type="line"/>
      <point x="162" y="136"/>
      <point x="188" y="166"/>
      <point x="214" y="166" type="curve" smooth="yes"/>
      <point x="268" y="166"/>
      <point x="300" y="94"/>
      <point x="384" y="94" type="curve" smooth="yes"/>
      <point x="450" y="94"/>
      <point x="512" y="138"/>
      <point x="558" y="246" type="curve"/>
      <point x="456" y="294" type="line"/>
      <point x="438" y="244"/>
      <point x="413" y="214"/>
      <point x="386" y="214" type="curve" smooth="yes"/>
      <point x="332" y="214"/>
      <point x="300" y="286"/>
      <point x="216" y="286" type="curve" smooth="yes"/>
      <point x="150" y="286"/>
      <point x="88" y="242"/>
      <point x="42" y="134" type="curve"/>
    </contour>
  </outline>
</glyph>
<glyph name="A" format="1">
  <advance width="600"/>
  <outline>
    <contour>
      <point x="0" y="0" type="line"/>
      <point x="176" y="0" type="line"/>
      <point x="249" y="316" type="line" smooth="yes"/>
      <point x="263" y="378"/>
      <point x="280" y="456"/>
      <point x="294" y="522" type="curve"/>
      <point x="298" y="522" type="line"/>
      <point x="314" y="457"/>
      <point x="331" y="378"/>
      <point x="345" y="316" type="curve" smooth="yes"/>
      <point x="418" y="0" type="line"/>
      <point x="600" y="0" type="line"/>
      <point x="404" y="650" type="line"/>
      <point x="196" y="650" type="line"/>
    </contour>
    <contour>
      <point x="141" y="138" type="line"/>
      <point x="457" y="138" type="line"/>
      <point x="457" y="271" type="line"/>
      <point x="141" y="271" type="line"/>
    </contour>
    <contour>
      <point x="300" y="672" type="move" name="aboveUC"/>
    </contour>
    <contour>
      <point x="300" y="-22" type="move" name="belowLC"/>
    </contour>
    <contour>
      <point x="492" y="0" type="move" name="ogonekUC"/>
    </contour>
  </outline>
</glyph>
<glyph name="Acircumflexhook" format="1">
  <advance width="600"/>
  <outline>
    <contour>
      <point x="446" y="748" type="line"/>
      <point x="517" y="752"/>
      <point x="570" y="776"/>
      <point x="570" y="838" type="curve" smooth="yes"/>
      <point x="570" y="882"/>
      <point x="536" y="918"/>
      <point x="414" y="922" type="curve"/>
      <point x="398" y="854" type="line"/>
      <point x="449" y="850"/>
      <point x="462" y="840"/>
      <point x="462" y="824" type="curve" smooth="yes"/>
      <point x="462" y="808"/>
      <point x="450" y="803"/>
      <point x="434" y="800" type="curve"/>
    </contour>
    <contour>
      <point x="298" y="752" type="line"/>
      <point x="302" y="752" type="line"/>
      <point x="350" y="700" type="line"/>
      <point x="470" y="700" type="line"/>
      <point x="374" y="818" type="line"/>
      <point x="226" y="818" type="line"/>
      <point x="130" y="700" type="line"/>
      <point x="250" y="700" type="line"/>
    </contour>
    <contour>
      <point x="239" y="271" type="line"/>
      <point x="249" y="316" type="line" smooth="yes"/>
      <point x="263" y="378"/>
      <point x="280" y="456"/>
      <point x="294" y="522" type="curve"/>
      <point x="298" y="522" type="line"/>
      <point x="314" y="457"/>
      <point x="331" y="378"/>
      <point x="345" y="316" type="curve" smooth="yes"/>
      <point x="355" y="271" type="line"/>
    </contour>
    <contour>
      <point x="418" y="0" type="line"/>
      <point x="600" y="0" type="line"/>
      <point x="404" y="650" type="line"/>
      <point x="196" y="650" type="line"/>
      <point x="0" y="0" type="line"/>
      <point x="176" y="0" type="line"/>
      <point x="208" y="138" type="line"/>
      <point x="386" y="138" type="line"/>
    </contour>
  </outline>
</glyph>
<glyph name="Aogonek" format="1">
  <advance width="600"/>
  <outline>
    <contour>
      <point x="458" y="138" type="line"/>
      <point x="458" y="271" type="line"/>
      <point x="140" y="271" type="line"/>
      <point x="140" y="138" type="line"/>
    </contour>
    <contour>
      <point x="0" y="0" type="line"/>
      <point x="176" y="0" type="line"/>
      <point x="249" y="316" type="line" smooth="yes"/>
      <point x="264" y="378"/>
      <point x="280" y="456"/>
      <point x="294" y="522" type="curve"/>
      <point x="298" y="522" type="line"/>
      <point x="314" y="457"/>
      <point x="330" y="378"/>
      <point x="345" y="316" type="curve" smooth="yes"/>
      <point x="418" y="0" type="line"/>
      <point x="466" y="0" type="line"/>
      <point x="434" y="-17"/>
      <point x="382" y="-65"/>
      <point x="382" y="-130" type="curve" smooth="yes"/>
      <point x="382" y="-192"/>
      <point x="436" y="-228"/>
      <point x="504" y="-228" type="curve" smooth="yes"/>
      <point x="542" y="-228"/>
      <point x="590" y="-212"/>
      <point x="618" y="-190" type="curve"/>
      <point x="580" y="-104" type="line"/>
      <point x="571" y="-111"/>
      <point x="557" y="-118"/>
      <point x="542" y="-118" type="curve" smooth="yes"/>
      <point x="522" y="-118"/>
      <point x="506" y="-106"/>
      <point x="506" y="-84" type="curve" smooth="yes"/>
      <point x="506" y="-44"/>
      <point x="542" y="0"/>
      <point x="600" y="0" type="curve"/>
      <point x="404" y="650" type="line"/>
      <point x="196" y="650" type="line"/>
    </contour>
    <contour>
      <point x="300" y="672" type="move" name="aboveUC"/>
    </contour>
  </outline>
</glyph>
<glyph name="Be" format="1">
  <advance width="600"/>
  <outline>
    <contour>
      <point x="76" y="0" type="line"/>
      <point x="310" y="0" type="line" smooth="yes"/>
      <point x="444" y="0"/>
      <point x="560" y="56"/>
      <point x="560" y="210" type="curve" smooth="yes"/>
      <point x="560" y="358"/>
      <point x="442" y="404"/>
      <point x="306" y="404" type="curve" smooth="yes"/>
      <point x="248" y="404" type="line"/>
      <point x="248" y="506" type="line"/>
      <point x="518" y="506" type="line"/>
      <point x="518" y="650" type="line"/>
      <point x="76" y="650" type="line"/>
    </contour>
    <contour>
      <point x="248" y="132" type="line"/>
      <point x="248" y="278" type="line"/>
      <point x="294" y="278" type="line" smooth="yes"/>
      <point x="358" y="278"/>
      <point x="392" y="260"/>
      <point x="392" y="208" type="curve" smooth="yes"/>
      <point x="392" y="156"/>
      <point x="360" y="132"/>
      <point x="294" y="132" type="curve" smooth="yes"/>
    </contour>
  </outline>
</glyph>
<glyph name="Bsmall" format="1">
  <advance width="538"/>
  <outline>
    <component base="ve"/>
    <contour>
      <point x="266.0" y="502.0" type="move" name="aboveLC"/>
    </contour>
    <contour>
      <point x="280.0" y="-22.0" type="move" name="belowLC"/>
    </contour>
  </outline>
</glyph>
<glyph name="Bstroke" format="1">
  <advance width="600"/>
  <outline>
    <contour>
      <point x="248" y="122" type="line"/>
      <point x="248" y="174" type="line"/>
      <point x="340" y="174" type="line"/>
      <point x="340" y="254" type="line"/>
      <point x="248" y="254" type="line"/>
      <point x="248" y="304" type="line"/>
      <point x="298" y="304" type="line" smooth="yes"/>
      <point x="366" y="304"/>
      <point x="398" y="278"/>
      <point x="398" y="216" type="curve" smooth="yes"/>
      <point x="398" y="156"/>
      <point x="365" y="122"/>
      <point x="298" y="122" type="curve" smooth="yes"/>
    </contour>
    <contour>
      <point x="248" y="528" type="line"/>
      <point x="286" y="528" type="line" smooth="yes"/>
      <point x="342" y="528"/>
      <point x="368" y="512"/>
      <point x="368" y="472" type="curve" smooth="yes"/>
      <point x="368" y="428"/>
      <point x="341" y="404"/>
      <point x="286" y="404" type="curve" smooth="yes"/>
      <point x="248" y="404" type="line"/>
    </contour>
    <contour>
      <point x="424" y="368" type="line"/>
      <point x="500" y="387"/>
      <point x="532" y="442"/>
      <point x="532" y="494" type="curve" smooth="yes"/>
      <point x="532" y="614"/>
      <point x="426" y="650"/>
      <point x="290" y="650" type="curve" smooth="yes"/>
      <point x="76" y="650" type="line"/>
      <point x="76" y="254" type="line"/>
      <point x="2" y="248" type="line"/>
      <point x="2" y="174" type="line"/>
      <point x="76" y="174" type="line"/>
      <point x="76" y="0" type="line"/>
      <point x="310" y="0" type="line" smooth="yes"/>
      <point x="450" y="0"/>
      <point x="562" y="61"/>
      <point x="562" y="202" type="curve" smooth="yes"/>
      <point x="562" y="294"/>
      <point x="516" y="345"/>
      <point x="424" y="364" type="curve"/>
    </contour>
  </outline>
</glyph>
<glyph name="C" format="1">
  <advance width="600"/>
  <outline>
    <contour>
      <point x="51" y="320" type="curve" smooth="yes"/>
      <point x="51" y="98"/>
      <point x="197" y="-12"/>
      <point x="367" y="-12" type="curve" smooth="yes"/>
      <point x="447" y="-12"/>
      <point x="520" y="20"/>
      <point x="575" y="84" type="curve"/>
      <point x="481" y="188" type="line"/>
      <point x="453" y="158"/>
      <point x="419" y="136"/>
      <point x="377" y="136" type="curve" smooth="yes"/>
      <point x="289" y="136"/>
      <point x="227" y="204"/>
      <point x="227" y="326" type="curve" smooth="yes"/>
      <point x="227" y="444"/>
      <point x="289" y="514"/>
      <point x="369" y="514" type="curve" smooth="yes"/>
      <point x="413" y="514"/>
      <point x="443" y="498"/>
      <point x="473" y="472" type="curve"/>
      <point x="567" y="578" type="line"/>
      <point x="521" y="622"/>
      <point x="453" y="662"/>
      <point x="369" y="662" type="curve" smooth="yes"/>
      <point x="193" y="662"/>
      <point x="51" y="538"/>
    </contour>
    <contour>
      <point x="356" y="672" type="move" name="aboveUC"/>
    </contour>
    <contour>
      <point x="348" y="-22" type="move" name="belowLC"/>
    </contour>
    <contour>
      <point x="348" y="0" type="move" name="baseLC"/>
    </contour>
  </outline>
</glyph>
<glyph name="D" format="1">
  <advance width="600"/>
  <outline>
    <contour>
      <point x="58" y="0" type="line"/>
      <point x="251" y="0" type="line" smooth="yes"/>
      <point x="427" y="0"/>
      <point x="558" y="98"/>
      <point x="558" y="328" type="curve" smooth="yes"/>
      <point x="558" y="558"/>
      <point x="427" y="650"/>
      <point x="241" y="650" type="curve" smooth="yes"/>
      <point x="58" y="650" type="line"/>
    </contour>
    <contour>
      <point x="230" y="138" type="line"/>
      <point x="230" y="512" type="line"/>
      <point x="232" y="512" type="line" smooth="yes"/>
      <point x="315" y="512"/>
      <point x="382" y="480"/>
      <point x="382" y="328" type="curve" smooth="yes"/>
      <point x="382" y="176"/>
      <point x="315" y="138"/>
      <point x="232" y="138" type="curve" smooth="yes"/>
    </contour>
    <contour>
      <point x="296" y="672" type="move" name="aboveUC"/>
    </contour>
    <contour>
      <point x="290" y="-22" type="move" name="belowLC"/>
    </contour>
  </outline>
</glyph>
<glyph name="Dzhe" format="1">
  <advance width="600"/>
  <outline>
    <contour>
      <point x="37" y="0" type="line"/>
      <point x="563" y="0" type="line"/>
      <point x="563" y="650" type="line"/>
      <point x="391" y="650" type="line"/>
      <point x="391" y="144" type="line"/>
      <point x="209" y="144" type="line"/>
      <point x="209" y="650" type="line"/>
      <point x="37" y="650" type="line"/>
    </contour>
    <contour>
      <point x="225" y="-188" type="line"/>
      <point x="379" y="-188" type="line"/>
      <point x="393" y="24" type="line"/>
      <point x="225" y="0" type="line"/>
    </contour>
  </outline>
</glyph>
<glyph name="Ddotbelow" format="1">
  <advance width="600"/>
  <outline>
    <contour>
      <point x="58" y="0" type="line"/>
      <point x="251" y="0" type="line" smooth="yes"/>
      <point x="427" y="0"/>
      <point x="558" y="98"/>
      <point x="558" y="328" type="curve" smooth="yes"/>
      <point x="558" y="558"/>
      <point x="427" y="650"/>
      <point x="241" y="650" type="curve" smooth="yes"/>
      <point x="58" y="650" type="line"/>
    </contour>
    <contour>
      <point x="230" y="138" type="line"/>
      <point x="230" y="512" type="line"/>
      <point x="232" y="512" type="line" smooth="yes"/>
      <point x="315" y="512"/>
      <point x="382" y="480"/>
      <point x="382" y="328" type="curve" smooth="yes"/>
      <point x="382" y="176"/>
      <point x="315" y="138"/>
      <point x="232" y="138" type="curve" smooth="yes"/>
    </contour>
    <contour>
      <point x="290" y="-264" type="curve" smooth="yes"/>
      <point x="354" y="-264"/>
      <point x="400" y="-224"/>
      <point x="400" y="-164" type="curve" smooth="yes"/>
      <point x="400" y="-104"/>
      <point x="354" y="-62"/>
      <point x="290" y="-62" type="curve" smooth="yes"/>
      <point x="226" y="-62"/>
      <point x="180" y="-104"/>
      <point x="180" y="-164" type="curve" smooth="yes"/>
      <point x="180" y="-224"/>
      <point x="226" y="-264"/>
    </contour>
  </outline>
</glyph>
<glyph name="Delta.math" format="1">
  <advance width="600"/>
  <outline>
    <contour>
      <point x="0" y="0" type="line"/>
      <point x="600" y="0" type="line"/>
      <point x="600" y="104" type="line"/>
      <point x="404" y="660" type="line"/>
      <point x="196" y="660" type="line"/>
      <point x="0" y="104" type="line"/>
    </contour>
    <contour>
      <point x="194" y="144" type="line"/>
      <point x="258" y="344" type="line"/>
      <point x="298" y="502" type="line"/>
      <point x="302" y="502" type="line"/>
      <point x="342" y="344" type="line"/>
      <point x="406" y="144" type="line"/>
    </contour>
  </outline>
</glyph>
<glyph name="E" format="1">
  <advance width="600"/>
  <outline>
    <contour>
      <point x="86" y="0" type="line"/>
      <point x="536" y="0" type="line"/>
      <point x="536" y="144" type="line"/>
      <point x="258" y="144" type="line"/>
      <point x="258" y="260" type="line"/>
      <point x="486" y="260" type="line"/>
      <point x="486" y="404" type="line"/>
      <point x="258" y="404" type="line"/>
      <point x="258" y="506" type="line"/>
      <point x="526" y="506" type="line"/>
      <point x="526" y="650" type="line"/>
      <point x="86" y="650" type="line"/>
    </contour>
    <contour>
      <point x="318" y="672" type="move" name="aboveUC"/>
    </contour>
    <contour>
      <point x="316" y="-22" type="move" name="belowLC"/>
    </contour>
    <contour>
      <point x="418" y="0" type="move" name="ogonekUC"/>
    </contour>
  </outline>
</glyph>
<glyph name="Esdescender" format="1">
  <advance width="600"/>
  <outline>
    <contour>
      <point x="279" y="-188" type="line"/>
      <point x="433" y="-188" type="line"/>
      <point x="447" y="24" type="line"/>
      <point x="279" y="0" type="line"/>
    </contour>
    <component base="Es"/>
  </outline>
</glyph>
<glyph name="Ecircumflexacute" format="1">
  <advance width="600"/>
  <outline>
    <contour>
      <point x="86" y="0" type="line"/>
      <point x="536" y="0" type="line"/>
      <point x="536" y="144" type="line"/>
      <point x="258" y="144" type="line"/>
      <point x="258" y="260" type="line"/>
      <point x="486" y="260" type="line"/>
      <point x="486" y="404" type="line"/>
      <point x="258" y="404" type="line"/>
      <point x="258" y="506" type="line"/>
      <point x="526" y="506" type="line"/>
      <point x="526" y="650" type="line"/>
      <point x="86" y="650" type="line"/>
    </contour>
    <contour>
      <point x="439" y="770" type="line"/>
      <point x="535" y="770" type="line"/>
      <point x="637" y="894" type="line"/>
      <point x="507" y="894" type="line"/>
    </contour>
    <contour>
      <point x="148" y="700" type="line"/>
      <point x="268" y="700" type="line"/>
      <point x="316" y="752" type="line"/>
      <point x="320" y="752" type="line"/>
      <point x="368" y="700" type="line"/>
      <point x="488" y="700" type="line"/>
      <point x="392" y="818" type="line"/>
      <point x="244" y="818" type="line"/>
    </contour>
  </outline>
</glyph>
<glyph name="Edotbelow" format="1">
  <advance width="600"/>
  <outline>
    <contour>
      <point x="86" y="0" type="line"/>
      <point x="536" y="0" type="line"/>
      <point x="536" y="144" type="line"/>
      <point x="258" y="144" type="line"/>
      <point x="258" y="260" type="line"/>
      <point x="486" y="260" type="line"/>
      <point x="486" y="404" type="line"/>
      <point x="258" y="404" type="line"/>
      <point x="258" y="506" type="line"/>
      <point x="526" y="506" type="line"/>
      <point x="526" y="650" type="line"/>
      <point x="86" y="650" type="line"/>
    </contour>
    <contour>
      <point x="316" y="-264" type="curve" smooth="yes"/>
      <point x="380" y="-264"/>
      <point x="426" y="-224"/>
      <point x="426" y="-164" type="curve" smooth="yes"/>
      <point x="426" y="-104"/>
      <point x="380" y="-62"/>
      <point x="316" y="-62" type="curve" smooth="yes"/>
      <point x="252" y="-62"/>
      <point x="206" y="-104"/>
      <point x="206" y="-164" type="curve" smooth="yes"/>
      <point x="206" y="-224"/>
      <point x="252" y="-264"/>
    </contour>
  </outline>
</glyph>
<glyph name="Ehook" format="1">
  <advance width="600"/>
  <outline>
    <contour>
      <point x="86" y="0" type="line"/>
      <point x="536" y="0" type="line"/>
      <point x="536" y="144" type="line"/>
      <point x="258" y="144" type="line"/>
      <point x="258" y="260" type="line"/>
      <point x="486" y="260" type="line"/>
      <point x="486" y="404" type="line"/>
      <point x="258" y="404" type="line"/>
      <point x="258" y="506" type="line"/>
      <point x="526" y="506" type="line"/>
      <point x="526" y="650" type="line"/>
      <point x="86" y="650" type="line"/>
    </contour>
    <contour>
      <point x="280" y="688" type="line"/>
      <point x="362" y="692"/>
      <point x="430" y="724"/>
      <point x="430" y="796" type="curve" smooth="yes"/>
      <point x="430" y="850"/>
      <point x="388" y="888"/>
      <point x="250" y="892" type="curve"/>
      <point x="230" y="808" type="line"/>
      <point x="288" y="804"/>
      <point x="308" y="794"/>
      <point x="308" y="778" type="curve" smooth="yes"/>
      <point x="308" y="762"/>
      <point x="290" y="757"/>
      <point x="268" y="754" type="curve"/>
    </contour>
  </outline>
</glyph>
<glyph name="Etilde" format="1">
  <advance width="600"/>
  <outline>
    <contour>
      <point x="86" y="0" type="line"/>
      <point x="536" y="0" type="line"/>
      <point x="536" y="144" type="line"/>
      <point x="258" y="144" type="line"/>
      <point x="258" y="260" type="line"/>
      <point x="486" y="260" type="line"/>
      <point x="486" y="404" type="line"/>
      <point x="258" y="404" type="line"/>
      <point x="258" y="506" type="line"/>
      <point x="526" y="506" type="line"/>
      <point x="526" y="650" type="line"/>
      <point x="86" y="650" type="line"/>
    </contour>
    <contour>
      <point x="382" y="700" type="curve" smooth="yes"/>
      <point x="436" y="700"/>
      <point x="486" y="744"/>
      <point x="498" y="846" type="curve"/>
      <point x="412" y="846" type="line"/>
      <point x="404" y="814"/>
      <point x="390" y="804"/>
      <point x="374" y="804" type="curve" smooth="yes"/>
      <point x="346" y="804"/>
      <point x="308" y="846"/>
      <point x="254" y="846" type="curve" smooth="yes"/>
      <point x="200" y="846"/>
      <point x="150" y="802"/>
      <point x="138" y="700" type="curve"/>
      <point x="224" y="700" type="line"/>
      <point x="232" y="732"/>
      <point x="246" y="742"/>
      <point x="262" y="742" type="curve" smooth="yes"/>
      <point x="290" y="742"/>
      <point x="328" y="700"/>
    </contour>
  </outline>
</glyph>
<glyph name="F" format="1">
  <advance width="600"/>
  <outline>
    <contour>
      <point x="98" y="0" type="line"/>
      <point x="270" y="0" type="line"/>
      <point x="270" y="238" type="line"/>
      <point x="500" y="238" type="line"/>
      <point x="500" y="382" type="line"/>
      <point x="270" y="382" type="line"/>
      <point x="270" y="506" type="line"/>
      <point x="539" y="506" type="line"/>
      <point x="539" y="650" type="line"/>
      <point x="98" y="650" type="line"/>
    </contour>
    <contour>
      <point x="322" y="672" type="move" name="aboveUC"/>
    </contour>
    <contour>
      <point x="200" y="-22" type="move" name="belowLC"/>
    </contour>
  </outline>
</glyph>
<glyph name="Gsmall" format="1">
  <advance width="600"/>
  <outline>
    <contour>
      <point x="329" y="-12" type="curve" smooth="yes"/>
      <point x="408" y="-12"/>
      <point x="481" y="16"/>
      <point x="524" y="55" type="curve"/>
      <point x="524" y="310" type="line"/>
      <point x="304" y="310" type="line"/>
      <point x="304" y="198" type="line"/>
      <point x="378" y="198" type="line"/>
      <point x="378" y="126" type="line"/>
      <point x="368" y="120"/>
      <point x="356" y="118"/>
      <point x="342" y="118" type="curve" smooth="yes"/>
      <point x="284" y="118"/>
      <point x="244" y="164"/>
      <point x="244" y="247" type="curve" smooth="yes"/>
      <point x="244" y="344"/>
      <point x="296" y="382"/>
      <point x="343" y="382" type="curve" smooth="yes"/>
      <point x="386" y="382"/>
      <point x="403" y="369"/>
      <point x="434" y="350" type="curve"/>
      <point x="510" y="452" type="line"/>
      <point x="464" y="487"/>
      <point x="417" y="512"/>
      <point x="331" y="512" type="curve" smooth="yes"/>
      <point x="202" y="512"/>
      <point x="70" y="418"/>
      <point x="70" y="247" type="curve" smooth="yes"/>
      <point x="70" y="67"/>
      <point x="198" y="-12"/>
    </contour>
    <contour>
      <point x="362" y="522" type="move" name="aboveUC"/>
    </contour>
    <contour>
      <point x="366" y="-22" type="move" name="belowLC"/>
    </contour>
  </outline>
</glyph>
<glyph name="Gtilde" format="1">
  <advance width="600"/>
  <outline>
    <contour>
      <point x="40" y="320" type="curve" smooth="yes"/>
      <point x="40" y="98"/>
      <point x="178" y="-12"/>
      <point x="345" y="-12" type="curve" smooth="yes"/>
      <point x="428" y="-12"/>
      <point x="507" y="28"/>
      <point x="552" y="68" type="curve"/>
      <point x="552" y="378" type="line"/>
      <point x="318" y="378" type="line"/>
      <point x="318" y="238" type="line"/>
      <point x="399" y="238" type="line"/>
      <point x="399" y="148" type="line"/>
      <point x="389" y="140"/>
      <point x="371" y="136"/>
      <point x="355" y="136" type="curve" smooth="yes"/>
      <point x="262" y="136"/>
      <point x="217" y="204"/>
      <point x="217" y="326" type="curve" smooth="yes"/>
      <point x="217" y="444"/>
      <point x="275" y="514"/>
      <point x="346" y="514" type="curve" smooth="yes"/>
      <point x="393" y="514"/>
      <point x="419" y="498"/>
      <point x="446" y="472" type="curve"/>
      <point x="540" y="578" type="line"/>
      <point x="497" y="622"/>
      <point x="434" y="662"/>
      <point x="346" y="662" type="curve" smooth="yes"/>
      <point x="177" y="662"/>
      <point x="40" y="540"/>
    </contour>
    <contour>
      <point x="394" y="700" type="curve" smooth="yes"/>
      <point x="448" y="700"/>
      <point x="498" y="744"/>
      <point x="510" y="846" type="curve"/>
      <point x="424" y="846" type="line"/>
      <point x="416" y="814"/>
      <point x="402" y="804"/>
      <point x="386" y="804" type="curve" smooth="yes"/>
      <point x="358" y="804"/>
      <point x="320" y="846"/>
      <point x="266" y="846" type="curve" smooth="yes"/>
      <point x="212" y="846"/>
      <point x="162" y="802"/>
      <point x="150" y="700" type="curve"/>
      <point x="236" y="700" type="line"/>
      <point x="244" y="732"/>
      <point x="258" y="742"/>
      <point x="274" y="742" type="curve" smooth="yes"/>
      <point x="302" y="742"/>
      <point x="340" y="700"/>
    </contour>
  </outline>
</glyph>
<glyph name="H" format="1">
  <advance width="600"/>
  <outline>
    <contour>
      <point x="58" y="0" type="line"/>
      <point x="230" y="0" type="line"/>
      <point x="230" y="258" type="line"/>
      <point x="370" y="258" type="line"/>
      <point x="370" y="0" type="line"/>
      <point x="542" y="0" type="line"/>
      <point x="542" y="650" type="line"/>
      <point x="370" y="650" type="line"/>
      <point x="370" y="408" type="line"/>
      <point x="230" y="408" type="line"/>
      <point x="230" y="650" type="line"/>
      <point x="58" y="650" type="line"/>
    </contour>
    <contour>
      <point x="299" y="672" type="move" name="aboveUC"/>
    </contour>
    <contour>
      <point x="299" y="-22" type="move" name="belowLC"/>
    </contour>
  </outline>
</glyph>
<glyph name="Hard" format="1">
  <advance width="600"/>
  <outline>
    <contour>
      <point x="141" y="0" type="line"/>
      <point x="373" y="0" type="line" smooth="yes"/>
      <point x="513" y="0"/>
      <point x="633" y="54"/>
      <point x="633" y="218" type="curve" smooth="yes"/>
      <point x="633" y="363"/>
      <point x="507" y="424"/>
      <point x="369" y="424" type="curve" smooth="yes"/>
      <point x="313" y="424" type="line"/>
      <point x="313" y="650" type="line"/>
      <point x="-43" y="650" type="line"/>
      <point x="-43" y="506" type="line"/>
      <point x="141" y="506" type="line"/>
    </contour>
    <contour>
      <point x="313" y="136" type="line"/>
      <point x="313" y="288" type="line"/>
      <point x="361" y="288" type="line" smooth="yes"/>
      <point x="431" y="288"/>
      <point x="465" y="262"/>
      <point x="465" y="216" type="curve" smooth="yes"/>
      <point x="465" y="158"/>
      <point x="429" y="136"/>
      <point x="365" y="136" type="curve" smooth="yes"/>
    </contour>
  </outline>
</glyph>
<glyph name="Hbar" format="1">
  <advance width="600"/>
  <outline>
    <contour>
      <point x="0" y="484" type="line"/>
      <point x="600" y="484" type="line"/>
      <point x="600" y="564" type="line"/>
      <point x="65" y="564" type="line"/>
      <point x="0" y="558" type="line"/>
    </contour>
    <component base="H"/>
  </outline>
</glyph>
<glyph name="I" format="1">
  <advance width="600"/>
  <outline>
    <contour>
      <point x="66" y="0" type="line"/>
      <point x="534" y="0" type="line"/>
      <point x="534" y="144" type="line"/>
      <point x="386" y="144" type="line"/>
      <point x="386" y="506" type="line"/>
      <point x="534" y="506" type="line"/>
      <point x="534" y="650" type="line"/>
      <point x="66" y="650" type="line"/>
      <point x="66" y="506" type="line"/>
      <point x="214" y="506" type="line"/>
      <point x="214" y="144" type="line"/>
      <point x="66" y="144" type="line"/>
    </contour>
    <contour>
      <point x="300" y="672" type="move" name="aboveUC"/>
    </contour>
    <contour>
      <point x="300" y="-22" type="move" name="belowLC"/>
    </contour>
    <contour>
      <point x="282" y="0" type="move" name="ogonekUC"/>
    </contour>
  </outline>
</glyph>
<glyph name="Idotbelow" format="1">
  <advance width="600"/>
  <outline>
    <contour>
      <point x="66" y="0" type="line"/>
      <point x="534" y="0" type="line"/>
      <point x="534" y="144" type="line"/>
      <point x="386" y="144" type="line"/>
      <point x="386" y="506" type="line"/>
      <point x="534" y="506" type="line"/>
      <point x="534" y="650" type="line"/>
      <point x="66" y="650" type="line"/>
      <point x="66" y="506" type="line"/>
      <point x="214" y="506" type="line"/>
      <point x="214" y="144" type="line"/>
      <point x="66" y="144" type="line"/>
    </contour>
    <contour>
      <point x="300" y="-264" type="curve" smooth="yes"/>
      <point x="364" y="-264"/>
      <point x="410" y="-224"/>
      <point x="410" y="-164" type="curve" smooth="yes"/>
      <point x="410" y="-104"/>
      <point x="364" y="-62"/>
      <point x="300" y="-62" type="curve" smooth="yes"/>
      <point x="236" y="-62"/>
      <point x="190" y="-104"/>
      <point x="190" y="-164" type="curve" smooth="yes"/>
      <point x="190" y="-224"/>
      <point x="236" y="-264"/>
    </contour>
  </outline>
</glyph>
<glyph name="Iogonek" format="1">
  <advance width="600"/>
  <outline>
    <contour>
      <point x="66" y="0" type="line"/>
      <point x="261" y="0" type="line"/>
      <point x="233" y="-18"/>
      <point x="184" y="-64"/>
      <point x="184" y="-130" type="curve" smooth="yes"/>
      <point x="184" y="-192"/>
      <point x="238" y="-228"/>
      <point x="306" y="-228" type="curve" smooth="yes"/>
      <point x="344" y="-228"/>
      <point x="392" y="-212"/>
      <point x="420" y="-190" type="curve"/>
      <point x="382" y="-104" type="line"/>
      <point x="374" y="-110"/>
      <point x="360" y="-118"/>
      <point x="347" y="-118" type="curve" smooth="yes"/>
      <point x="328" y="-118"/>
      <point x="308" y="-108"/>
      <point x="308" y="-84" type="curve" smooth="yes"/>
      <point x="308" y="-52"/>
      <point x="328" y="-18"/>
      <point x="386" y="0" type="curve"/>
      <point x="534" y="0" type="line"/>
      <point x="534" y="144" type="line"/>
      <point x="386" y="144" type="line"/>
      <point x="386" y="506" type="line"/>
      <point x="534" y="506" type="line"/>
      <point x="534" y="650" type="line"/>
      <point x="66" y="650" type="line"/>
      <point x="66" y="506" type="line"/>
      <point x="214" y="506" type="line"/>
      <point x="214" y="144" type="line"/>
      <point x="66" y="144" type="line"/>
    </contour>
    <contour>
      <point x="300" y="672" type="move" name="aboveUC"/>
    </contour>
  </outline>
</glyph>
<glyph name="Kabashkir" format="1">
  <advance width="600"/>
  <outline>
    <contour>
      <point x="115" y="0" type="line"/>
      <point x="287" y="0" type="line"/>
      <point x="287" y="264" type="line"/>
      <point x="343" y="264" type="line"/>
      <point x="505" y="0" type="line"/>
      <point x="685" y="0" type="line"/>
      <point x="443" y="402" type="line"/>
      <point x="287" y="402" type="line"/>
      <point x="287" y="650" type="line"/>
      <point x="115" y="650" type="line"/>
    </contour>
    <contour>
      <point x="-57" y="506" type="line"/>
      <point x="115" y="506" type="line"/>
      <point x="287" y="650" type="line"/>
      <point x="-57" y="650" type="line"/>
    </contour>
    <contour>
      <point x="475" y="340" type="line"/>
      <point x="541" y="452" type="line" smooth="yes"/>
      <point x="562" y="488"/>
      <point x="579" y="502"/>
      <point x="609" y="502" type="curve" smooth="yes"/>
      <point x="615" y="502"/>
      <point x="627" y="502"/>
      <point x="639" y="498" type="curve"/>
      <point x="667" y="652" type="line"/>
      <point x="651" y="660"/>
      <point x="627" y="662"/>
      <point x="607" y="662" type="curve" smooth="yes"/>
      <point x="527" y="662"/>
      <point x="473" y="630"/>
      <point x="425" y="546" type="curve" smooth="yes"/>
      <point x="327" y="374" type="line"/>
    </contour>
  </outline>
</glyph>
<glyph name="Ldotbelowmacron" format="1">
  <advance width="600"/>
  <outline>
    <contour>
      <point x="96" y="0" type="line"/>
      <point x="545" y="0" type="line"/>
      <point x="545" y="144" type="line"/>
      <point x="268" y="144" type="line"/>
      <point x="268" y="650" type="line"/>
      <point x="96" y="650" type="line"/>
    </contour>
    <contour>
      <point x="49" y="716" type="line"/>
      <point x="345" y="716" type="line"/>
      <point x="345" y="824" type="line"/>
      <point x="49" y="824" type="line"/>
    </contour>
    <contour>
      <point x="326" y="-264" type="curve" smooth="yes"/>
      <point x="390" y="-264"/>
      <point x="436" y="-224"/>
      <point x="436" y="-164" type="curve" smooth="yes"/>
      <point x="436" y="-104"/>
      <point x="390" y="-62"/>
      <point x="326" y="-62" type="curve" smooth="yes"/>
      <point x="262" y="-62"/>
      <point x="216" y="-104"/>
      <point x="216" y="-164" type="curve" smooth="yes"/>
      <point x="216" y="-224"/>
      <point x="262" y="-264"/>
    </contour>
  </outline>
</glyph>
<glyph name="Llinebelow" format="1">
  <advance width="600"/>
  <outline>
    <contour>
      <point x="96" y="0" type="line"/>
      <point x="545" y="0" type="line"/>
      <point x="545" y="144" type="line"/>
      <point x="268" y="144" type="line"/>
      <point x="268" y="650" type="line"/>
      <point x="96" y="650" type="line"/>
    </contour>
    <contour>
      <point x="470" y="-88" type="line"/>
      <point x="182" y="-88" type="line"/>
      <point x="182" y="-196" type="line"/>
      <point x="470" y="-196" type="line"/>
    </contour>
  </outline>
</glyph>
<glyph name="Lslash" format="1">
  <advance width="600"/>
  <outline>
    <contour>
      <point x="266" y="270" type="line"/>
      <point x="467" y="382" type="line"/>
      <point x="467" y="514" type="line"/>
      <point x="266" y="402" type="line"/>
      <point x="98" y="320" type="line"/>
      <point x="25" y="278" type="line"/>
      <point x="25" y="146" type="line"/>
      <point x="98" y="188" type="line"/>
    </contour>
    <component base="L"/>
  </outline>
</glyph>
<glyph name="M" format="1">
  <advance width="600"/>
  <outline>
    <contour>
      <point x="58" y="0" type="line"/>
      <point x="194" y="0" type="line"/>
      <point x="194" y="153" type="line" smooth="yes"/>
      <point x="194" y="230"/>
      <point x="180" y="407"/>
      <point x="172" y="483" type="curve"/>
      <point x="176" y="483" type="line"/>
      <point x="227" y="290" type="line"/>
      <point x="261" y="173" type="line"/>
      <point x="335" y="173" type="line"/>
      <point x="369" y="290" type="line"/>
      <point x="423" y="483" type="line"/>
      <point x="426" y="483" type="line"/>
      <point x="418" y="407"/>
      <point x="404" y="230"/>
      <point x="404" y="153" type="curve" smooth="yes"/>
      <point x="404" y="0" type="line"/>
      <point x="542" y="0" type="line"/>
      <point x="542" y="650" type="line"/>
      <point x="373" y="650" type="line"/>
      <point x="321" y="438" type="line"/>
      <point x="303" y="354" type="line"/>
      <point x="300" y="354" type="line"/>
      <point x="282" y="438" type="line"/>
      <point x="227" y="650" type="line"/>
      <point x="58" y="650" type="line"/>
    </contour>
    <contour>
      <point x="300" y="672" type="move" name="aboveUC"/>
    </contour>
    <contour>
      <point x="300" y="-22" type="move" name="belowLC"/>
    </contour>
  </outline>
</glyph>
<glyph name="Mdotbelow" format="1">
  <advance width="600"/>
  <outline>
    <contour>
      <point x="58" y="0" type="line"/>
      <point x="194" y="0" type="line"/>
      <point x="194" y="153" type="line" smooth="yes"/>
      <point x="194" y="230"/>
      <point x="180" y="407"/>
      <point x="172" y="483" type="curve"/>
      <point x="176" y="483" type="line"/>
      <point x="227" y="290" type="line"/>
      <point x="261" y="173" type="line"/>
      <point x="335" y="173" type="line"/>
      <point x="369" y="290" type="line"/>
      <point x="423" y="483" type="line"/>
      <point x="426" y="483" type="line"/>
      <point x="418" y="407"/>
      <point x="404" y="230"/>
      <point x="404" y="153" type="curve" smooth="yes"/>
      <point x="404" y="0" type="line"/>
      <point x="542" y="0" type="line"/>
      <point x="542" y="650" type="line"/>
      <point x="373" y="650" type="line"/>
      <point x="321" y="438" type="line"/>
      <point x="303" y="354" type="line"/>
      <point x="300" y="354" type="line"/>
      <point x="282" y="438" type="line"/>
      <point x="227" y="650" type="line"/>
      <point x="58" y="650" type="line"/>
    </contour>
    <contour>
      <point x="300" y="-264" type="curve" smooth="yes"/>
      <point x="364" y="-264"/>
      <point x="410" y="-224"/>
      <point x="410" y="-164" type="curve" smooth="yes"/>
      <point x="410" y="-104"/>
      <point x="364" y="-62"/>
      <point x="300" y="-62" type="curve" smooth="yes"/>
      <point x="236" y="-62"/>
      <point x="190" y="-104"/>
      <point x="190" y="-164" type="curve" smooth="yes"/>
      <point x="190" y="-224"/>
      <point x="236" y="-264"/>
    </contour>
  </outline>
</glyph>
<glyph name="Nje" format="1">
  <advance width="600"/>
  <outline>
    <contour>
      <point x="-95" y="0" type="line"/>
      <point x="77" y="0" type="line"/>
      <point x="77" y="258" type="line"/>
      <point x="261" y="258" type="line"/>
      <point x="261" y="0" type="line"/>
      <point x="433" y="0" type="line"/>
      <point x="433" y="650" type="line"/>
      <point x="261" y="650" type="line"/>
      <point x="261" y="408" type="line"/>
      <point x="77" y="408" type="line"/>
      <point x="77" y="650" type="line"/>
      <point x="-95" y="650" type="line"/>
    </contour>
    <contour>
      <point x="261" y="0" type="line"/>
      <point x="469" y="0" type="line" smooth="yes"/>
      <point x="613" y="0"/>
      <point x="733" y="54"/>
      <point x="733" y="218" type="curve" smooth="yes"/>
      <point x="733" y="366"/>
      <point x="621" y="424"/>
      <point x="473" y="424" type="curve" smooth="yes"/>
      <point x="433" y="424" type="line"/>
      <point x="433" y="650" type="line"/>
      <point x="261" y="650" type="line"/>
    </contour>
    <contour>
      <point x="433" y="136" type="line"/>
      <point x="433" y="288" type="line"/>
      <point x="461" y="288" type="line" smooth="yes"/>
      <point x="531" y="288"/>
      <point x="565" y="264"/>
      <point x="565" y="216" type="curve" smooth="yes"/>
      <point x="565" y="158"/>
      <point x="525" y="136"/>
      <point x="461" y="136" type="curve" smooth="yes"/>
    </contour>
  </outline>
</glyph>
<glyph name="Nsmall" format="1">
  <advance width="600"/>
  <outline>
    <contour>
      <point x="74" y="0" type="line"/>
      <point x="234" y="0" type="line"/>
      <point x="234" y="113" type="line" smooth="yes"/>
      <point x="234" y="162"/>
      <point x="226" y="227"/>
      <point x="219" y="288" type="curve"/>
      <point x="223" y="288" type="line"/>
      <point x="236" y="258"/>
      <point x="255" y="212"/>
      <point x="269" y="184" type="curve" smooth="yes"/>
      <point x="368" y="0" type="line"/>
      <point x="526" y="0" type="line"/>
      <point x="526" y="500" type="line"/>
      <point x="366" y="500" type="line"/>
      <point x="366" y="387" type="line" smooth="yes"/>
      <point x="366" y="338"/>
      <point x="374" y="272"/>
      <point x="380" y="212" type="curve"/>
      <point x="377" y="212" type="line"/>
      <point x="364" y="241"/>
      <point x="344" y="287"/>
      <point x="330" y="316" type="curve" smooth="yes"/>
      <point x="232" y="500" type="line"/>
      <point x="74" y="500" type="line"/>
    </contour>
    <contour>
      <point x="306" y="522" type="move" name="aboveLC"/>
    </contour>
  </outline>
</glyph>
<glyph name="Ndotbelow" format="1">
  <advance width="600"/>
  <outline>
    <contour>
      <point x="60" y="0" type="line"/>
      <point x="224" y="0" type="line"/>
      <point x="224" y="188" type="line" smooth="yes"/>
      <point x="224" y="268"/>
      <point x="208" y="362"/>
      <point x="200" y="436" type="curve"/>
      <point x="204" y="436" type="line"/>
      <point x="257" y="291" type="line"/>
      <point x="366" y="0" type="line"/>
      <point x="540" y="0" type="line"/>
      <point x="540" y="650" type="line"/>
      <point x="376" y="650" type="line"/>
      <point x="376" y="462" type="line" smooth="yes"/>
      <point x="376" y="382"/>
      <point x="392" y="284"/>
      <point x="400" y="214" type="curve"/>
      <point x="396" y="214" type="line"/>
      <point x="343" y="360" type="line"/>
      <point x="234" y="650" type="line"/>
      <point x="60" y="650" type="line"/>
    </contour>
    <contour>
      <point x="300" y="-264" type="curve" smooth="yes"/>
      <point x="364" y="-264"/>
      <point x="410" y="-224"/>
      <point x="410" y="-164" type="curve" smooth="yes"/>
      <point x="410" y="-104"/>
      <point x="364" y="-62"/>
      <point x="300" y="-62" type="curve" smooth="yes"/>
      <point x="236" y="-62"/>
      <point x="190" y="-104"/>
      <point x="190" y="-164" type="curve" smooth="yes"/>
      <point x="190" y="-224"/>
      <point x="236" y="-264"/>
    </contour>
  </outline>
</glyph>
<glyph name="OE" format="1">
  <advance width="600"/>
  <outline>
    <contour>
      <point x="14" y="328" type="curve" smooth="yes"/>
      <point x="14" y="98"/>
      <point x="133" y="0"/>
      <point x="284" y="0" type="curve" smooth="yes"/>
      <point x="596" y="0" type="line"/>
      <point x="596" y="144" type="line"/>
      <point x="440" y="144" type="line"/>
      <point x="440" y="260" type="line"/>
      <point x="550" y="260" type="line"/>
      <point x="550" y="404" type="line"/>
      <point x="440" y="404" type="line"/>
      <point x="440" y="506" type="line"/>
      <point x="586" y="506" type="line"/>
      <point x="586" y="650" type="line"/>
      <point x="294" y="650" type="line" smooth="yes"/>
      <point x="138" y="650"/>
      <point x="14" y="558"/>
    </contour>
    <contour>
      <point x="190" y="328" type="curve" smooth="yes"/>
      <point x="190" y="482"/>
      <point x="227" y="512"/>
      <point x="274" y="512" type="curve" smooth="yes"/>
      <point x="288" y="512" type="line"/>
      <point x="288" y="138" type="line"/>
      <point x="274" y="138" type="line" smooth="yes"/>
      <point x="227" y="138"/>
      <point x="190" y="174"/>
    </contour>
    <contour>
      <point x="388" y="672" type="move" name="aboveUC"/>
    </contour>
  </outline>
</glyph>
<glyph name="O" format="1">
  <advance width="600"/>
  <outline>
    <contour>
      <point x="300" y="-12" type="curve" smooth="yes"/>
      <point x="458" y="-12"/>
      <point x="566" y="114"/>
      <point x="566" y="328" type="curve" smooth="yes"/>
      <point x="566" y="541"/>
      <point x="458" y="662"/>
      <point x="300" y="662" type="curve" smooth="yes"/>
      <point x="142" y="662"/>
      <point x="34" y="542"/>
      <point x="34" y="328" type="curve" smooth="yes"/>
      <point x="34" y="114"/>
      <point x="142" y="-12"/>
    </contour>
    <contour>
      <point x="300" y="136" type="curve" smooth="yes"/>
      <point x="244" y="136"/>
      <point x="210" y="210"/>
      <point x="210" y="328" type="curve" smooth="yes"/>
      <point x="210" y="446"/>
      <point x="244" y="514"/>
      <point x="300" y="514" type="curve" smooth="yes"/>
      <point x="356" y="514"/>
      <point x="390" y="446"/>
      <point x="390" y="328" type="curve" smooth="yes"/>
      <point x="390" y="210"/>
      <point x="356" y="136"/>
    </contour>
    <contour>
      <point x="300" y="672" type="move" name="aboveUC"/>
    </contour>
    <contour>
      <point x="300" y="-22" type="move" name="belowLC"/>
    </contour>
    <contour>
      <point x="300" y="0" type="move" name="ogonekUC"/>
    </contour>
    <contour>
      <point x="426" y="640" type="move" name="hornLC"/>
    </contour>
  </outline>
</glyph>
<glyph name="OEsmall" format="1">
  <advance width="736"/>
  <outline>
    <contour>
      <point x="292" y="-12" type="curve" smooth="yes"/>
      <point x="334" y="-12"/>
      <point x="364" y="-10"/>
      <point x="412" y="0" type="curve"/>
      <point x="708" y="0" type="line"/>
      <point x="708" y="122" type="line"/>
      <point x="502" y="122" type="line"/>
      <point x="502" y="198" type="line"/>
      <point x="670" y="198" type="line"/>
      <point x="670" y="310" type="line"/>
      <point x="502" y="310" type="line"/>
      <point x="502" y="376" type="line"/>
      <point x="698" y="376" type="line"/>
      <point x="698" y="500" type="line"/>
      <point x="412" y="500" type="line"/>
      <point x="360" y="510"/>
      <point x="334" y="512"/>
      <point x="292" y="512" type="curve" smooth="yes"/>
      <point x="164" y="512"/>
      <point x="32" y="426"/>
      <point x="32" y="249" type="curve" smooth="yes"/>
      <point x="32" y="68"/>
      <point x="164" y="-12"/>
    </contour>
    <contour>
      <point x="301" y="123" type="curve" smooth="yes"/>
      <point x="256" y="123"/>
      <point x="208" y="147"/>
      <point x="208" y="249" type="curve" smooth="yes"/>
      <point x="208" y="343"/>
      <point x="256" y="375"/>
      <point x="301" y="375" type="curve" smooth="yes"/>
      <point x="311" y="375"/>
      <point x="322" y="374"/>
      <point x="334" y="371" type="curve"/>
      <point x="334" y="127" type="line"/>
      <point x="322" y="124"/>
      <point x="311" y="123"/>
    </contour>
    <contour>
      <point x="422.0" y="522.0" type="move" name="aboveLC"/>
    </contour>
    <contour>
      <point x="438.0" y="-22.0" type="move" name="belowLC"/>
    </contour>
  </outline>
</glyph>
<glyph name="Omegatonos" format="1">
  <advance width="600"/>
  <outline>
    <contour>
      <point x="116" y="0" type="line"/>
      <point x="342" y="0" type="line"/>
      <point x="342" y="124" type="line"/>
      <point x="299.339970578" y="178.604837661"/>
      <point x="308.0" y="254.0"/>
      <point x="308" y="342" type="curve" smooth="yes"/>
      <point x="308.0" y="444.0"/>
      <point x="326.571428571" y="514.0"/>
      <point x="360" y="514" type="curve" smooth="yes"/>
      <point x="393.548387097" y="514.0"/>
      <point x="412.0" y="444.0"/>
      <point x="412" y="342" type="curve" smooth="yes"/>
      <point x="412" y="254"/>
      <point x="421" y="179"/>
      <point x="378" y="124" type="curve"/>
      <point x="378" y="0" type="line"/>
      <point x="604" y="0" type="line"/>
      <point x="604" y="138" type="line"/>
      <point x="532" y="138" type="line"/>
      <point x="532" y="142" type="line"/>
      <point x="564" y="176"/>
      <point x="588" y="262"/>
      <point x="588" y="360" type="curve" smooth="yes"/>
      <point x="588.0" y="540.0"/>
      <point x="497.949579832" y="662.0"/>
      <point x="360" y="662" type="curve" smooth="yes"/>
      <point x="221.944954128" y="662.0"/>
      <point x="132.0" y="540.0"/>
      <point x="132" y="360" type="curve" smooth="yes"/>
      <point x="132.0" y="262.0"/>
      <point x="155.604789734" y="176.100221333"/>
      <point x="188" y="142" type="curve"/>
      <point x="188" y="138" type="line"/>
      <point x="116" y="138" type="line"/>
    </contour>
    <contour>
      <point x="5" y="430" type="line"/>
      <point x="117" y="430" type="line"/>
      <point x="185" y="660" type="line"/>
      <point x="35" y="660" type="line"/>
    </contour>
  </outline>
</glyph>
<glyph name="Ocircumflexacute" format="1">
  <advance width="600"/>
  <outline>
    <contour>
      <point x="300" y="-12" type="curve" smooth="yes"/>
      <point x="458" y="-12"/>
      <point x="566" y="114"/>
      <point x="566" y="328" type="curve" smooth="yes"/>
      <point x="566" y="541"/>
      <point x="458" y="662"/>
      <point x="300" y="662" type="curve" smooth="yes"/>
      <point x="142" y="662"/>
      <point x="34" y="542"/>
      <point x="34" y="328" type="curve" smooth="yes"/>
      <point x="34" y="114"/>
      <point x="142" y="-12"/>
    </contour>
    <contour>
      <point x="300" y="136" type="curve" smooth="yes"/>
      <point x="244" y="136"/>
      <point x="210" y="210"/>
      <point x="210" y="328" type="curve" smooth="yes"/>
      <point x="210" y="446"/>
      <point x="244" y="514"/>
      <point x="300" y="514" type="curve" smooth="yes"/>
      <point x="356" y="514"/>
      <point x="390" y="446"/>
      <point x="390" y="328" type="curve" smooth="yes"/>
      <point x="390" y="210"/>
      <point x="356" y="136"/>
    </contour>
    <contour>
      <point x="421" y="770" type="line"/>
      <point x="517" y="770" type="line"/>
      <point x="619" y="894" type="line"/>
      <point x="489" y="894" type="line"/>
    </contour>
    <contour>
      <point x="130" y="700" type="line"/>
      <point x="250" y="700" type="line"/>
      <point x="298" y="752" type="line"/>
      <point x="302" y="752" type="line"/>
      <point x="350" y="700" type="line"/>
      <point x="470" y="700" type="line"/>
      <point x="374" y="818" type="line"/>
      <point x="226" y="818" type="line"/>
    </contour>
  </outline>
</glyph>
<glyph name="Ocircumflexdotbelow" format="1">
  <advance width="600"/>
  <outline>
    <contour>
      <point x="300" y="-12" type="curve" smooth="yes"/>
      <point x="458" y="-12"/>
      <point x="566" y="114"/>
      <point x="566" y="328" type="curve" smooth="yes"/>
      <point x="566" y="541"/>
      <point x="458" y="662"/>
      <point x="300" y="662" type="curve" smooth="yes"/>
      <point x="142" y="662"/>
      <point x="34" y="542"/>
      <point x="34" y="328" type="curve" smooth="yes"/>
      <point x="34" y="114"/>
      <point x="142" y="-12"/>
    </contour>
    <contour>
      <point x="300" y="136" type="curve" smooth="yes"/>
      <point x="244" y="136"/>
      <point x="210" y="210"/>
      <point x="210" y="328" type="curve" smooth="yes"/>
      <point x="210" y="446"/>
      <point x="244" y="514"/>
      <point x="300" y="514" type="curve" smooth="yes"/>
      <point x="356" y="514"/>
      <point x="390" y="446"/>
      <point x="390" y="328" type="curve" smooth="yes"/>
      <point x="390" y="210"/>
      <point x="356" y="136"/>
    </contour>
    <contour>
      <point x="250" y="700" type="line"/>
      <point x="298" y="758" type="line"/>
      <point x="302" y="758" type="line"/>
      <point x="350" y="700" type="line"/>
      <point x="480" y="700" type="line"/>
      <point x="384" y="824" type="line"/>
      <point x="216" y="824" type="line"/>
      <point x="120" y="700" type="line"/>
    </contour>
    <contour>
      <point x="300" y="-264" type="curve" smooth="yes"/>
      <point x="364" y="-264"/>
      <point x="410" y="-224"/>
      <point x="410" y="-164" type="curve" smooth="yes"/>
      <point x="410" y="-104"/>
      <point x="364" y="-62"/>
      <point x="300" y="-62" type="curve" smooth="yes"/>
      <point x="236" y="-62"/>
      <point x="190" y="-104"/>
      <point x="190" y="-164" type="curve" smooth="yes"/>
      <point x="190" y="-224"/>
      <point x="236" y="-264"/>
    </contour>
  </outline>
</glyph>
<glyph name="Ocircumflexhook" format="1">
  <advance width="600"/>
  <outline>
    <contour>
      <point x="300" y="-12" type="curve" smooth="yes"/>
      <point x="458" y="-12"/>
      <point x="566" y="114"/>
      <point x="566" y="328" type="curve" smooth="yes"/>
      <point x="566" y="541"/>
      <point x="458" y="662"/>
      <point x="300" y="662" type="curve" smooth="yes"/>
      <point x="142" y="662"/>
      <point x="34" y="542"/>
      <point x="34" y="328" type="curve" smooth="yes"/>
      <point x="34" y="114"/>
      <point x="142" y="-12"/>
    </contour>
    <contour>
      <point x="300" y="136" type="curve" smooth="yes"/>
      <point x="244" y="136"/>
      <point x="210" y="210"/>
      <point x="210" y="328" type="curve" smooth="yes"/>
      <point x="210" y="446"/>
      <point x="244" y="514"/>
      <point x="300" y="514" type="curve" smooth="yes"/>
      <point x="356" y="514"/>
      <point x="390" y="446"/>
      <point x="390" y="328" type="curve" smooth="yes"/>
      <point x="390" y="210"/>
      <point x="356" y="136"/>
    </contour>
    <contour>
      <point x="446" y="748" type="line"/>
      <point x="517" y="752"/>
      <point x="570" y="776"/>
      <point x="570" y="838" type="curve" smooth="yes"/>
      <point x="570" y="882"/>
      <point x="536" y="918"/>
      <point x="414" y="922" type="curve"/>
      <point x="398" y="854" type="line"/>
      <point x="449" y="850"/>
      <point x="462" y="840"/>
      <point x="462" y="824" type="curve" smooth="yes"/>
      <point x="462" y="808"/>
      <point x="450" y="803"/>
      <point x="434" y="800" type="curve"/>
    </contour>
    <contour>
      <point x="130" y="700" type="line"/>
      <point x="250" y="700" type="line"/>
      <point x="298" y="752" type="line"/>
      <point x="302" y="752" type="line"/>
      <point x="350" y="700" type="line"/>
      <point x="470" y="700" type="line"/>
      <point x="374" y="818" type="line"/>
      <point x="226" y="818" type="line"/>
    </contour>
  </outline>
</glyph>
<glyph name="Ohorn" format="1">
  <advance width="600"/>
  <outline>
    <contour>
      <point x="428" y="564" type="line"/>
      <point x="525" y="568"/>
      <point x="608" y="608"/>
      <point x="608" y="702" type="curve" smooth="yes"/>
      <point x="608" y="738"/>
      <point x="592" y="770"/>
      <point x="576" y="788" type="curve"/>
      <point x="460" y="738" type="line"/>
      <point x="467" y="727"/>
      <point x="476" y="710"/>
      <point x="476" y="690" type="curve" smooth="yes"/>
      <point x="476" y="648"/>
      <point x="450" y="637"/>
      <point x="416" y="630" type="curve"/>
    </contour>
    <component base="O"/>
    <contour>
      <point x="300" y="672" type="move" name="aboveUC"/>
    </contour>
    <contour>
      <point x="300" y="-22" type="move" name="belowLC"/>
    </contour>
  </outline>
</glyph>
<glyph name="Omega.math" format="1">
  <advance width="600"/>
  <outline>
    <contour>
      <point x="6" y="0" type="line"/>
      <point x="262" y="0" type="line"/>
      <point x="262" y="124" type="line"/>
      <point x="212" y="188"/>
      <point x="198" y="254"/>
      <point x="198" y="342" type="curve" smooth="yes"/>
      <point x="198" y="444"/>
      <point x="234" y="514"/>
      <point x="300" y="514" type="curve" smooth="yes"/>
      <point x="366" y="514"/>
      <point x="402" y="444"/>
      <point x="402" y="342" type="curve" smooth="yes"/>
      <point x="402" y="254"/>
      <point x="388" y="188"/>
      <point x="338" y="124" type="curve"/>
      <point x="338" y="0" type="line"/>
      <point x="594" y="0" type="line"/>
      <point x="594" y="138" type="line"/>
      <point x="492" y="138" type="line"/>
      <point x="492" y="142" type="line"/>
      <point x="530" y="182"/>
      <point x="578" y="262"/>
      <point x="578" y="360" type="curve" smooth="yes"/>
      <point x="578" y="540"/>
      <point x="468" y="662"/>
      <point x="300" y="662" type="curve" smooth="yes"/>
      <point x="132" y="662"/>
      <point x="22" y="540"/>
      <point x="22" y="360" type="curve" smooth="yes"/>
      <point x="22" y="262"/>
      <point x="70" y="182"/>
      <point x="108" y="142" type="curve"/>
      <point x="108" y="138" type="line"/>
      <point x="6" y="138" type="line"/>
    </contour>
  </outline>
</glyph>
<glyph name="Oogonek" format="1">
  <advance width="600"/>
  <outline>
    <contour>
      <point x="400" y="-104" type="line"/>
      <point x="391" y="-110"/>
      <point x="378" y="-118"/>
      <point x="366" y="-118" type="curve" smooth="yes"/>
      <point x="346" y="-118"/>
      <point x="326" y="-108"/>
      <point x="326" y="-84" type="curve" smooth="yes"/>
      <point x="326" y="-55"/>
      <point x="342" y="-18"/>
      <point x="392" y="4" type="curve" smooth="yes"/>
      <point x="496" y="50"/>
      <point x="566" y="150"/>
      <point x="566" y="328" type="curve" smooth="yes"/>
      <point x="566" y="541"/>
      <point x="458" y="662"/>
      <point x="300" y="662" type="curve" smooth="yes"/>
      <point x="142" y="662"/>
      <point x="34" y="542"/>
      <point x="34" y="328" type="curve" smooth="yes"/>
      <point x="34" y="156"/>
      <point x="108" y="12"/>
      <point x="266" y="-10" type="curve"/>
      <point x="238" y="-34"/>
      <point x="202" y="-76"/>
      <point x="202" y="-130" type="curve" smooth="yes"/>
      <point x="202" y="-192"/>
      <point x="256" y="-228"/>
      <point x="324" y="-228" type="curve" smooth="yes"/>
      <point x="362" y="-228"/>
      <point x="410" y="-212"/>
      <point x="438" y="-190" type="curve"/>
    </contour>
    <contour>
      <point x="300" y="136" type="curve" smooth="yes"/>
      <point x="244" y="136"/>
      <point x="210" y="210"/>
      <point x="210" y="328" type="curve" smooth="yes"/>
      <point x="210" y="446"/>
      <point x="244" y="514"/>
      <point x="300" y="514" type="curve" smooth="yes"/>
      <point x="356" y="514"/>
      <point x="390" y="446"/>
      <point x="390" y="328" type="curve" smooth="yes"/>
      <point x="390" y="210"/>
      <point x="356" y="136"/>
    </contour>
    <contour>
      <point x="300" y="672" type="move" name="aboveUC"/>
    </contour>
  </outline>
</glyph>
<glyph name="Oslash" format="1">
  <advance width="600"/>
  <outline>
    <contour>
      <point x="24" y="12" type="line"/>
      <point x="114" y="-46" type="line"/>
      <point x="588" y="638" type="line"/>
      <point x="498" y="696" type="line"/>
    </contour>
    <component base="O"/>
    <contour>
      <point x="306" y="672" type="move" name="aboveUC"/>
    </contour>
  </outline>
</glyph>
<glyph name="P" format="1">
  <advance width="600"/>
  <outline>
    <contour>
      <point x="63" y="0" type="line"/>
      <point x="235" y="0" type="line"/>
      <point x="235" y="206" type="line"/>
      <point x="315" y="206" type="line" smooth="yes"/>
      <point x="451" y="206"/>
      <point x="575" y="275"/>
      <point x="575" y="434" type="curve" smooth="yes"/>
      <point x="575" y="598"/>
      <point x="455" y="650"/>
      <point x="315" y="650" type="curve" smooth="yes"/>
      <point x="63" y="650" type="line"/>
    </contour>
    <contour>
      <point x="235" y="342" type="line"/>
      <point x="235" y="514" type="line"/>
      <point x="307" y="514" type="line" smooth="yes"/>
      <point x="371" y="514"/>
      <point x="407" y="492"/>
      <point x="407" y="434" type="curve" smooth="yes"/>
      <point x="407" y="376"/>
      <point x="375" y="342"/>
      <point x="307" y="342" type="curve" smooth="yes"/>
    </contour>
    <contour>
      <point x="312" y="672" type="move" name="aboveUC"/>
    </contour>
    <contour>
      <point x="161" y="-22" type="move" name="belowLC"/>
    </contour>
  </outline>
</glyph>
<glyph name="Phi" format="1">
  <advance width="600"/>
  <outline>
    <contour>
      <point x="274" y="60" type="curve"/>
      <point x="326" y="60" type="line" smooth="yes"/>
      <point x="482.382165605" y="60"/>
      <point x="590.0" y="154.0"/>
      <point x="590" y="328" type="curve" smooth="yes"/>
      <point x="590.0" y="502.0"/>
      <point x="482.382165605" y="592"/>
      <point x="326" y="592" type="curve" smooth="yes"/>
      <point x="274" y="592" type="line" smooth="yes"/>
      <point x="118" y="592"/>
      <point x="10" y="502"/>
      <point x="10" y="328" type="curve" smooth="yes"/>
      <point x="10" y="154"/>
      <point x="118" y="60"/>
    </contour>
    <contour>
      <point x="264" y="188" type="line" smooth="yes"/>
      <point x="204.130434783" y="188"/>
      <point x="162.0" y="242.0"/>
      <point x="162" y="328" type="curve" smooth="yes"/>
      <point x="162.0" y="414.0"/>
      <point x="204.130434783" y="464"/>
      <point x="264" y="464" type="curve" smooth="yes"/>
      <point x="336" y="464" type="line" smooth="yes"/>
      <point x="396.338028169" y="464"/>
      <point x="438.0" y="414.0"/>
      <point x="438" y="328" type="curve" smooth="yes"/>
      <point x="438.0" y="242.0"/>
      <point x="396.338028169" y="188"/>
      <point x="336" y="188" type="curve" smooth="yes"/>
    </contour>
    <contour>
      <point x="234" y="-22" type="line"/>
      <point x="366" y="-22" type="line"/>
      <point x="366" y="672" type="line"/>
      <point x="234" y="672" type="line"/>
    </contour>
  </outline>
</glyph>
<glyph name="Pi" format="1">
  <advance width="600"/>
  <outline>
    <contour>
      <point x="58" y="0" type="line"/>
      <point x="230" y="0" type="line"/>
      <point x="230" y="506" type="line"/>
      <point x="370" y="506" type="line"/>
      <point x="370" y="0" type="line"/>
      <point x="542" y="0" type="line"/>
      <point x="542" y="650" type="line"/>
      <point x="58" y="650" type="line"/>
    </contour>
  </outline>
</glyph>
<glyph name="R" format="1">
  <advance width="600"/>
  <outline>
    <contour>
      <point x="269" y="263" type="line"/>
      <point x="404" y="0" type="line"/>
      <point x="596" y="0" type="line"/>
      <point x="385" y="377" type="line"/>
    </contour>
    <contour>
      <point x="58" y="0" type="line"/>
      <point x="230" y="0" type="line"/>
      <point x="230" y="218" type="line"/>
      <point x="300" y="218" type="line" smooth="yes"/>
      <point x="440" y="218"/>
      <point x="560" y="283"/>
      <point x="560" y="440" type="curve" smooth="yes"/>
      <point x="560" y="602"/>
      <point x="440" y="650"/>
      <point x="300" y="650" type="curve" smooth="yes"/>
      <point x="58" y="650" type="line"/>
    </contour>
    <contour>
      <point x="230" y="354" type="line"/>
      <point x="230" y="514" type="line"/>
      <point x="288" y="514" type="line" smooth="yes"/>
      <point x="356" y="514"/>
      <point x="392" y="496"/>
      <point x="392" y="440" type="curve" smooth="yes"/>
      <point x="392" y="384"/>
      <point x="356" y="354"/>
      <point x="288" y="354" type="curve" smooth="yes"/>
    </contour>
    <contour>
      <point x="302" y="672" type="move" name="aboveUC"/>
    </contour>
    <contour>
      <point x="320" y="-22" type="move" name="belowLC"/>
    </contour>
  </outline>
</glyph>
<glyph name="Rsmall" format="1">
  <advance width="546"/>
  <outline>
    <contour>
      <point x="58" y="0" type="line"/>
      <point x="230" y="0" type="line"/>
      <point x="230" y="150" type="line"/>
      <point x="272" y="150" type="line"/>
      <point x="368" y="150"/>
      <point x="488" y="198"/>
      <point x="488" y="328" type="curve" smooth="yes"/>
      <point x="488" y="458"/>
      <point x="392" y="500"/>
      <point x="275" y="500" type="curve" smooth="yes"/>
      <point x="58" y="500" type="line"/>
    </contour>
    <contour>
      <point x="230" y="265" type="line"/>
      <point x="230" y="375" type="line"/>
      <point x="255" y="375" type="line" smooth="yes"/>
      <point x="299" y="375"/>
      <point x="319" y="357"/>
      <point x="319" y="323" type="curve" smooth="yes"/>
      <point x="319" y="290"/>
      <point x="299" y="265"/>
      <point x="255" y="265" type="curve" smooth="yes"/>
    </contour>
    <contour>
      <point x="347" y="0" type="line"/>
      <point x="538" y="0" type="line"/>
      <point x="385" y="242" type="line"/>
      <point x="244" y="196" type="line"/>
    </contour>
    <contour>
      <point x="272.0" y="522.0" type="move" name="aboveUC"/>
    </contour>
    <contour>
      <point x="292.0" y="-22.0" type="move" name="belowLC"/>
    </contour>
  </outline>
</glyph>
<glyph name="Rsmallinverted" format="1">
  <advance width="546"/>
  <outline>
    <contour>
      <point x="271" y="0" type="curve" smooth="yes"/>
      <point x="488" y="0" type="line"/>
      <point x="488" y="500" type="line"/>
      <point x="316" y="500" type="line"/>
      <point x="316" y="350" type="line"/>
      <point x="274" y="350" type="line"/>
      <point x="178" y="350"/>
      <point x="58" y="302"/>
      <point x="58" y="172" type="curve" smooth="yes"/>
      <point x="58" y="42"/>
      <point x="154" y="0"/>
    </contour>
    <contour>
      <point x="291" y="125" type="line" smooth="yes"/>
      <point x="247" y="125"/>
      <point x="227" y="143"/>
      <point x="227" y="177" type="curve" smooth="yes"/>
      <point x="227" y="210"/>
      <point x="247" y="235"/>
      <point x="291" y="235" type="curve" smooth="yes"/>
      <point x="316" y="235" type="line"/>
      <point x="316" y="125" type="line"/>
    </contour>
    <contour>
      <point x="161" y="258" type="line"/>
      <point x="302" y="304" type="line"/>
      <point x="199" y="500" type="line"/>
      <point x="8" y="500" type="line"/>
    </contour>
  </outline>
</glyph>
<glyph name="Rdotbelowmacron" format="1">
  <advance width="600"/>
  <outline>
    <contour>
      <point x="450" y="824" type="line"/>
      <point x="154" y="824" type="line"/>
      <point x="154" y="716" type="line"/>
      <point x="450" y="716" type="line"/>
    </contour>
    <contour>
      <point x="230" y="514" type="line"/>
      <point x="288" y="514" type="line" smooth="yes"/>
      <point x="356" y="514"/>
      <point x="392" y="496"/>
      <point x="392" y="440" type="curve" smooth="yes"/>
      <point x="392" y="384"/>
      <point x="356" y="354"/>
      <point x="288" y="354" type="curve" smooth="yes"/>
      <point x="230" y="354" type="line"/>
    </contour>
    <contour>
      <point x="230" y="218" type="line"/>
      <point x="292" y="218" type="line"/>
      <point x="404" y="0" type="line"/>
      <point x="596" y="0" type="line"/>
      <point x="455" y="252" type="line"/>
      <point x="518" y="286"/>
      <point x="560" y="347"/>
      <point x="560" y="440" type="curve" smooth="yes"/>
      <point x="560" y="602"/>
      <point x="440" y="650"/>
      <point x="300" y="650" type="curve" smooth="yes"/>
      <point x="58" y="650" type="line"/>
      <point x="58" y="0" type="line"/>
      <point x="230" y="0" type="line"/>
    </contour>
    <contour>
      <point x="320" y="-62" type="curve" smooth="yes"/>
      <point x="256" y="-62"/>
      <point x="210" y="-104"/>
      <point x="210" y="-164" type="curve" smooth="yes"/>
      <point x="210" y="-224"/>
      <point x="256" y="-264"/>
      <point x="320" y="-264" type="curve" smooth="yes"/>
      <point x="384" y="-264"/>
      <point x="430" y="-224"/>
      <point x="430" y="-164" type="curve" smooth="yes"/>
      <point x="430" y="-104"/>
      <point x="384" y="-62"/>
    </contour>
  </outline>
</glyph>
<glyph name="Sha" format="1">
  <advance width="600"/>
  <outline>
    <contour>
      <point x="-92" y="0" type="line"/>
      <point x="692" y="0" type="line"/>
      <point x="692" y="650" type="line"/>
      <point x="524" y="650" type="line"/>
      <point x="524" y="144" type="line"/>
      <point x="382" y="144" type="line"/>
      <point x="382" y="650" type="line"/>
      <point x="218" y="650" type="line"/>
      <point x="218" y="144" type="line"/>
      <point x="76" y="144" type="line"/>
      <point x="76" y="650" type="line"/>
      <point x="-92" y="650" type="line"/>
    </contour>
  </outline>
</glyph>
